<?xml version="1.0" encoding="UTF-8" standalone="no"?>
<!-- Created with Inkscape (http://www.inkscape.org/) -->

<svg
   xmlns:dc="http://purl.org/dc/elements/1.1/"
   xmlns:cc="http://creativecommons.org/ns#"
   xmlns:rdf="http://www.w3.org/1999/02/22-rdf-syntax-ns#"
   xmlns:svg="http://www.w3.org/2000/svg"
   xmlns="http://www.w3.org/2000/svg"
   xmlns:sodipodi="http://sodipodi.sourceforge.net/DTD/sodipodi-0.dtd"
   xmlns:inkscape="http://www.inkscape.org/namespaces/inkscape"
   width="300"
   height="150"
   viewBox="0 0 79.374999 39.687501"
   id="svg7196"
   version="1.1"
   inkscape:version="0.91+devel+osxmenu r12898"
   sodipodi:docname="typography-logo.svg">
  <defs
     id="defs7198" />
  <sodipodi:namedview
     id="base"
     pagecolor="#ffffff"
     bordercolor="#666666"
     borderopacity="1.0"
     inkscape:pageopacity="0.0"
     inkscape:pageshadow="2"
     inkscape:zoom="0.36591395"
     inkscape:cx="256.03321"
     inkscape:cy="560"
     inkscape:document-units="mm"
     inkscape:current-layer="layer1"
     showgrid="false"
     units="px"
     inkscape:window-width="1440"
     inkscape:window-height="900"
     inkscape:window-x="0"
     inkscape:window-y="23"
     inkscape:window-maximized="0" />
  <metadata
     id="metadata7201">
    <rdf:RDF>
      <cc:Work
         rdf:about="">
        <dc:format>image/svg+xml</dc:format>
        <dc:type
           rdf:resource="http://purl.org/dc/dcmitype/StillImage" />
        <dc:title></dc:title>
      </cc:Work>
    </rdf:RDF>
  </metadata>
  <g
     inkscape:label="Layer 1"
     inkscape:groupmode="layer"
     id="layer1"
     transform="translate(0,-257.31248)">
    <flowRoot
       xml:space="preserve"
       id="flowRoot4514"
       style="font-style:normal;font-weight:normal;font-size:37.33333206px;line-height:125%;font-family:sans-serif;letter-spacing:0px;word-spacing:0px;fill:#000000;fill-opacity:1;stroke:none;stroke-width:1px;stroke-linecap:butt;stroke-linejoin:miter;stroke-opacity:1"
       transform="matrix(0.26458333,0,0,0.26458333,210.98507,-136.20314)"
       inkscape:export-xdpi="150"
       inkscape:export-ydpi="150"><flowRegion
         id="flowRegion4516"
         style="font-size:37.33333206px;fill:#000000"><rect
           id="rect4518"
           width="524.10974"
           height="208.28761"
           x="96.87796"
           y="414.34183"
           style="font-size:37.33333206px;fill:#000000" /></flowRegion><flowPara
         id="flowPara4520" /></flowRoot>    <g
       id="g5997"
       transform="matrix(1.5611115,0,0,1.5611115,60.613136,92.722877)"
       style="fill:#000000"
       inkscape:export-xdpi="150"
       inkscape:export-ydpi="150">
      <g
         id="g5714"
         transform="matrix(0.26458333,0,0,0.26458333,-37.903615,105.71733)"
         style="fill:#000000">
        <path
           id="path5716"
           d="m 25.2,42.6 c -1.6,0 -3.2,0.9 -3.2,3 0,1.1 0.9,2.1 2.1,2.1 0.4,0 0.7,-0.1 0.9,-0.3 0,0.1 0.1,0.1 0.1,0.2 -0.4,0 -0.7,-0.6 -0.7,-1 0,-0.5 0.4,-1.1 1.1,-1.1 0.7,0 1.2,0.5 1.2,1.4 0,1.4 -1.1,2.2 -2.6,2.2 -2.2,0 -3.4,-1.6 -3.4,-3.4 0,-2.9 2.5,-4.3 4.6,-4.3 2.7,0 5.2,1.8 5.2,5.3 0,3.7 -2.6,6.2 -6.5,6.2 -4.6,0 -7,-3.6 -7,-7.1 0,-6 4.4,-9.2 9.3,-9.3 3.2,-0.1 5.3,1 8,2.7 0.4,0.3 0.8,0.5 0.8,0.8 0,0.6 -0.8,1.1 -1.3,0.6 -1.6,-1.4 -4.4,-2.9 -7.4,-2.8 -3.9,0 -8,2.5 -8,7.8 0,2.9 2.1,5.7 5.6,5.7 2.9,0 5.1,-1.8 5.1,-4.8 0,-2.6 -1.8,-3.9 -3.9,-3.9 z m 15.2,0.1 c -1.9,0 -3.2,1.1 -3.2,2.7 0,1.2 0.8,2.3 2,2.3 0.4,0 0.7,-0.1 0.9,-0.3 0,0.1 0.1,0.1 0.1,0.2 -0.4,0 -0.7,-0.6 -0.7,-1 0,-0.5 0.4,-1.1 1.1,-1.1 0.7,0 1.2,0.5 1.2,1.4 0,1.4 -1.1,2.2 -2.6,2.2 -2.2,0 -3.4,-1.7 -3.4,-3.7 0,-2.6 2.3,-4.2 4.6,-4.2 2.9,0 5.3,2 5.3,5.6 0,3.6 -2.8,6.1 -6.9,6.1 -4.3,0 -7,-3.4 -7,-7.6 0,-5.1 4.5,-8.5 8.8,-8.6 1.6,0 2.7,0.2 4.1,0.5 0.6,0.1 0.8,0.5 0.8,0.8 0,0.6 -0.6,0.8 -1.2,0.7 -1.1,-0.4 -2.6,-0.6 -3.6,-0.6 -3.6,0 -7.5,2.7 -7.5,7.1 0,3.1 2.2,6.2 5.9,6.2 2.9,0 5.1,-1.8 5.1,-4.7 0.1,-2.6 -1.7,-4 -3.8,-4 z m 7.2,3 c 0,-4.1 2.3,-6.3 5.5,-6.3 1.7,0 2.8,0.6 2.8,1.2 0,0.3 -0.2,0.6 -0.5,0.6 -0.4,0 -0.9,-0.5 -2.5,-0.5 -2.2,0 -3.9,1.9 -3.9,4.9 0,2.6 2.1,5.7 6.7,5.7 5.1,0 7.5,-4.7 7.5,-8.8 0,-7.7 -5.7,-11.8 -11.7,-11.8 -1.3,0 -2.6,0.2 -3.9,0.6 -0.1,0 -0.2,0 -0.3,0 -0.5,0 -0.8,-0.3 -0.8,-0.7 0,-0.3 0.2,-0.6 0.6,-0.7 1.4,-0.5 2.9,-0.7 4.3,-0.7 6.8,0 13.2,5.2 13.2,13.3 0,5.1 -2.9,10.2 -9,10.2 -5.4,0.1 -8,-3.8 -8,-7 z M 74.8,43 c -1.9,0 -3.2,1.1 -3.2,2.7 0,1.3 0.8,2.3 2,2.3 0.4,0 0.7,-0.1 0.9,-0.3 0,0.1 0.1,0.1 0.1,0.2 -0.4,0 -0.7,-0.6 -0.7,-1 0,-0.5 0.4,-1.1 1.1,-1.1 0.7,0 1.2,0.5 1.2,1.4 0,1.4 -1.1,2.2 -2.6,2.2 -2.2,0 -3.4,-1.7 -3.4,-3.7 0,-2.6 2.3,-4.2 4.6,-4.2 2.9,0 5.3,2 5.3,5.6 0,3.6 -2.8,6.1 -6.9,6.1 -4.3,0 -7,-3.4 -7,-7.6 0,-5.1 4.5,-8.5 8.8,-8.6 1.6,0 2.7,0.2 4.1,0.5 0.6,0.1 0.8,0.5 0.8,0.8 0,0.6 -0.6,0.8 -1.2,0.7 -1.1,-0.4 -2.6,-0.6 -3.6,-0.6 -3.6,0 -7.5,2.7 -7.5,7.1 0,3.1 2.2,6.2 5.9,6.2 2.9,0 5.1,-1.8 5.1,-4.7 0,-2.6 -1.7,-4 -3.8,-4 z m 19.7,-3 c 0.3,-0.2 0.6,-0.5 0.6,-1.1 0,-0.3 -0.1,-0.6 -0.2,-1 -0.2,-0.4 0.2,-0.8 0.6,-0.8 0.4,0 0.6,0.2 0.7,0.4 0.2,0.4 0.3,0.9 0.3,1.3 0,0.6 -0.3,1.2 -0.8,1.6 0,0 0,-0.1 0,-0.1 3,0 4.4,2.6 4.4,5.2 0,4.5 -4,7.2 -9.2,7.2 -5.2,0 -9.2,-2.7 -9.2,-7.2 0,-2.7 1.6,-5.2 4.6,-5.2 0,0 0,0 0.1,0.1 -0.9,-0.5 -1.3,-1.1 -1.3,-1.7 0,-1 0.8,-2.1 2.2,-2.1 1.5,0 2,1.2 3,1.2 0.4,0 0.6,0.3 0.6,0.7 0,0.3 -0.2,0.6 -0.6,0.6 -1.3,0 -1.7,-1 -2.7,-1.2 -0.1,0 -0.2,0 -0.3,0 -0.5,0 -1,0.3 -1,0.8 0,0.7 0.6,1.1 1.7,1.5 0.5,0.2 0.8,0.5 0.8,0.8 0,0.6 -0.5,0.8 -1,0.7 -0.5,-0.1 -1.1,-0.3 -1.6,-0.3 -2.1,0 -3.2,1.9 -3.2,4.1 0,3.7 3.4,5.8 7.8,5.8 4.4,0 7.8,-2.1 7.8,-5.8 0,-2.2 -1.1,-4.1 -3.2,-4.1 -0.5,0 -1.1,0.2 -1.6,0.3 -0.5,0.1 -0.8,-0.1 -0.9,-0.5 -0.1,-0.4 0.1,-0.7 0.4,-0.8 0.5,-0.1 0.7,-0.1 1.2,-0.4 z m 14.3,4.7 0,2.3 c 0,3.9 -1.3,5.8 -3.6,6.6 -0.1,0 -0.2,0.1 -0.3,0.1 -0.4,0 -0.7,-0.3 -0.7,-0.7 0,-0.3 0.2,-0.6 0.6,-0.8 1.9,-0.7 2.7,-2.5 2.7,-5.1 l 0,-2.3 c 0,-4.3 -1,-5.3 -2.5,-5.3 -1.4,0 -2.2,0.8 -2.2,2.9 0,0.2 0,0.5 0,0.7 0,0.3 -0.3,0.5 -0.6,0.5 -0.3,0 -0.6,-0.2 -0.7,-0.5 0,-0.3 0,-0.6 0,-0.9 0,-3.2 1.8,-4.2 3.5,-4.2 3.2,0 3.8,2.8 3.8,6.7 z m 2.2,0.7 c 0,-4.6 3,-7.7 6.7,-7.7 1.3,0 2.8,0.5 4.2,1.6 0.2,0.2 0.3,0.4 0.3,0.7 0,0.3 -0.3,0.7 -0.7,0.7 -0.1,0 -0.2,0 -0.3,-0.1 -1.1,-1 -2.3,-1.5 -3.5,-1.5 -2.7,0 -5.2,2.1 -5.2,6.3 0,4.5 2.5,6.3 5.4,6.3 3,0 4.5,-2 4.5,-3.6 0,-1.3 -0.5,-2 -1.8,-2 -0.3,0 -0.6,0.1 -0.9,0.1 -0.4,0 -0.5,-0.2 -0.5,-0.5 0,-0.2 0,-0.4 0,-0.6 0.8,-5 3,-7.5 7,-7.5 3.5,0 6.9,2.1 6.9,7.7 0,4.6 -3,7.7 -6.7,7.7 -1.4,0 -3,-0.4 -4.3,-1.7 -0.3,-0.3 -0.5,-0.4 -0.5,-0.7 0,-0.3 0.3,-0.7 0.7,-0.7 0.1,0 0.2,0 0.3,0.1 1.2,1.2 2.5,1.7 3.8,1.7 2.7,0 5.2,-2.1 5.2,-6.3 0,-4.5 -2.5,-6.3 -5.4,-6.3 -3.2,0 -5.2,2.6 -5.6,5.7 0.2,0 0.3,0 0.5,0 1.8,0 2.7,1.4 2.7,3.2 0,2.4 -1.7,5.2 -5.9,5.2 C 114.4,53.1 111,51 111,45.4 Z m 3.9,14.1 c 0,-0.4 0.4,-0.7 0.9,-0.7 0.3,0 0.5,0.2 0.8,0.3 2.4,1.3 5.3,1.9 7.8,1.7 3.3,-0.3 6.6,-2.4 6.6,-6.6 0,-1.6 -0.5,-2.9 -1.2,-3.5 l 1.1,-0.9 c 1.1,1 1.5,2.9 1.5,4.5 0,5 -3.4,7.7 -8.3,8.1 -3.8,0.3 -7.9,-1.5 -8.9,-2.2 -0.3,-0.2 -0.3,-0.5 -0.3,-0.7 z m 20.7,-15.6 c 0,3.3 2.8,6.5 6.5,6.5 3.2,0 5.6,-2.5 6.4,-5.6 0.1,-0.5 0.3,-0.7 0.6,-0.7 0.2,0 0.3,0 0.5,0.2 0.3,0.2 0.2,0.5 0.2,0.9 -0.8,3.2 -3.2,6.6 -7.8,6.6 -4.4,0 -7.6,-3.8 -7.6,-7.9 0,-0.4 0,-0.9 0.6,-0.9 0.5,0.1 0.6,0.5 0.6,0.9 z m 38.4,0.7 c 0,4.5 -3,7.9 -7,7.9 -1.2,0 -1,-1.4 0,-1.4 3.2,0 5.6,-2.8 5.6,-6.5 0,-3.9 -2.2,-6.2 -4.6,-6.2 -2.9,0 -4.5,2.6 -4.5,6.5 0,0.4 -0.1,0.7 -0.7,0.7 -0.6,0 -0.7,-0.3 -0.7,-0.7 0,-3.8 -1.6,-6.5 -4.6,-6.5 -2.5,0 -4.6,2.2 -4.6,6.2 0,3.7 2.4,6.5 5.6,6.5 1,0 1.2,1.4 0,1.4 -4,0 -7,-3.4 -7,-7.9 0,-4.9 2.8,-7.6 6,-7.6 2.3,0 4.7,1.6 5.3,3.9 0.6,-2.2 2.7,-3.9 5.2,-3.9 3.1,0 6,2.6 6,7.6 z M 163.8,34 c 0.1,0 0.3,0 0.3,0.1 0.6,0.5 1.2,0.7 2,0.7 1.1,0 2.1,-0.9 2.1,-2.4 0,-2.2 -2.4,-3.7 -5.2,-3.7 -3.2,0 -5.7,1.7 -5.7,4.8 0,2.2 1.3,3.5 2.3,3.9 0.4,0.4 1.7,0.7 1.7,1.4 0,-0.1 -0.2,-0.1 -0.6,-0.1 -2.7,0 -4.7,-2.4 -4.7,-5.2 0,-3.7 2.9,-6.2 7.1,-6.2 3.5,0 6.3,2.2 6.3,5 0,2.7 -1.6,3.8 -3.4,3.8 -1,0 -2.1,-0.3 -2.7,-1 -0.1,-0.1 -0.1,-0.3 -0.1,-0.5 -0.1,-0.3 0.2,-0.6 0.6,-0.6 z"
           inkscape:connector-curvature="0"
           style="fill:#000000" />
      </g>
      <g
         id="g5718"
         transform="matrix(0.26458333,0,0,0.26458333,-37.903615,105.71733)"
         style="fill:#000000">
        <rect
           id="rect5720"
           height="1.3"
           width="92.400002"
           y="57.900002"
           x="16.9"
           style="fill:#000000" />
      </g>
      <g
         id="g5722"
         transform="matrix(0.26458333,0,0,0.26458333,-37.903615,105.71733)"
         style="fill:#000000">
        <rect
           id="rect5724"
           height="1.2"
           width="86.400002"
           y="31.299999"
           x="65.099998"
           style="fill:#000000" />
      </g>
      <g
         id="g5726"
         transform="matrix(0.26458333,0,0,0.26458333,-37.903615,105.71733)"
         style="fill:#000000">
        <path
           id="path5728"
           d="m 60.3,73.8 0.1,3.9 -1.5,0 0.1,-3.7 0,-4 -2.4,0.7 -0.1,-0.1 0,-1.2 3.8,-1.1 0.2,0.1 -0.2,5.4 z"
           inkscape:connector-curvature="0"
           style="fill:#000000" />
        <path
           id="path5730"
           d="m 69.1,68.4 0.8,0 0,1.1 -3.6,7.9 -0.8,2.2 -1.2,-0.3 -0.1,-0.2 4.4,-9.4 -4,0 -1.4,0.1 -0.2,-0.2 0.1,-1.3 1.7,0.1 4.3,0 z"
           inkscape:connector-curvature="0"
           style="fill:#000000" />
        <path
           id="path5732"
           d="m 76.1,69 c 0.5,0.4 0.8,1 0.8,1.7 0,0.5 -0.2,1.1 -0.5,1.6 -0.3,0.5 -0.8,0.9 -1.4,1.2 l 0,0.1 c 1.5,0.4 2.3,1.2 2.3,2.5 0,0.7 -0.2,1.3 -0.5,1.8 -0.4,0.5 -0.9,1 -1.5,1.2 -0.6,0.3 -1.4,0.4 -2.2,0.4 -0.6,0 -1.2,-0.1 -1.8,-0.2 L 71.2,78 71.3,77.9 c 0.6,0.2 1.2,0.4 1.9,0.4 0.8,0 1.5,-0.2 2,-0.6 0.5,-0.4 0.8,-0.9 0.8,-1.6 0,-0.6 -0.2,-1 -0.6,-1.4 -0.4,-0.3 -1,-0.5 -1.8,-0.5 l -1.1,0 -0.1,-0.1 0,-1 0.8,0 c 0.3,0 0.7,-0.1 1,-0.3 0.3,-0.2 0.6,-0.4 0.9,-0.8 0.2,-0.3 0.3,-0.7 0.3,-1.1 0,-0.4 -0.1,-0.8 -0.4,-1.1 -0.3,-0.3 -0.7,-0.4 -1.2,-0.4 -0.7,0 -1.5,0.4 -2.3,1.1 l -0.2,0 -0.3,-1 c 0.9,-0.8 1.9,-1.2 3,-1.2 0.9,0 1.5,0.2 2.1,0.7 z"
           inkscape:connector-curvature="0"
           style="fill:#000000" />
        <path
           id="path5734"
           d="m 84.6,68.4 0.8,0 0,1.1 -3.6,7.9 -0.8,2.2 -1.2,-0.3 -0.1,-0.2 4.4,-9.4 -4,0 -1.4,0.1 -0.1,-0.2 0.1,-1.3 1.7,0.1 4.2,0 z"
           inkscape:connector-curvature="0"
           style="fill:#000000" />
        <path
           id="path5736"
           d="m 93.9,73.2 -4.5,0.7 -0.2,-0.2 0,-0.9 4.5,-0.6 0.1,0.1 0,0.9 z"
           inkscape:connector-curvature="0"
           style="fill:#000000" />
        <path
           id="path5738"
           d="m 103.3,68.9 c 0.5,0.4 0.7,0.9 0.7,1.5 0,0.5 -0.2,1.1 -0.5,1.7 -0.3,0.6 -0.9,1.4 -1.7,2.3 l -1.9,2.2 0,0.1 3.5,0 1.6,-0.1 0.1,0.1 -0.2,1.3 -1.9,-0.1 -4.2,0 -0.7,0 -0.1,-0.2 0,-0.9 2.6,-2.8 c 0.7,-0.7 1.2,-1.4 1.5,-1.9 0.3,-0.5 0.5,-0.9 0.5,-1.3 0,-0.3 -0.1,-0.6 -0.4,-0.8 -0.2,-0.2 -0.6,-0.3 -1,-0.3 -0.4,0 -0.9,0.1 -1.3,0.3 -0.4,0.2 -0.8,0.5 -1.2,0.9 l -0.2,0 -0.2,-1.1 c 1,-0.9 2.1,-1.4 3.3,-1.4 0.6,-0.1 1.2,0.1 1.7,0.5 z"
           inkscape:connector-curvature="0"
           style="fill:#000000" />
        <path
           id="path5740"
           d="m 113.7,69.5 c 0.7,0.8 1,2 1,3.5 0,1.5 -0.4,2.7 -1.1,3.6 -0.7,0.8 -1.7,1.3 -3.1,1.3 -1.3,0 -2.3,-0.4 -3,-1.2 -0.7,-0.8 -1,-2 -1,-3.4 0,-1.6 0.4,-2.8 1.1,-3.6 0.7,-0.8 1.8,-1.3 3.1,-1.3 1.3,-0.1 2.3,0.3 3,1.1 z m -6,3.6 c 0,2.3 1,3.5 2.9,3.5 0.9,0 1.7,-0.3 2.2,-0.9 0.5,-0.6 0.7,-1.4 0.7,-2.5 0,-1.2 -0.2,-2 -0.7,-2.6 -0.5,-0.6 -1.2,-0.9 -2.2,-0.9 -1.9,-0.1 -2.9,1.1 -2.9,3.4 z"
           inkscape:connector-curvature="0"
           style="fill:#000000" />
        <path
           id="path5742"
           d="m 119.7,73.8 0.1,3.9 -1.5,0 0.1,-3.7 0,-4 -2.4,0.7 -0.1,-0.1 0,-1.2 3.8,-1.1 0.2,0.1 -0.2,5.4 z"
           inkscape:connector-curvature="0"
           style="fill:#000000" />
        <path
           id="path5744"
           d="m 128.5,68.4 0.8,0 0,1.1 -3.6,7.9 -0.8,2.2 -1.2,-0.3 -0.1,-0.2 4.4,-9.4 -4,0 -1.4,0.1 -0.1,-0.2 0.1,-1.3 1.7,0.1 4.2,0 z"
           inkscape:connector-curvature="0"
           style="fill:#000000" />
      </g>
      <g
         id="g5746"
         transform="matrix(0.26458333,0,0,0.26458333,-37.903615,105.71733)"
         style="fill:#000000">
        <g
           id="g5748"
           style="fill:#000000">
          <path
             id="path5750"
             d="m 16.3,79.7 c -5.4,0 -6.8,-3.7 -6.8,-5.6 0,-2.8 1.7,-4.7 4.1,-4.7 2.1,0 3.2,1.5 3.4,3.1 0.2,1.7 -0.7,3.2 -2.2,3.5 -0.4,0.1 -0.8,-0.2 -0.9,-0.6 -0.1,-0.4 0.2,-0.8 0.6,-0.9 0.8,-0.2 1.1,-1.1 1.1,-1.9 -0.1,-0.8 -0.6,-1.7 -1.9,-1.7 -1.9,0 -2.6,1.7 -2.6,3.2 0,0.2 0.1,4.1 5.3,4.1 2.8,0 5.2,-1.8 13.1,-7.9 l 0.8,-0.6 c 0.8,-0.6 3.2,-2.5 5.6,-1.3 0.4,0.2 0.5,0.7 0.3,1 -0.2,0.4 -0.6,0.5 -1,0.3 -1,-0.5 -2.2,-0.2 -3.9,1.1 l -0.8,0.6 c -8.4,6.4 -10.9,8.3 -14.2,8.3 z"
             inkscape:connector-curvature="0"
             style="fill:#000000" />
        </g>
        <g
           id="g5752"
           style="fill:#000000">
          <path
             id="path5754"
             d="m 25.9,79.3 c -0.8,0 -1.6,-0.3 -2.5,-0.8 -0.4,-0.2 -0.5,-0.7 -0.2,-1 0.2,-0.4 0.7,-0.5 1,-0.2 2.2,1.4 3.6,0.3 9,-4 1.3,-1.1 2.8,-2.3 4.6,-3.6 0.8,-0.6 3.2,-2.5 5.6,-1.3 0.4,0.2 0.5,0.7 0.3,1 -0.2,0.4 -0.6,0.5 -1,0.3 -1,-0.5 -2.2,-0.2 -3.9,1.1 -1.8,1.4 -3.3,2.6 -4.6,3.6 -3.8,3.1 -6.1,4.9 -8.3,4.9 z"
             inkscape:connector-curvature="0"
             style="fill:#000000" />
        </g>
        <g
           id="g5756"
           style="fill:#000000">
          <path
             id="path5758"
             d="m 34.3,79.3 c -0.8,0 -1.6,-0.3 -2.5,-0.8 -0.4,-0.2 -0.5,-0.7 -0.2,-1 0.2,-0.4 0.7,-0.5 1,-0.2 2.2,1.4 3.6,0.3 9,-4 1.3,-1.1 2.8,-2.3 4.6,-3.6 0.8,-0.6 3.2,-2.5 5.6,-1.3 0.4,0.2 0.5,0.7 0.3,1 -0.2,0.4 -0.6,0.5 -1,0.3 -1,-0.5 -2.2,-0.2 -3.9,1.1 -1.8,1.4 -3.3,2.6 -4.6,3.6 -3.8,3.1 -6.1,4.9 -8.3,4.9 z"
             inkscape:connector-curvature="0"
             style="fill:#000000" />
        </g>
      </g>
      <g
         id="g5760"
         transform="matrix(0.26458333,0,0,0.26458333,-37.903615,105.71733)"
         style="fill:#000000">
        <g
           id="g5762"
           style="fill:#000000">
          <path
             id="path5764"
             d="m 170.7,79.7 c -3.3,0 -5.8,-1.9 -14,-8.2 l -0.8,-0.6 c -1.7,-1.3 -2.9,-1.7 -3.9,-1.1 -0.4,0.2 -0.8,0.1 -1,-0.3 -0.2,-0.4 -0.1,-0.8 0.3,-1 2.3,-1.2 4.8,0.6 5.6,1.3 l 0.8,0.6 c 7.9,6.1 10.3,7.9 13.1,7.9 5.3,0 5.3,-3.9 5.3,-4.1 0,-1.5 -0.7,-3.2 -2.6,-3.2 -1.2,0 -1.8,0.9 -1.9,1.7 -0.1,0.8 0.2,1.7 1.1,1.9 0.4,0.1 0.7,0.5 0.6,0.9 -0.1,0.4 -0.5,0.7 -0.9,0.6 -1.5,-0.3 -2.4,-1.8 -2.2,-3.5 0.2,-1.5 1.3,-3.1 3.4,-3.1 2.4,0 4.1,1.9 4.1,4.7 -0.2,1.9 -1.6,5.5 -7,5.5 z"
             inkscape:connector-curvature="0"
             style="fill:#000000" />
        </g>
        <g
           id="g5766"
           style="fill:#000000">
          <path
             id="path5768"
             d="m 161,79.3 c -2.2,0 -4.5,-1.8 -8.2,-4.9 -1.3,-1 -2.8,-2.2 -4.6,-3.6 -1.7,-1.3 -2.9,-1.7 -3.9,-1.1 -0.4,0.2 -0.8,0.1 -1,-0.3 -0.2,-0.4 -0.1,-0.8 0.3,-1 2.3,-1.2 4.8,0.6 5.6,1.3 1.8,1.4 3.3,2.6 4.6,3.6 5.3,4.3 6.8,5.3 9,4 0.4,-0.2 0.8,-0.1 1,0.2 0.2,0.3 0.1,0.8 -0.2,1 -1,0.6 -1.8,0.8 -2.6,0.8 z"
             inkscape:connector-curvature="0"
             style="fill:#000000" />
        </g>
        <g
           id="g5770"
           style="fill:#000000">
          <path
             id="path5772"
             d="m 152.6,79.3 c -2.2,0 -4.5,-1.8 -8.2,-4.9 -1.3,-1 -2.8,-2.2 -4.6,-3.6 -1.7,-1.3 -2.9,-1.7 -3.9,-1.1 -0.4,0.2 -0.8,0.1 -1,-0.3 -0.2,-0.4 -0.1,-0.8 0.3,-1 2.3,-1.2 4.8,0.6 5.6,1.3 1.8,1.4 3.3,2.6 4.6,3.6 5.3,4.3 6.8,5.3 9,4 0.3,-0.2 0.8,-0.1 1,0.2 0.2,0.3 0.1,0.8 -0.2,1 -1,0.6 -1.8,0.8 -2.6,0.8 z"
             inkscape:connector-curvature="0"
             style="fill:#000000" />
        </g>
      </g>
      <g
         id="g5774"
         transform="matrix(0.26458333,0,0,0.26458333,-37.903615,105.71733)"
         style="fill:#000000">
        <g
           id="g5776"
           style="fill:#000000">
          <path
             id="path5778"
             d="m 38.4,24.9 c -1.7,0 -3.3,-1.2 -3.9,-1.7 l -0.8,-0.6 c -7.9,-6.1 -10.3,-7.9 -13.1,-7.9 -5.3,0 -5.3,3.9 -5.3,4.1 0,1.5 0.7,3.2 2.6,3.2 1.2,0 1.8,-0.9 1.9,-1.7 0.1,-0.8 -0.2,-1.7 -1.1,-1.9 -0.4,-0.1 -0.7,-0.5 -0.6,-0.9 0.1,-0.4 0.5,-0.7 0.9,-0.6 1.5,0.3 2.4,1.8 2.2,3.5 -0.2,1.5 -1.3,3.1 -3.4,3.1 -2.4,0 -4.1,-1.9 -4.1,-4.7 0,-1.9 1.4,-5.6 6.8,-5.6 3.3,0 5.8,1.9 14,8.2 l 0.8,0.6 c 1.7,1.3 2.9,1.7 3.9,1.1 0.4,-0.2 0.8,-0.1 1,0.3 0.2,0.4 0.1,0.8 -0.3,1 -0.4,0.4 -1,0.5 -1.5,0.5 z"
             inkscape:connector-curvature="0"
             style="fill:#000000" />
        </g>
        <g
           id="g5780"
           style="fill:#000000">
          <path
             id="path5782"
             d="m 46,24.9 c -1.7,0 -3.3,-1.2 -3.9,-1.7 -1.8,-1.4 -3.3,-2.6 -4.6,-3.6 -5.3,-4.3 -6.8,-5.3 -9,-4 -0.4,0.2 -0.8,0.1 -1,-0.2 -0.2,-0.4 -0.1,-0.8 0.2,-1 3.2,-2 5.5,-0.1 10.7,4.1 1.3,1 2.8,2.2 4.6,3.6 1.7,1.3 2.9,1.7 3.9,1.1 0.4,-0.2 0.8,-0.1 1,0.3 0.2,0.4 0.1,0.8 -0.3,1 -0.5,0.3 -1.1,0.4 -1.6,0.4 z"
             inkscape:connector-curvature="0"
             style="fill:#000000" />
        </g>
        <g
           id="g5784"
           style="fill:#000000">
          <path
             id="path5786"
             d="m 54.4,24.9 c -1.7,0 -3.3,-1.2 -3.9,-1.7 -1.8,-1.4 -3.3,-2.6 -4.6,-3.6 -5.3,-4.3 -6.8,-5.3 -9,-4 -0.4,0.2 -0.8,0.1 -1,-0.2 -0.2,-0.4 -0.1,-0.8 0.2,-1 3.2,-2 5.5,-0.1 10.7,4.1 1.3,1 2.8,2.2 4.6,3.6 1.7,1.3 2.9,1.7 3.9,1.1 0.4,-0.2 0.8,-0.1 1,0.3 0.2,0.4 0.1,0.8 -0.3,1 -0.5,0.3 -1.1,0.4 -1.6,0.4 z"
             inkscape:connector-curvature="0"
             style="fill:#000000" />
        </g>
      </g>
      <g
         id="g5788"
         transform="matrix(0.26458333,0,0,0.26458333,-37.903615,105.71733)"
         style="fill:#000000">
        <g
           id="g5790"
           style="fill:#000000">
          <path
             id="path5792"
             d="m 147.1,24.9 c -0.5,0 -1.1,-0.1 -1.7,-0.4 -0.4,-0.2 -0.5,-0.7 -0.3,-1 0.2,-0.4 0.6,-0.5 1,-0.3 1,0.5 2.2,0.2 3.9,-1.1 l 0.8,-0.6 c 8.2,-6.3 10.7,-8.2 14,-8.2 5.4,0 6.8,3.7 6.8,5.6 0,2.8 -1.7,4.7 -4.1,4.7 -2.1,0 -3.2,-1.5 -3.4,-3.1 -0.2,-1.7 0.7,-3.2 2.2,-3.5 0.4,-0.1 0.8,0.2 0.9,0.6 0.1,0.4 -0.2,0.8 -0.6,0.9 -0.9,0.2 -1.1,1.1 -1.1,1.9 0.1,0.8 0.6,1.7 1.9,1.7 1.9,0 2.6,-1.7 2.6,-3.2 0,-0.2 -0.1,-4.1 -5.3,-4.1 -2.8,0 -5.2,1.8 -13.1,7.9 l -0.8,0.6 c -0.4,0.4 -2,1.6 -3.7,1.6 z"
             inkscape:connector-curvature="0"
             style="fill:#000000" />
        </g>
        <g
           id="g5794"
           style="fill:#000000">
          <path
             id="path5796"
             d="m 139.5,24.9 c -0.5,0 -1.1,-0.1 -1.7,-0.4 -0.4,-0.2 -0.5,-0.7 -0.3,-1 0.2,-0.4 0.6,-0.5 1,-0.3 1,0.5 2.2,0.2 3.9,-1.1 1.8,-1.4 3.3,-2.6 4.6,-3.6 5.2,-4.2 7.5,-6.1 10.7,-4.1 0.4,0.2 0.5,0.7 0.2,1 -0.2,0.3 -0.7,0.5 -1,0.2 -2.2,-1.4 -3.6,-0.3 -9,4 -1.3,1.1 -2.8,2.3 -4.6,3.6 -0.5,0.5 -2.1,1.7 -3.8,1.7 z"
             inkscape:connector-curvature="0"
             style="fill:#000000" />
        </g>
        <g
           id="g5798"
           style="fill:#000000">
          <path
             id="path5800"
             d="m 131.1,24.9 c -0.5,0 -1.1,-0.1 -1.7,-0.4 -0.4,-0.2 -0.5,-0.7 -0.3,-1 0.2,-0.4 0.6,-0.5 1,-0.3 1,0.5 2.2,0.2 3.9,-1.1 1.8,-1.4 3.3,-2.6 4.6,-3.6 5.2,-4.2 7.5,-6.1 10.7,-4.1 0.4,0.2 0.5,0.7 0.2,1 -0.2,0.3 -0.7,0.5 -1,0.2 -2.2,-1.4 -3.6,-0.3 -9,4 -1.3,1.1 -2.8,2.3 -4.6,3.6 -0.5,0.5 -2.1,1.7 -3.8,1.7 z"
             inkscape:connector-curvature="0"
             style="fill:#000000" />
        </g>
      </g>
      <g
         id="g5802"
         transform="matrix(0.26458333,0,0,0.26458333,-37.903615,105.71733)"
         style="fill:#000000">
        <path
           id="path5804"
           d="m 182.7,88.2 -178,0 c -0.4,0 -0.8,-0.4 -0.8,-0.8 l 0,-81.1 c 0,-0.5 0.4,-1 1,-1 l 177.9,0 c 0.5,0 1,0.4 1,1 l 0,80.9 c -0.1,0.5 -0.5,1 -1.1,1 z M 5.4,86.7 l 176.8,0 0,-79.9 -176.8,0 0,79.9 z"
           inkscape:connector-curvature="0"
           style="fill:#000000" />
      </g>
      <g
         id="g5806"
         transform="matrix(0.26458333,0,0,0.26458333,-37.903615,105.71733)"
         style="fill:#000000">
        <rect
           id="rect5808"
           height="1.2"
           width="24.9"
           y="31.299999"
           x="18.1"
           style="fill:#000000" />
      </g>
      <g
         id="g5810"
         transform="matrix(0.26458333,0,0,0.26458333,-37.903615,105.71733)"
         style="fill:#000000">
        <rect
           id="rect5812"
           height="1.3"
           width="37.200001"
           y="57.900002"
           x="136"
           style="fill:#000000" />
      </g>
    </g>
  </g>
</svg>
