<?xml version="1.0" encoding="UTF-8" standalone="no"?>
<!-- Created with Inkscape (http://www.inkscape.org/) -->

<svg
   xmlns:dc="http://purl.org/dc/elements/1.1/"
   xmlns:cc="http://creativecommons.org/ns#"
   xmlns:rdf="http://www.w3.org/1999/02/22-rdf-syntax-ns#"
   xmlns:svg="http://www.w3.org/2000/svg"
   xmlns="http://www.w3.org/2000/svg"
   xmlns:sodipodi="http://sodipodi.sourceforge.net/DTD/sodipodi-0.dtd"
   xmlns:inkscape="http://www.inkscape.org/namespaces/inkscape"
   width="400"
   height="400"
   viewBox="0 0 105.83333 105.83333"
   id="svg2"
   version="1.1"
   inkscape:version="0.91+devel+osxmenu r12898"
   sodipodi:docname="typography-competetion.svg">
  <defs
     id="defs4" />
  <sodipodi:namedview
     id="base"
     pagecolor="#ffffff"
     bordercolor="#666666"
     borderopacity="1.0"
     inkscape:pageopacity="0.0"
     inkscape:pageshadow="2"
     inkscape:zoom="1.128228"
     inkscape:cx="71.665572"
     inkscape:cy="101.58651"
     inkscape:document-units="mm"
     inkscape:current-layer="g6161"
     showgrid="false"
     inkscape:window-width="1440"
     inkscape:window-height="900"
     inkscape:window-x="0"
     inkscape:window-y="23"
     inkscape:window-maximized="0"
     units="px" />
  <metadata
     id="metadata7">
    <rdf:RDF>
      <cc:Work
         rdf:about="">
        <dc:format>image/svg+xml</dc:format>
        <dc:type
           rdf:resource="http://purl.org/dc/dcmitype/StillImage" />
        <dc:title></dc:title>
      </cc:Work>
    </rdf:RDF>
  </metadata>
  <g
     inkscape:label="Layer 1"
     inkscape:groupmode="layer"
     id="layer1"
     transform="translate(0,-191.16666)">
    <g
       id="g6183"
       transform="matrix(0.27991629,0,0,0.27991629,20.910762,229.47575)">
      <g
         transform="matrix(2.0130914,0,0,2.0130914,-125.92047,5.3627099)"
         id="g6161">
        <g
           transform="matrix(0.90093754,0,0,0.90093754,-202.80306,-351.79627)"
           style="font-style:normal;font-weight:normal;font-size:10.66666698px;line-height:125%;font-family:sans-serif;letter-spacing:0px;word-spacing:0px;fill:#0b2822;fill-opacity:1;stroke:none;stroke-width:1px;stroke-linecap:butt;stroke-linejoin:miter;stroke-opacity:1"
           id="flowRoot5077">
          <path
             d="m 342.9719,373.27834 -2.18842,0 q -0.0249,-0.24869 -0.0249,-0.8704 0,-1.61645 1.24342,-1.98947 0.27356,-0.0746 0.54711,-0.0746 1.19368,0 1.56671,0.99474 0.0995,0.29842 0.0995,0.62171 -0.0249,0.79579 -0.49736,1.4175 -0.32329,-0.0995 -0.74606,-0.0995 z m -7.65947,5.22237 q 0,-2.3625 1.09421,-3.2329 0.4725,-0.37303 1.06934,-0.37303 l 5.27211,0 q 1.4921,0 1.86513,2.46198 0.0746,0.57197 0.0746,1.14395 0,2.4371 -1.24342,2.98421 -0.29842,0.12434 -0.62171,0.12434 -1.86513,0 -2.03921,-3.55619 -0.0249,-0.22381 -0.0249,-0.44763 l -1.51697,0 q -0.22382,3.85461 -2.06408,4.00382 -1.31803,0 -1.74079,-1.79053 -0.12434,-0.62171 -0.12434,-1.31802 z m -1.74079,0 q 0,3.18315 1.74079,4.37684 0.82066,0.5471 1.86513,0.5471 2.11382,0 2.78526,-2.23815 0.0249,-0.0746 0.0497,-0.14921 0.42276,1.79052 1.89,2.23815 0.44763,0.14921 0.92013,0.14921 2.46198,0 3.28263,-2.61118 0.32329,-1.04447 0.32329,-2.31276 -0.0249,-3.13343 -1.44236,-4.40172 0.77092,-1.0196 0.77092,-2.21329 -0.0249,-1.39263 -0.8704,-2.26302 1.14395,-1.29316 1.24342,-2.90961 0,-2.76039 -2.61118,-4.00381 -1.51698,-0.72119 -3.50645,-0.72119 -3.38211,0 -5.04829,1.8154 -1.09421,1.19368 -1.09421,2.9096 0,1.61645 1.16882,2.835 0.0497,0.0746 0.0995,0.0995 -0.84553,0.87039 -0.84553,2.18842 0,0.74605 0.34816,1.44237 l -1.36776,0 0,1.59158 1.31802,0 q -0.82065,0.89526 -0.99473,3.03394 -0.0249,0.29842 -0.0249,0.59685 z m 2.26303,-6.5404 q 0,-1.19368 1.04447,-1.51697 0.29842,-0.0995 0.59684,-0.0995 1.21855,0 1.64132,1.11908 0.14921,0.3979 0.14921,0.945 0,0.14921 -0.0249,0.44763 0,0.29842 0,0.42277 l -3.00908,0 q -0.39789,-0.62171 -0.39789,-1.31803 z m 1.59157,-3.20803 q -0.49736,0 -0.82065,0.0995 -0.945,-0.82066 -0.945,-2.13869 0,-1.71592 1.89,-2.51171 1.06934,-0.42276 2.46197,-0.42276 2.78526,0 3.87948,1.4921 0.44763,0.67145 0.44763,1.44237 -0.0249,1.3429 -0.945,2.13869 -0.34816,-0.0995 -0.79579,-0.0995 -1.61645,0.0249 -2.58632,1.19369 -0.99474,-1.19369 -2.58632,-1.19369 z"
             style="font-style:normal;font-variant:normal;font-weight:bold;font-stretch:normal;font-size:25.46526718px;line-height:123.00000191%;font-family:'Yaldevi Colombo';-inkscape-font-specification:'Yaldevi Colombo Bold';text-align:center;text-anchor:middle;fill:#0b2822"
             id="path6308"
             inkscape:connector-curvature="0" />
          <path
             d="m 349.36309,376.85939 q 0.0249,2.63605 1.59158,2.66092 1.51697,-0.14921 1.56671,-2.66092 0,-2.46197 -1.36776,-2.63605 -0.0995,-0.0249 -0.19895,-0.0249 -1.51698,0.19895 -1.59158,2.66092 z m -1.61645,0 q 0,-2.81013 1.59158,-3.85461 0.72118,-0.4725 1.61645,-0.4725 2.01434,0 2.81013,2.06408 0.39789,0.99474 0.39789,2.26303 0,3.85461 -2.56144,4.30224 -0.32329,0.0497 -0.64658,0.0497 -2.7604,0 -3.15829,-3.33236 -0.0497,-0.49737 -0.0497,-1.01961 z"
             style="font-style:normal;font-variant:normal;font-weight:bold;font-stretch:normal;font-size:25.46526718px;line-height:123.00000191%;font-family:'Yaldevi Colombo';-inkscape-font-specification:'Yaldevi Colombo Bold';text-align:center;text-anchor:middle;fill:#0b2822"
             id="path6310"
             inkscape:connector-curvature="0" />
          <path
             d="m 365.70164,381.7336 q -1.0196,-0.0249 -1.59158,-0.89526 0.24869,-0.64658 0.24869,-1.39263 0,-2.18843 -1.54184,-2.66093 -0.17408,-0.0497 -0.32329,-0.0746 0.29842,-0.84553 0.44763,-2.3625 0.17408,-2.63605 1.24342,-3.33237 0.52224,-0.29842 1.21855,-0.29842 2.95934,0.0497 2.98421,5.49592 -0.0249,5.49592 -2.68579,5.52079 z m -5.7446,-4.37684 0.87039,1.24342 q 0.34816,-0.19895 0.49737,-0.29842 0.32329,-0.17408 0.54711,-0.17408 0.74605,0.0746 0.77092,1.26829 0,1.46724 -1.24342,2.06408 -0.59685,0.24868 -1.3429,0.24868 -2.3625,0 -2.85987,-2.41223 -0.0995,-0.52224 -0.0995,-1.11908 0,-2.11382 0.99473,-2.93448 0.47251,-0.34816 1.04448,-0.34816 l 2.16355,0 q -0.29842,1.84027 -1.34289,2.46198 z m -4.50119,0.92013 q 0,2.98421 1.91487,4.35197 1.11908,0.79579 2.68579,0.79579 1.98947,-0.0249 3.15829,-1.11908 0.92013,1.09422 2.48684,1.11908 4.40171,-0.0497 4.42658,-7.21184 0,-6.76421 -4.10329,-7.18697 -0.32329,-0.0249 -0.62171,-0.0249 -2.18842,0.0249 -3.15829,1.54184 -0.79579,-1.61645 -2.63605,-1.76566 -0.17408,-0.0249 -0.32329,-0.0249 -1.79053,0 -2.68579,1.39264 -0.4725,0.77092 -0.4725,1.74078 0.0249,1.19369 0.77092,2.21329 -1.44237,1.26829 -1.44237,4.1779 z m 2.21329,-6.31658 q 0,-1.19368 1.06934,-1.51697 0.29843,-0.0995 0.59685,-0.0995 1.21855,0 1.64131,1.11908 0.14921,0.3979 0.14921,0.945 0,0.59684 -0.0249,0.8704 l -2.18842,0 q -0.44763,0 -0.74605,0.0995 -0.49737,-0.62171 -0.49737,-1.4175 z"
             style="font-style:normal;font-variant:normal;font-weight:bold;font-stretch:normal;font-size:25.46526718px;line-height:123.00000191%;font-family:'Yaldevi Colombo';-inkscape-font-specification:'Yaldevi Colombo Bold';text-align:center;text-anchor:middle;fill:#0b2822"
             id="path6312"
             inkscape:connector-curvature="0" />
          <path
             d="m 371.52086,378.30176 q 0,5.17263 2.63605,7.48539 1.69105,1.44237 4.15303,1.44237 3.45671,0 5.12289,-2.56144 0.64658,-1.04448 0.8704,-2.26303 l -1.79053,-0.27355 q -0.39789,1.89 -2.06408,2.78526 -0.945,0.49737 -2.13868,0.49737 -2.81014,0 -4.10329,-2.78527 -0.84553,-1.79052 -0.84553,-4.3271 0,-4.42658 1.98947,-6.46579 1.24342,-1.26829 3.05882,-1.26829 2.41224,0 3.58105,1.93974 0.67145,1.16881 0.67145,2.71065 0,3.55619 -1.89,4.07843 -0.29842,0.0746 -0.62171,0.0746 -1.04447,0 -1.54184,-0.92013 -0.19895,-0.3979 -0.19895,-0.82066 0,-1.21855 1.09421,-1.79053 0.42276,-0.17407 0.89526,-0.24868 l 0,-1.59158 -4.40171,0 0,1.54184 1.74079,0 q -1.04447,0.79579 -1.06934,2.26303 0,1.79053 1.3429,2.73553 0.89526,0.59684 2.16355,0.59684 2.66092,0 3.75513,-2.68579 0.54711,-1.4175 0.54711,-3.2329 0,-2.68579 -1.64132,-4.55092 -1.69105,-1.91487 -4.42658,-1.91487 -4.32711,0 -6.01816,4.30224 -0.87039,2.23816 -0.87039,5.24724 z"
             style="font-style:normal;font-variant:normal;font-weight:bold;font-stretch:normal;font-size:25.46526718px;line-height:123.00000191%;font-family:'Yaldevi Colombo';-inkscape-font-specification:'Yaldevi Colombo Bold';text-align:center;text-anchor:middle;fill:#0b2822"
             id="path6314"
             inkscape:connector-curvature="0" />
          <path
             d="m 295.10019,407.98395 q 0,-1.29394 1.15405,-1.88845 0.45462,-0.2448 0.94422,-0.2448 1.29393,0 1.85347,1.18902 0.2448,0.45463 0.2448,0.94423 0,1.25896 -1.11908,1.85347 -0.48959,0.2448 -0.97919,0.2448 -1.25896,0 -1.85348,-1.15405 -0.24479,-0.45463 -0.24479,-0.94422 z m -1.78354,-0.07 q 0,2.02834 1.71359,3.21736 0.13989,0.0699 0.2448,0.13988 0.83931,0.4896 1.81851,0.4896 1.78353,-0.035 2.72775,-1.50376 -0.13988,3.42718 -2.34307,4.68614 -0.9792,0.52457 -2.20319,0.52457 -3.32226,0 -4.79106,-3.35724 -0.80433,-1.88844 -0.80433,-4.40637 0,-4.05666 2.27313,-6.57459 1.67861,-1.81851 3.95174,-1.85348 2.23816,0 4.02169,2.06331 0.035,0.0699 0.0699,0.10491 l 1.46879,-1.22399 q -2.16822,-2.86764 -5.56043,-2.90262 -3.77689,0 -6.15493,3.42718 -2.02833,2.93759 -2.02833,6.95928 0,5.66534 3.11244,8.21823 1.85347,1.50377 4.44134,1.50377 3.88181,0 5.56043,-3.49712 0.80433,-1.74857 0.80433,-3.84684 0,-4.16157 -2.41301,-5.56042 -0.90925,-0.52457 -1.99336,-0.52457 -2.0633,0 -3.25232,1.74856 -0.66446,1.01416 -0.66446,2.16821 z"
             style="font-style:normal;font-variant:normal;font-weight:600;font-stretch:normal;font-size:35.81053162px;line-height:98.00000191%;font-family:'Yaldevi Colombo';-inkscape-font-specification:'Yaldevi Colombo Semi-Bold';text-align:center;text-anchor:middle;fill:#0b2822"
             id="path6316"
             inkscape:connector-curvature="0" />
          <path
             d="m 309.85804,407.98395 q 0,-1.29394 1.15405,-1.88845 0.45463,-0.2448 0.94422,-0.2448 1.29394,0 1.85348,1.18902 0.2448,0.45463 0.2448,0.94423 0,1.25896 -1.11908,1.85347 -0.4896,0.2448 -0.9792,0.2448 -1.25896,0 -1.85347,-1.15405 -0.2448,-0.45463 -0.2448,-0.94422 z m -1.78353,-0.07 q 0,2.02834 1.71359,3.21736 0.13988,0.0699 0.2448,0.13988 0.83931,0.4896 1.8185,0.4896 1.78353,-0.035 2.72776,-1.50376 -0.13989,3.42718 -2.34308,4.68614 -0.97919,0.52457 -2.20318,0.52457 -3.32227,0 -4.79106,-3.35724 -0.80434,-1.88844 -0.80434,-4.40637 0,-4.05666 2.27313,-6.57459 1.67862,-1.81851 3.95175,-1.85348 2.23816,0 4.02169,2.06331 0.035,0.0699 0.0699,0.10491 l 1.46879,-1.22399 q -2.16821,-2.86764 -5.56042,-2.90262 -3.77689,0 -6.15494,3.42718 -2.02833,2.93759 -2.02833,6.95928 0,5.66534 3.11244,8.21823 1.85348,1.50377 4.44135,1.50377 3.8818,0 5.56042,-3.49712 0.80434,-1.74857 0.80434,-3.84684 0,-4.16157 -2.41301,-5.56042 -0.90926,-0.52457 -1.99336,-0.52457 -2.06331,0 -3.25233,1.74856 -0.66445,1.01416 -0.66445,2.16821 z"
             style="font-style:normal;font-variant:normal;font-weight:600;font-stretch:normal;font-size:35.81053162px;line-height:98.00000191%;font-family:'Yaldevi Colombo';-inkscape-font-specification:'Yaldevi Colombo Semi-Bold';text-align:center;text-anchor:middle;fill:#0b2822"
             id="path6318"
             inkscape:connector-curvature="0" />
          <path
             d="m 317.55171,409.10303 q 0,-4.37141 2.41301,-6.39974 1.29394,-1.08411 2.86764,-1.08411 1.15405,0.035 2.27313,0.62949 l -0.76936,1.78353 q -0.7344,-0.34971 -1.39885,-0.34971 -1.85348,0 -2.7977,2.20318 -0.59451,1.36388 -0.59451,3.21736 0,3.14741 1.92342,4.93094 1.43382,1.32891 3.60203,1.32891 4.89597,0 6.11997,-6.11997 0.34971,-1.8185 0.34971,-4.1266 -0.20983,-11.64542 -6.57459,-11.82028 -2.62284,0 -4.12661,2.09828 -0.41965,0.59451 -0.66445,1.22399 l -1.92342,-0.69942 q 1.25897,-3.32227 4.61621,-4.37141 1.04913,-0.31474 2.09827,-0.31474 8.63789,0.0699 8.67286,13.88358 0,9.9668 -5.77025,11.89021 -1.29393,0.41966 -2.7977,0.41966 -4.65117,0 -6.57459,-3.98672 -0.94422,-1.95839 -0.94422,-4.33643 z"
             style="font-style:normal;font-variant:normal;font-weight:600;font-stretch:normal;font-size:35.81053162px;line-height:98.00000191%;font-family:'Yaldevi Colombo';-inkscape-font-specification:'Yaldevi Colombo Semi-Bold';text-align:center;text-anchor:middle;fill:#0b2822"
             id="path6320"
             inkscape:connector-curvature="0" />
          <path
             d="m 342.80093,407.98395 q 0,-1.29394 1.15405,-1.88845 0.45463,-0.2448 0.94422,-0.2448 1.29394,0 1.85348,1.18902 0.2448,0.45463 0.2448,0.94423 0,1.25896 -1.11908,1.85347 -0.4896,0.2448 -0.9792,0.2448 -1.25896,0 -1.85347,-1.15405 -0.2448,-0.45463 -0.2448,-0.94422 z m -1.78353,-0.07 q 0,2.02834 1.71359,3.21736 0.13988,0.0699 0.2448,0.13988 0.83931,0.4896 1.8185,0.4896 1.78353,-0.035 2.72776,-1.50376 -0.13989,3.42718 -2.34308,4.68614 -0.97919,0.52457 -2.20318,0.52457 -3.32227,0 -4.79106,-3.35724 -0.80434,-1.88844 -0.80434,-4.40637 0,-4.05666 2.27313,-6.57459 1.67862,-1.81851 3.95175,-1.85348 2.23816,0 4.02169,2.06331 0.035,0.0699 0.0699,0.10491 l 1.46879,-1.22399 q -2.16821,-2.86764 -5.56042,-2.90262 -3.77689,0 -6.15494,3.42718 -2.02833,2.93759 -2.02833,6.95928 0,5.66534 3.11244,8.21823 1.85348,1.50377 4.44135,1.50377 3.8818,0 5.56042,-3.49712 0.80434,-1.74857 0.80434,-3.84684 0,-4.16157 -2.41302,-5.56042 -0.90925,-0.52457 -1.99335,-0.52457 -2.06331,0 -3.25233,1.74856 -0.66445,1.01416 -0.66445,2.16821 z"
             style="font-style:normal;font-variant:normal;font-weight:600;font-stretch:normal;font-size:35.81053162px;line-height:98.00000191%;font-family:'Yaldevi Colombo';-inkscape-font-specification:'Yaldevi Colombo Semi-Bold';text-align:center;text-anchor:middle;fill:#0b2822"
             id="path6322"
             inkscape:connector-curvature="0" />
          <path
             d="m 362.73453,403.2978 -2.34307,0 0,-1.46879 q 0,-2.51793 1.88844,-3.07747 0.45463,-0.13988 0.87428,-0.13988 1.67862,0 2.34308,1.36388 0.24479,0.52457 0.24479,1.15405 -0.035,1.43382 -0.97919,2.48295 -0.90925,-0.31474 -2.02833,-0.31474 z m -10.28154,6.36477 q 0,-2.90262 1.95839,-3.98672 0.87428,-0.4896 1.95839,-0.4896 l 6.29482,0 q 2.69278,0 3.60203,2.51793 0.31474,0.90925 0.31474,1.95839 0,3.46215 -2.97255,5.10579 -1.74856,0.94423 -4.09163,0.94423 -4.02169,0 -5.94511,-2.51793 -1.11908,-1.53873 -1.11908,-3.53209 z m -1.95839,0 q 0,4.3714 3.42718,6.60956 2.34307,1.50376 5.5954,1.50376 4.79105,0 7.27401,-3.00753 1.74856,-2.09827 1.74856,-5.10579 -0.035,-3.49713 -2.27313,-5.24569 1.224,-1.39885 1.224,-3.32226 0,-2.65782 -2.13325,-3.7769 -1.01416,-0.52456 -2.13324,-0.52456 -2.41302,0.035 -3.70695,1.85347 -1.25897,-1.8185 -3.67198,-1.85347 -2.37804,0 -3.60204,1.85347 -0.69942,1.04914 -0.69942,2.44799 0.035,1.92341 1.22399,3.32226 -2.27313,1.78353 -2.27313,5.24569 z m 2.7977,-8.53298 q 0,-1.78353 1.5737,-2.34307 0.4896,-0.17486 1.01417,-0.17486 1.88845,0 2.51793,1.74856 0.2448,0.62948 0.2448,1.46879 l 0,1.46879 -2.34308,0 q -1.15405,0 -2.02833,0.31474 -0.97919,-1.04913 -0.97919,-2.48295 z"
             style="font-style:normal;font-variant:normal;font-weight:600;font-stretch:normal;font-size:35.81053162px;line-height:98.00000191%;font-family:'Yaldevi Colombo';-inkscape-font-specification:'Yaldevi Colombo Semi-Bold';text-align:center;text-anchor:middle;fill:#0b2822"
             id="path6324"
             inkscape:connector-curvature="0" />
          <path
             d="m 369.44901,399.59085 q 1.01416,-1.39884 2.72775,-1.43382 2.7977,0 4.16158,3.49713 0.87428,2.37804 0.87428,5.9451 0,6.74945 -2.90261,8.77778 -0.9792,0.66445 -2.13325,0.66445 -1.71359,-0.035 -2.72775,-1.43382 l 1.22399,-1.25896 q 0.55954,0.69942 1.43382,0.7344 2.0633,0 2.76272,-3.7769 0.27977,-1.60867 0.27977,-3.70695 0,-6.22487 -2.23815,-7.30898 -0.38469,-0.17486 -0.80434,-0.17486 -0.90925,0.035 -1.43382,0.7344 l -1.22399,-1.25897 z"
             style="font-style:normal;font-variant:normal;font-weight:600;font-stretch:normal;font-size:35.81053162px;line-height:98.00000191%;font-family:'Yaldevi Colombo';-inkscape-font-specification:'Yaldevi Colombo Semi-Bold';text-align:center;text-anchor:middle;fill:#0b2822"
             id="path6326"
             inkscape:connector-curvature="0" />
          <path
             d="m 386.09531,407.59926 0.73439,1.53874 q 0.76937,-0.31474 1.29394,-0.7344 1.15405,0.34971 1.50376,2.02833 0.0699,0.45463 0.0699,0.87428 0,2.5529 -1.74856,3.60204 -0.87428,0.52457 -2.02833,0.52457 -4.65117,-0.0699 -4.68614,-7.72864 0.035,-8.56795 4.09163,-8.60292 1.78353,0 2.5529,1.67862 0.13988,0.31474 0.20983,0.62948 -0.27977,0.97919 -0.27977,1.95839 0,0.10491 0,0.38468 0.035,0.38468 0.035,0.59451 -0.035,2.34307 -1.74856,3.25232 z m 7.44887,7.83356 q -1.60868,-0.035 -2.44799,-1.39885 0.52457,-1.32891 0.52457,-2.76273 0,-2.44798 -1.50376,-3.77689 -0.45463,-0.34971 -0.87428,-0.4896 0.52457,-1.01416 0.52457,-2.37804 l 0,-1.04914 q 0,-3.04249 1.85347,-4.05666 0.69942,-0.38468 1.57371,-0.38468 3.14741,0 4.02169,4.02169 0.38468,1.71359 0.38468,4.1266 -0.035,8.11333 -4.05666,8.1483 z m -14.30323,-7.72864 q 0.035,9.68703 6.6795,9.722 2.5529,-0.035 4.09163,-1.64365 1.25897,1.60868 3.5321,1.64365 0.76936,0 1.3289,-0.13989 1.25897,1.18902 1.25897,3.49712 0,2.69279 -2.76273,3.91678 -1.5737,0.69943 -3.67198,0.69943 -3.98672,0 -5.66534,-2.16822 -0.80433,-1.04914 -0.80433,-2.34307 l -1.99336,0 q 0,3.67198 3.46215,5.42054 2.16821,1.04913 5.00088,1.04913 4.6162,0 6.95928,-2.55289 1.46879,-1.64365 1.46879,-3.91678 -0.035,-2.90261 -1.46879,-4.3714 2.97255,-2.23816 2.97255,-9.23241 0,-9.58211 -5.66534,-10.10668 -0.38468,-0.035 -0.76936,-0.035 -2.51793,0.035 -4.09164,2.0633 -1.18902,-2.02833 -3.77689,-2.0633 -6.05002,0.0699 -6.08499,10.56131 z"
             style="font-style:normal;font-variant:normal;font-weight:600;font-stretch:normal;font-size:35.81053162px;line-height:98.00000191%;font-family:'Yaldevi Colombo';-inkscape-font-specification:'Yaldevi Colombo Semi-Bold';text-align:center;text-anchor:middle;fill:#0b2822"
             id="path6328"
             inkscape:connector-curvature="0" />
          <path
             d="m 400.64333,411.86575 q 0,3.77689 2.62285,5.07083 1.04913,0.4896 2.37804,0.4896 4.09163,0 4.72111,-4.54626 0.10492,-0.76937 0.10492,-1.57371 l -1.88845,0 q 0,2.83267 -1.60868,3.7769 -0.59451,0.31474 -1.29393,0.31474 -2.69278,0 -3.00753,-2.86764 -0.035,-0.31474 -0.035,-0.66446 0,-2.13324 1.95839,-5.14077 0.20983,-0.31474 4.3714,-6.1899 0.10492,-0.10492 0.17486,-0.20983 l 0,-1.85348 -6.95927,0 0,1.92342 4.54626,0 q -3.74192,5.24569 -4.05667,5.73528 -2.02833,3.21735 -2.02833,5.73528 z"
             style="font-style:normal;font-variant:normal;font-weight:600;font-stretch:normal;font-size:35.81053162px;line-height:98.00000191%;font-family:'Yaldevi Colombo';-inkscape-font-specification:'Yaldevi Colombo Semi-Bold';text-align:center;text-anchor:middle;fill:#0b2822"
             id="path6330"
             inkscape:connector-curvature="0" />
          <path
             d="m 412.28875,393.75066 q 0,2.23816 1.53873,3.81186 0.10492,0.10492 0.17486,0.17486 -2.27313,2.3081 -2.3081,9.51217 0.0699,10.14166 7.27401,10.17663 l 0,-2.0633 q -5.28065,-0.07 -5.28065,-8.11333 0.035,-8.35812 3.00753,-8.39309 2.65781,0 3.07746,4.47631 0.07,0.62949 0.10492,1.4688 l 1.74856,0 q 0.13988,-4.54626 1.74856,-5.56043 0.62948,-0.38468 1.39885,-0.38468 3.04249,0.035 3.04249,8.39309 -0.0699,8.07835 -5.31562,8.11333 l 0,2.0633 q 7.23904,-0.07 7.27401,-10.17663 0,-7.13413 -2.0633,-9.26737 -0.13988,-0.13989 -0.2448,-0.2448 1.60868,-1.71359 1.71359,-3.98672 0,-3.63701 -3.46215,-5.38557 -2.13324,-1.08411 -4.96591,-1.08411 -4.68615,0 -6.99425,2.5529 -1.46879,1.64365 -1.46879,3.91678 z m 8.46304,6.64453 q -0.87428,-3.56706 -4.05666,-3.60203 -0.52457,0 -0.94423,0.10491 -1.39885,-1.25896 -1.43382,-3.14741 0,-2.48296 2.65781,-3.70695 1.60868,-0.7344 3.7769,-0.7344 3.98672,0 5.63036,2.16822 0.76937,1.01417 0.76937,2.27313 -0.035,1.92342 -1.43382,3.14741 -0.41965,-0.10491 -0.94422,-0.10491 -2.97256,0 -3.88181,3.04249 -0.0699,0.27977 -0.13988,0.55954 z"
             style="font-style:normal;font-variant:normal;font-weight:600;font-stretch:normal;font-size:35.81053162px;line-height:98.00000191%;font-family:'Yaldevi Colombo';-inkscape-font-specification:'Yaldevi Colombo Semi-Bold';text-align:center;text-anchor:middle;fill:#0b2822"
             id="path6332"
             inkscape:connector-curvature="0" />
          <path
             d="m 302.38021,433.59571 q 0,-1.69105 1.64132,-2.53658 1.04447,-0.52223 2.4371,-0.52223 2.78527,0 3.87948,1.4921 0.4725,0.64658 0.4725,1.44237 -0.0249,1.59158 -1.31803,2.43711 -0.59684,-0.17408 -1.31803,-0.17408 -2.21328,0.0249 -3.63079,1.64131 -0.34815,-0.69631 -0.89526,-1.14394 -1.11908,-1.16882 -1.24342,-2.38737 -0.0249,-0.14921 -0.0249,-0.24869 z m -1.76566,-0.0995 q 0.0249,1.09421 0.62171,2.01434 -1.76565,0.17408 -2.48684,1.61645 -0.34816,0.67145 -0.34816,1.46724 0,2.16355 2.06408,3.23289 0.44763,0.22382 0.92013,0.37303 0.29843,0.0995 0.77093,0.17408 -0.79579,1.71592 -1.84027,1.74079 -0.44763,-0.0249 -0.62171,-0.14921 0,-0.19895 0.0497,-0.57198 l -1.61645,-0.0746 q -0.0995,0.67144 -0.0995,1.44237 0,3.50644 2.33763,4.82447 1.06934,0.59684 2.43711,0.59684 2.18842,-0.0249 3.48157,-1.29316 0.92014,1.26829 2.66093,1.29316 4.10329,0 4.55092,-5.12289 0.0497,-0.67145 0.0497,-1.36777 -0.0249,-5.07316 -2.53657,-7.01289 1.29315,-0.96987 1.54184,-2.71066 0.0249,-0.27355 0.0249,-0.49737 0,-2.76039 -2.61119,-4.00382 -1.51697,-0.72118 -3.50645,-0.72118 -3.00908,0 -4.67526,1.74079 -1.16882,1.26829 -1.16882,3.00908 z m 8.33093,14.99566 q -1.31803,-0.0249 -1.76566,-1.01961 0.42276,-1.0196 0.42276,-2.3625 0,-3.53131 -1.86513,-4.35197 -0.42276,-0.17408 -0.8704,-0.17408 -0.22381,0 -0.32329,0.0249 0.22382,-0.57197 0.3979,-0.8704 0.89526,-1.59158 1.89,-1.98947 0.54711,-0.22382 1.24342,-0.22382 2.18842,0 3.13342,2.51172 0.54711,1.4921 0.54711,3.65565 -0.0249,4.77474 -2.81013,4.79961 z m -6.1425,-0.0249 q -2.61119,0 -3.05882,-2.78526 0,-0.12434 -0.0249,-0.24869 0.49737,0.12435 0.8704,0.12435 1.79052,0 2.88473,-2.2879 0.24869,-0.52224 0.54711,-1.31803 l 0.0249,0 q 1.36776,0 1.74079,1.86514 0.0995,0.59684 0.0995,1.29315 0,2.73553 -2.13868,3.25777 -0.44764,0.0995 -0.945,0.0995 z m -0.94501,-7.53513 q -1.89,-0.62171 -1.91486,-2.21329 0,-1.14395 0.96986,-1.51698 0.29843,-0.0995 0.59685,-0.0995 1.16881,0 1.61644,1.06934 0.19895,0.4725 0.19895,1.01961 l 0,0.0995 q -0.14921,0.34816 -0.69631,1.79053 -0.3979,-0.0497 -0.77093,-0.14921 z"
             style="font-style:normal;font-variant:normal;font-weight:bold;font-stretch:normal;font-size:25.46526718px;line-height:111.00000143%;font-family:'Yaldevi Colombo';-inkscape-font-specification:'Yaldevi Colombo Bold';text-align:center;word-spacing:0.00596842px;text-anchor:middle;fill:#0b2822"
             id="path6334"
             inkscape:connector-curvature="0" />
          <path
             d="m 320.90719,443.14519 q -0.89527,-0.17408 -0.945,-1.39263 0,-0.34816 0.0995,-1.09421 0.12434,-0.82066 0.12434,-1.24343 0,-0.32329 -0.0249,-0.4725 0.19895,-0.29842 0.64658,-0.29842 0.84553,0 1.01961,1.46724 0.0249,0.29842 0.0249,0.59684 -0.0249,2.41224 -0.945,2.43711 z m -5.96842,-0.27355 q 0,4.22763 2.26302,6.11763 1.46724,1.19368 3.68053,1.19368 5.29697,0 6.06789,-6.46579 0.12435,-1.06934 0.12435,-2.28789 -0.0249,-9.87277 -6.31658,-9.89764 -2.26303,0 -3.78,1.61645 -0.69632,0.77092 -1.09421,1.76566 l 1.71592,0.59684 q 0.62171,-1.56671 2.21329,-2.01434 0.4725,-0.12434 0.945,-0.12434 4.12816,0 4.45145,6.81395 0.0249,0.62171 0.0249,1.24342 -0.0249,6.91342 -4.35197,6.93829 -3.05882,0 -3.97895,-3.15829 -0.29842,-1.09421 -0.29842,-2.33763 0,-3.28264 1.01961,-3.95408 0.22381,-0.12435 0.42276,-0.12435 0.67145,0.0497 0.69631,0.92014 0,0.32329 -0.0995,0.99473 -0.12434,0.74606 -0.12434,1.11908 0,2.26303 1.64131,2.71066 0.34816,0.0746 0.72119,0.0746 2.31276,-0.22382 2.38737,-3.90435 0,-2.9096 -1.71592,-3.40697 -0.29842,-0.0746 -0.62171,-0.0746 -0.84553,0.0249 -1.4175,0.49737 -0.57198,-0.4725 -1.44237,-0.4725 -1.96461,0 -2.7604,2.58632 -0.37302,1.31802 -0.37302,3.03395 z"
             style="font-style:normal;font-variant:normal;font-weight:bold;font-stretch:normal;font-size:25.46526718px;line-height:111.00000143%;font-family:'Yaldevi Colombo';-inkscape-font-specification:'Yaldevi Colombo Bold';text-align:center;word-spacing:0.00596842px;text-anchor:middle;fill:#0b2822"
             id="path6336"
             inkscape:connector-curvature="0" />
          <path
             d="m 327.77087,446.204 q 0,2.41224 1.59158,3.43185 0.8704,0.5471 2.01434,0.5471 2.88474,0 3.43185,-3.08368 0.0995,-0.59684 0.0995,-1.26829 l -1.61645,0 q 0,1.79052 -1.04447,2.38737 -0.37303,0.19894 -0.82066,0.19894 -1.56671,0 -1.86513,-1.56671 -0.0497,-0.29842 -0.0497,-0.64658 0,-1.51697 1.3429,-3.55618 0.49737,-0.74605 1.86513,-2.61118 0.82066,-1.11908 1.26829,-1.74079 l 0,-1.59158 -5.17263,0 0,1.64131 3.08368,0 q -2.51171,3.50645 -2.66092,3.75513 -1.46724,2.26303 -1.46724,4.10329 z"
             style="font-style:normal;font-variant:normal;font-weight:bold;font-stretch:normal;font-size:25.46526718px;line-height:111.00000143%;font-family:'Yaldevi Colombo';-inkscape-font-specification:'Yaldevi Colombo Bold';text-align:center;word-spacing:0.00596842px;text-anchor:middle;fill:#0b2822"
             id="path6338"
             inkscape:connector-curvature="0" />
          <path
             d="m 336.00232,453.06769 q 0.0497,2.18842 2.16355,2.21329 l 8.92777,0 0,-9.82303 q 0.44763,-1.71592 0.44763,-4.02868 -0.0249,-9.87277 -6.31658,-9.89764 -2.18842,0 -3.73026,1.56671 -0.74606,0.79579 -1.14395,1.8154 l 1.71592,0.59684 q 0.62171,-1.56671 2.21329,-2.01434 0.4725,-0.12434 0.945,-0.12434 4.12816,0 4.45145,6.81395 0.0249,0.62171 0.0249,1.24342 -0.0249,6.91342 -4.37685,6.93829 -2.88473,0 -3.60592,-2.41224 -0.17408,-0.62171 -0.17408,-1.26829 0,-2.38737 1.69106,-2.66092 0.19894,-0.0249 0.39789,-0.0249 l 3.25776,0 q 0.12435,-0.62171 0.12435,-1.14395 0,-2.41223 -1.76566,-3.35723 -0.74605,-0.3979 -1.61645,-0.3979 -1.76566,0 -2.53658,1.36776 -0.34816,0.64658 -0.34816,1.44237 0,0.67145 0.32329,1.3429 -1.21855,1.21855 -1.29316,3.53131 0,2.33764 1.44237,3.85461 1.49211,1.54184 4.10329,1.54184 2.53658,0 4.02869,-1.4921 l 0,4.87421 -6.78908,0 q -0.74605,-0.0497 -0.77092,-0.92013 0,-0.4725 0.0995,-0.89527 l -1.71592,-0.17408 q -0.17408,0.92014 -0.17408,1.49211 z m 2.23816,-13.10566 q 0,-1.14395 1.04447,-1.3429 0.17408,-0.0249 0.34816,-0.0249 1.29316,0 1.69105,1.19368 0.12435,0.37303 0.12435,0.77092 l -2.31277,0 q -0.42276,0 -0.74605,0.0746 -0.14921,-0.29842 -0.14921,-0.67145 z"
             style="font-style:normal;font-variant:normal;font-weight:bold;font-stretch:normal;font-size:25.46526718px;line-height:111.00000143%;font-family:'Yaldevi Colombo';-inkscape-font-specification:'Yaldevi Colombo Bold';text-align:center;word-spacing:0.00596842px;text-anchor:middle;fill:#0b2822"
             id="path6340"
             inkscape:connector-curvature="0" />
          <path
             d="m 354.50443,433.09834 q -0.87039,0 -1.81539,0.22382 -0.84553,-0.59684 -0.8704,-1.34289 0,-1.09422 1.84026,-1.4175 0.67145,-0.12435 1.51698,-0.12435 2.51171,0 3.3821,1.21856 0.29843,0.42276 0.29843,0.89526 -0.0249,0.96987 -0.82066,1.44237 -1.46724,-0.89527 -3.53132,-0.89527 z m -4.52605,-1.39263 q 0.0249,1.21856 1.16881,2.21329 -0.77092,0.4725 -1.24342,0.89527 l 1.04448,1.34289 q 1.59158,-1.29316 3.3821,-1.29316 4.02869,0 4.77474,4.50119 0.14921,0.96987 0.14921,2.06408 -0.0249,6.91342 -4.35197,6.93829 -3.05882,0 -3.97895,-3.15829 -0.29842,-1.09421 -0.29842,-2.33763 0,-3.28264 1.0196,-3.95408 0.22382,-0.12435 0.42277,-0.12435 0.67144,0.0497 0.69631,0.92014 0,0.32329 -0.0995,0.99473 -0.12434,0.74606 -0.12434,1.11908 0,2.26303 1.64131,2.71066 0.34816,0.0746 0.72119,0.0746 2.31276,-0.22382 2.38736,-3.90435 0,-2.9096 -1.71592,-3.40697 -0.29842,-0.0746 -0.62171,-0.0746 -0.84552,0.0249 -1.4175,0.49737 -0.57197,-0.4725 -1.44237,-0.4725 -1.9646,0 -2.76039,2.58632 -0.37303,1.31802 -0.37303,3.03395 0,4.22763 2.26303,6.11763 1.46724,1.19368 3.68053,1.19368 5.29697,0 6.06789,-6.46579 0.12434,-1.06934 0.12434,-2.28789 -0.0249,-4.22764 -1.79052,-6.34145 1.44237,-0.96987 1.46723,-2.53658 0,-1.86513 -1.91486,-2.98421 -1.51698,-0.89527 -3.68053,-0.89527 -3.92921,0 -4.94882,1.96461 -0.24868,0.52224 -0.24868,1.06934 z m 4.94881,11.43948 q -0.89526,-0.17408 -0.945,-1.39263 0,-0.34816 0.0995,-1.09421 0.12434,-0.82066 0.12434,-1.24343 0,-0.32329 -0.0249,-0.4725 0.19895,-0.29842 0.64658,-0.29842 0.84553,0 1.01961,1.46724 0.0249,0.29842 0.0249,0.59684 -0.0249,2.41224 -0.945,2.43711 z"
             style="font-style:normal;font-variant:normal;font-weight:bold;font-stretch:normal;font-size:25.46526718px;line-height:111.00000143%;font-family:'Yaldevi Colombo';-inkscape-font-specification:'Yaldevi Colombo Bold';text-align:center;word-spacing:0.00596842px;text-anchor:middle;fill:#0b2822"
             id="path6342"
             inkscape:connector-curvature="0" />
          <path
             d="m 380.14042,450.20471 0,-1.98636 -6.46268,0 2.09827,-2.37805 q 0.25179,-0.30774 0.81133,-0.89526 2.15423,-2.40602 2.76972,-3.66498 0.44764,-0.9792 0.44764,-1.87446 0,-2.54591 -2.15423,-3.83285 -1.28694,-0.75537 -2.82568,-0.75537 -2.71376,0 -4.39238,2.04231 -0.25179,0.30775 -0.44763,0.6155 l 1.73457,1.03515 q 0.92324,-1.48278 2.62983,-1.65065 0.16787,-0.028 0.30775,-0.028 1.59469,0 2.35007,1.25896 0.39168,0.67145 0.39168,1.48278 0,1.37087 -1.73458,3.35724 -0.33572,0.39168 -1.51075,1.65064 l -4.05667,4.36441 0,1.25896 10.04374,0 z"
             style="font-style:normal;font-variant:normal;font-weight:bold;font-stretch:normal;font-size:28.64842415px;line-height:111.00000143%;font-family:'Yaldevi Colombo';-inkscape-font-specification:'Yaldevi Colombo Bold';letter-spacing:0.01472683px;word-spacing:0.00596842px;fill:#0b2822"
             id="path6344"
             inkscape:connector-curvature="0" />
          <path
             d="m 389.61137,448.55407 q -2.60186,0 -3.69296,-2.57388 -0.58752,-1.42683 -0.58752,-3.32926 0,-4.16857 2.434,-5.39956 0.86728,-0.41965 1.90243,-0.41965 2.96556,-0.028 3.8888,3.13342 0.33572,1.20301 0.33572,2.74174 0,3.63701 -2.04231,5.14777 -1.00718,0.69942 -2.23816,0.69942 z m 0.0839,-13.73669 q -3.86082,0 -5.65135,3.07746 -1.14706,1.98637 -1.14706,4.81204 0,4.6162 2.76972,6.65852 1.65065,1.17504 3.91678,1.17504 3.49712,0 5.37158,-2.82568 1.37087,-2.07029 1.37087,-5.06383 0,-5.11979 -3.13342,-6.96627 -1.51076,-0.86728 -3.49712,-0.86728 z"
             style="font-style:normal;font-variant:normal;font-weight:bold;font-stretch:normal;font-size:28.64842415px;line-height:111.00000143%;font-family:'Yaldevi Colombo';-inkscape-font-specification:'Yaldevi Colombo Bold';letter-spacing:0.01472683px;word-spacing:0.00596842px;fill:#0b2822"
             id="path6346"
             inkscape:connector-curvature="0" />
          <path
             d="m 399.30613,439.01392 3.58105,-1.48278 0,10.91102 -3.07747,0 0,1.79053 7.7776,0 0,-1.79053 -2.35007,0 0,-13.31704 -2.09827,0 -4.56025,1.95839 0.72741,1.93041 z"
             style="font-style:normal;font-variant:normal;font-weight:bold;font-stretch:normal;font-size:28.64842415px;line-height:111.00000143%;font-family:'Yaldevi Colombo';-inkscape-font-specification:'Yaldevi Colombo Bold';letter-spacing:0.01472683px;word-spacing:0.00596842px;fill:#0b2822"
             id="path6348"
             inkscape:connector-curvature="0" />
          <path
             d="m 420.05179,436.71981 0,-1.59469 -10.79912,0 0,2.26614 8.05737,0 q -4.0007,9.17645 -5.98707,16.53439 l 2.48995,0.13989 q 2.21018,-8.19726 6.23887,-17.34573 z"
             style="font-style:normal;font-variant:normal;font-weight:bold;font-stretch:normal;font-size:28.64842415px;line-height:111.00000143%;font-family:'Yaldevi Colombo';-inkscape-font-specification:'Yaldevi Colombo Bold';letter-spacing:0.01472683px;word-spacing:0.00596842px;fill:#0b2822"
             id="path6350"
             inkscape:connector-curvature="0" />
        </g>
        <g
           transform="matrix(-2.0322946,0.00980511,-0.00980511,-2.0322946,-27.576121,-118.80023)"
           style="font-style:normal;font-weight:normal;font-size:12.91265106px;line-height:125%;font-family:sans-serif;letter-spacing:0px;word-spacing:0px;fill:#0b2822;fill-opacity:1;stroke:none;stroke-width:1.21056092px;stroke-linecap:butt;stroke-linejoin:miter;stroke-opacity:1"
           id="text5141">
          <path
             d="m -91.128223,-107.04031 q 0,0.79443 0.64311,1.10968 0.26481,0.1261 0.554841,0.1261 l 3.379483,0 q 1.0088,-0.0252 1.02141,-1.07185 0,-0.36569 -0.07566,-0.75661 l -0.70616,0.0757 q 0.06305,0.41614 0.06305,0.4918 -0.02522,0.54223 -0.441351,0.55484 l -3.026402,0 q -0.617891,-0.0252 -0.630501,-0.65572 0,-0.15132 0.03783,-0.35309 l 0.390911,-1.99238 -0.731381,0 -0.01261,0.0252 q -0.08827,0.42874 -0.983581,0.7566 -0.870091,0.32786 -0.983581,0.39091 -0.06305,0.0378 -0.11349,0.0757 l 0.706161,-3.17772 -0.743991,0 -0.02522,0.13871 q -0.16393,0.3783 -1.109681,0.70616 -0.83226,0.29003 -1.008801,0.42874 l 0.731381,-3.30382 -0.731381,0 -0.08827,0.3783 q -0.08827,0.40352 -1.008801,0.73138 -0.83226,0.29003 -0.97097,0.3783 -0.02522,0.0126 -0.03783,0.0252 l 0.54223,-2.43373 -0.743991,0 -0.66833,3.00118 q -0.06305,-0.11349 -0.680941,-0.5044 -0.60528,-0.3783 -0.61789,-0.59267 0,-0.0757 0.01261,-0.11349 l 0.07566,-0.36569 -0.743991,0 -0.769209,3.46775 q -0.0504,-0.11349 -0.68094,-0.46657 -0.66833,-0.3783 -0.66833,-0.60528 l 0,-0.10088 0.0757,-0.31525 -0.74399,0 -0.69355,3.17772 q -0.0631,-0.11349 -0.70616,-0.47918 -0.65572,-0.3783 -0.65572,-0.60528 l 0,-0.0504 0.0883,-0.44135 -0.744,0 -0.2522,1.31144 q -0.21437,1.1223 -0.71877,1.46277 -0.34047,0.22698 -0.84487,0.22698 l -1.91672,0 q -0.42874,-0.0252 -0.44135,-0.55484 0,-0.22698 0.0631,-0.47919 l -0.70616,-0.0883 q -0.0883,0.46658 -0.0883,0.75661 0.0252,1.05924 1.02141,1.07185 l 2.20675,0 q 1.23578,0 1.74018,-0.98358 0.22698,-0.46657 0.41613,-1.36189 l 0.0126,-0.0378 q 0.0883,0.0883 0.70617,0.44135 0.59267,0.35309 0.60528,0.68095 0,0.10088 -0.0126,0.15132 l -0.0252,0.0757 0,0.0252 -0.063,0.29003 0.74399,0 0.74399,-3.36688 q 0.10088,0.11349 0.71877,0.46657 0.59267,0.35308 0.60528,0.68094 0,0.10088 -0.0126,0.15132 l -0.0883,0.40352 0.74399,0 0.80704,-3.61907 q 0.08827,0.10088 0.68094,0.45396 0.605281,0.36569 0.605281,0.70616 l 0,0.0631 -0.290031,1.29883 0.743991,0 0.39091,-1.7654 q 0.151321,-0.41613 1.084461,-0.73138 0.794431,-0.29003 0.933141,-0.40352 l -0.844871,3.79561 0.743991,0 0.20176,-0.89531 q 0.16393,-0.42874 1.134901,-0.76921 0.832261,-0.29003 0.983581,-0.41613 l -0.718771,3.25339 0.743991,0 0.01261,-0.0378 q 0.08827,-0.47919 0.996191,-0.83227 0.857481,-0.32786 0.907921,-0.35308 0.13871,-0.0883 0.21437,-0.16393 l -0.21437,1.03402 q -0.05044,0.18916 -0.05044,0.40353 z"
             style="font-style:normal;font-variant:normal;font-weight:600;font-stretch:normal;font-family:'Yaldevi Colombo';-inkscape-font-specification:'Yaldevi Colombo Semi-Bold';fill:#0b2822;stroke-width:1.21056092px"
             id="path6353"
             inkscape:connector-curvature="0" />
          <path
             d="m -65.605562,-107.04031 q 0,0.79443 0.64311,1.10968 0.264811,0.1261 0.554841,0.1261 l 3.379483,0 q 1.008801,-0.0252 1.021411,-1.07185 0,-0.36569 -0.07566,-0.75661 l -0.706161,0.0757 q 0.06305,0.41614 0.06305,0.4918 -0.02522,0.54223 -0.44135,0.55484 l -3.026403,0 q -0.61789,-0.0252 -0.6305,-0.65572 0,-0.15132 0.03783,-0.35309 l 0.39091,-1.99238 -0.731381,0 -0.01261,0.0252 q -0.08827,0.42874 -0.983581,0.7566 -0.87009,0.32786 -0.98358,0.39091 -0.06305,0.0378 -0.11349,0.0757 l 0.70616,-3.17772 -0.743991,0 -0.02522,0.13871 q -0.16393,0.3783 -1.109681,0.70616 -0.83226,0.29003 -1.0088,0.42874 l 0.73138,-3.30382 -0.73138,0 -0.08827,0.3783 q -0.08827,0.40352 -1.008801,0.73138 -0.832261,0.29003 -0.970971,0.3783 -0.02522,0.0126 -0.03783,0.0252 l 0.54223,-2.43373 -0.74399,0 -0.668331,3.00118 q -0.06305,-0.11349 -0.68094,-0.5044 -0.605281,-0.3783 -0.617891,-0.59267 0,-0.0757 0.01261,-0.11349 l 0.07566,-0.36569 -0.743991,0 -0.76921,3.46775 q -0.05044,-0.11349 -0.680941,-0.46657 -0.66833,-0.3783 -0.66833,-0.60528 l 0,-0.10088 0.07566,-0.31525 -0.743991,0 -0.693551,3.17772 q -0.06305,-0.11349 -0.70616,-0.47918 -0.655721,-0.3783 -0.655721,-0.60528 l 0,-0.0504 0.08827,-0.44135 -0.74399,0 -0.252201,1.31144 q -0.21437,1.1223 -0.71877,1.46277 -0.34047,0.22698 -0.844871,0.22698 l -1.916721,0 q -0.428741,-0.0252 -0.441351,-0.55484 0,-0.22698 0.06305,-0.47919 l -0.70616,-0.0883 q -0.08827,0.46658 -0.08827,0.75661 0.02522,1.05924 1.021411,1.07185 l 2.206752,0 q 1.235781,0 1.740182,-0.98358 0.22698,-0.46657 0.41613,-1.36189 l 0.01261,-0.0378 q 0.08827,0.0883 0.706161,0.44135 0.59267,0.35309 0.60528,0.68095 0,0.10088 -0.01261,0.15132 l -0.02522,0.0757 0,0.0252 -0.06305,0.29003 0.743991,0 0.74399,-3.36688 q 0.100881,0.11349 0.718771,0.46657 0.592671,0.35308 0.605281,0.68094 0,0.10088 -0.01261,0.15132 l -0.08827,0.40352 0.743991,0 0.807041,-3.61907 q 0.08827,0.10088 0.68094,0.45396 0.605281,0.36569 0.605281,0.70616 l 0,0.0631 -0.29003,1.29883 0.74399,0 0.390911,-1.7654 q 0.15132,-0.41613 1.084461,-0.73138 0.79443,-0.29003 0.93314,-0.40352 l -0.84487,3.79561 0.74399,0 0.20176,-0.89531 q 0.163931,-0.42874 1.134901,-0.76921 0.832261,-0.29003 0.983581,-0.41613 l -0.71877,3.25339 0.74399,0 0.01261,-0.0378 q 0.08827,-0.47919 0.996191,-0.83227 0.857481,-0.32786 0.907921,-0.35308 0.13871,-0.0883 0.21437,-0.16393 l -0.21437,1.03402 q -0.05044,0.18916 -0.05044,0.40353 z"
             style="font-style:normal;font-variant:normal;font-weight:600;font-stretch:normal;font-family:'Yaldevi Colombo';-inkscape-font-specification:'Yaldevi Colombo Semi-Bold';fill:#0b2822;stroke-width:1.21056092px"
             id="path6355"
             inkscape:connector-curvature="0" />
          <path
             d="m -40.082901,-107.04031 q 0,0.79443 0.643111,1.10968 0.26481,0.1261 0.55484,0.1261 l 3.379483,0 q 1.008801,-0.0252 1.021411,-1.07185 0,-0.36569 -0.07566,-0.75661 l -0.706161,0.0757 q 0.06305,0.41614 0.06305,0.4918 -0.02522,0.54223 -0.44135,0.55484 l -3.026403,0 q -0.61789,-0.0252 -0.6305,-0.65572 0,-0.15132 0.03783,-0.35309 l 0.39091,-1.99238 -0.73138,0 -0.01261,0.0252 q -0.08827,0.42874 -0.98358,0.7566 -0.870091,0.32786 -0.983581,0.39091 -0.06305,0.0378 -0.11349,0.0757 l 0.70616,-3.17772 -0.74399,0 -0.02522,0.13871 q -0.16393,0.3783 -1.109681,0.70616 -0.832261,0.29003 -1.008801,0.42874 l 0.73138,-3.30382 -0.73138,0 -0.08827,0.3783 q -0.08827,0.40352 -1.008801,0.73138 -0.832261,0.29003 -0.970971,0.3783 -0.02522,0.0126 -0.03783,0.0252 l 0.542231,-2.43373 -0.743991,0 -0.668331,3.00118 q -0.06305,-0.11349 -0.68094,-0.5044 -0.605281,-0.3783 -0.617891,-0.59267 0,-0.0757 0.01261,-0.11349 l 0.07566,-0.36569 -0.74399,0 -0.769211,3.46775 q -0.05044,-0.11349 -0.680941,-0.46657 -0.66833,-0.3783 -0.66833,-0.60528 l 0,-0.10088 0.07566,-0.31525 -0.743991,0 -0.69355,3.17772 q -0.06305,-0.11349 -0.706161,-0.47918 -0.655721,-0.3783 -0.655721,-0.60528 l 0,-0.0504 0.08827,-0.44135 -0.743991,0 -0.2522,1.31144 q -0.21437,1.1223 -0.718771,1.46277 -0.34047,0.22698 -0.844871,0.22698 l -1.916721,0 q -0.428741,-0.0252 -0.441351,-0.55484 0,-0.22698 0.06305,-0.47919 l -0.70616,-0.0883 q -0.08827,0.46658 -0.08827,0.75661 0.02522,1.05924 1.021411,1.07185 l 2.206751,0 q 1.235782,0 1.740182,-0.98358 0.22698,-0.46657 0.41613,-1.36189 l 0.01261,-0.0378 q 0.08827,0.0883 0.706161,0.44135 0.59267,0.35309 0.60528,0.68095 0,0.10088 -0.01261,0.15132 l -0.02522,0.0757 0,0.0252 -0.06305,0.29003 0.743991,0 0.743991,-3.36688 q 0.10088,0.11349 0.71877,0.46657 0.592671,0.35308 0.605281,0.68094 0,0.10088 -0.01261,0.15132 l -0.08827,0.40352 0.74399,0 0.807041,-3.61907 q 0.08827,0.10088 0.680941,0.45396 0.60528,0.36569 0.60528,0.70616 l 0,0.0631 -0.29003,1.29883 0.743991,0 0.39091,-1.7654 q 0.15132,-0.41613 1.084461,-0.73138 0.79443,-0.29003 0.933141,-0.40352 l -0.844871,3.79561 0.74399,0 0.201761,-0.89531 q 0.16393,-0.42874 1.134901,-0.76921 0.83226,-0.29003 0.98358,-0.41613 l -0.71877,3.25339 0.74399,0 0.01261,-0.0378 q 0.08827,-0.47919 0.99619,-0.83227 0.857481,-0.32786 0.907921,-0.35308 0.13871,-0.0883 0.21437,-0.16393 l -0.21437,1.03402 q -0.05044,0.18916 -0.05044,0.40353 z"
             style="font-style:normal;font-variant:normal;font-weight:600;font-stretch:normal;font-family:'Yaldevi Colombo';-inkscape-font-specification:'Yaldevi Colombo Semi-Bold';fill:#0b2822;stroke-width:1.21056092px"
             id="path6357"
             inkscape:connector-curvature="0" />
        </g>
        <g
           transform="matrix(2.0323182,3.9606167e-5,-3.9606167e-5,2.0323182,-27.576121,-118.80023)"
           style="font-style:normal;font-weight:normal;font-size:12.91265202px;line-height:125%;font-family:sans-serif;letter-spacing:0px;word-spacing:0px;fill:#0b2822;fill-opacity:1;stroke:none;stroke-width:1.21056092px;stroke-linecap:butt;stroke-linejoin:miter;stroke-opacity:1"
           id="text5141-8-2">
          <path
             d="m 54.12359,34.442908 q 0,0.794431 0.643111,1.109681 0.26481,0.1261 0.55484,0.1261 l 3.379483,0 q 1.008801,-0.02522 1.021411,-1.071851 0,-0.36569 -0.07566,-0.7566 l -0.70616,0.07566 q 0.06305,0.41613 0.06305,0.49179 -0.02522,0.542231 -0.441351,0.554841 l -3.026403,0 q -0.61789,-0.02522 -0.6305,-0.655721 0,-0.15132 0.03783,-0.35308 l 0.39091,-1.992382 -0.73138,0 -0.01261,0.02522 q -0.08827,0.42874 -0.983581,0.756601 -0.870091,0.32786 -0.983581,0.39091 -0.06305,0.03783 -0.11349,0.07566 l 0.70616,-3.177723 -0.74399,0 -0.02522,0.13871 q -0.163931,0.378301 -1.109681,0.706161 -0.832261,0.29003 -1.008801,0.42874 l 0.73138,-3.303823 -0.73138,0 -0.08827,0.378301 q -0.08827,0.40352 -1.0088,0.73138 -0.832261,0.29003 -0.970971,0.378301 -0.02522,0.01261 -0.03783,0.02522 l 0.54223,-2.433733 -0.743991,0 -0.66833,3.001183 q -0.06305,-0.11349 -0.680941,-0.5044 -0.60528,-0.378301 -0.61789,-0.592671 0,-0.07566 0.01261,-0.11349 l 0.07566,-0.36569 -0.743991,0 -0.769211,3.467753 q -0.05044,-0.11349 -0.68094,-0.466571 -0.668331,-0.3783 -0.668331,-0.60528 l 0,-0.10088 0.07566,-0.315251 -0.743991,0 -0.69355,3.177723 q -0.06305,-0.11349 -0.706161,-0.47918 -0.655721,-0.3783 -0.655721,-0.605281 l 0,-0.05044 0.08827,-0.44135 -0.743991,0 -0.2522,1.311441 q -0.214371,1.122291 -0.718771,1.462762 -0.34047,0.22698 -0.844871,0.22698 l -1.916722,0 q -0.42874,-0.02522 -0.44135,-0.554841 0,-0.22698 0.06305,-0.47918 l -0.706161,-0.08827 q -0.08827,0.46657 -0.08827,0.7566 0.02522,1.059241 1.021411,1.071851 l 2.206752,0 q 1.235781,0 1.740182,-0.98358 0.22698,-0.466571 0.41613,-1.361882 l 0.01261,-0.03783 q 0.08827,0.08827 0.706161,0.441351 0.592671,0.35308 0.605281,0.68094 0,0.10088 -0.01261,0.15132 l -0.02522,0.07566 0,0.02522 -0.06305,0.290031 0.743991,0 0.743991,-3.366873 q 0.10088,0.11349 0.718771,0.46657 0.59267,0.35308 0.60528,0.680941 0,0.10088 -0.01261,0.15132 l -0.08827,0.40352 0.743991,0 0.80704,-3.619073 q 0.08827,0.10088 0.680941,0.45396 0.605281,0.365691 0.605281,0.706161 l 0,0.06305 -0.290031,1.298831 0.743991,0 0.39091,-1.765401 q 0.151321,-0.416131 1.084461,-0.731381 0.794431,-0.29003 0.933141,-0.403521 l -0.844871,3.795614 0.743991,0 0.20176,-0.895311 q 0.163931,-0.42874 1.134901,-0.769211 0.832261,-0.29003 0.983581,-0.41613 l -0.71877,3.253383 0.74399,0 0.01261,-0.03783 q 0.08827,-0.47918 0.996191,-0.832261 0.857481,-0.32786 0.907921,-0.35308 0.13871,-0.08827 0.21437,-0.16393 l -0.21437,1.034021 q -0.05044,0.18915 -0.05044,0.40352 z"
             style="font-style:normal;font-variant:normal;font-weight:600;font-stretch:normal;font-family:'Yaldevi Colombo';-inkscape-font-specification:'Yaldevi Colombo Semi-Bold';fill:#0b2822;stroke-width:1.21056092px"
             id="path6360"
             inkscape:connector-curvature="0" />
          <path
             d="m 79.646253,34.442908 q 0,0.794431 0.643111,1.109681 0.26481,0.1261 0.55484,0.1261 l 3.379483,0 q 1.008801,-0.02522 1.021411,-1.071851 0,-0.36569 -0.07566,-0.7566 l -0.70616,0.07566 q 0.06305,0.41613 0.06305,0.49179 -0.02522,0.542231 -0.441351,0.554841 l -3.026402,0 q -0.617891,-0.02522 -0.630501,-0.655721 0,-0.15132 0.03783,-0.35308 l 0.39091,-1.992382 -0.73138,0 -0.01261,0.02522 q -0.08827,0.42874 -0.983581,0.756601 -0.870091,0.32786 -0.983581,0.39091 -0.06305,0.03783 -0.11349,0.07566 l 0.70616,-3.177723 -0.74399,0 -0.02522,0.13871 q -0.16393,0.378301 -1.109681,0.706161 -0.832261,0.29003 -1.008801,0.42874 l 0.73138,-3.303823 -0.73138,0 -0.08827,0.378301 q -0.08827,0.40352 -1.008801,0.73138 -0.832261,0.29003 -0.970971,0.378301 -0.02522,0.01261 -0.03783,0.02522 l 0.54223,-2.433733 -0.74399,0 -0.668331,3.001183 q -0.06305,-0.11349 -0.680941,-0.5044 -0.60528,-0.378301 -0.61789,-0.592671 0,-0.07566 0.01261,-0.11349 l 0.07566,-0.36569 -0.743991,0 -0.769211,3.467753 q -0.05044,-0.11349 -0.68094,-0.466571 -0.668331,-0.3783 -0.668331,-0.60528 l 0,-0.10088 0.07566,-0.315251 -0.74399,0 -0.693551,3.177723 q -0.06305,-0.11349 -0.706161,-0.47918 -0.65572,-0.3783 -0.65572,-0.605281 l 0,-0.05044 0.08827,-0.44135 -0.743991,0 -0.2522,1.311441 q -0.21437,1.122291 -0.718771,1.462762 -0.34047,0.22698 -0.844871,0.22698 l -1.916721,0 q -0.428741,-0.02522 -0.441351,-0.554841 0,-0.22698 0.06305,-0.47918 l -0.706161,-0.08827 q -0.08827,0.46657 -0.08827,0.7566 0.02522,1.059241 1.021411,1.071851 l 2.206752,0 q 1.235782,0 1.740182,-0.98358 0.22698,-0.466571 0.41613,-1.361882 l 0.01261,-0.03783 q 0.08827,0.08827 0.706161,0.441351 0.592671,0.35308 0.605281,0.68094 0,0.10088 -0.01261,0.15132 l -0.02522,0.07566 0,0.02522 -0.06305,0.290031 0.74399,0 0.743991,-3.366873 q 0.10088,0.11349 0.718771,0.46657 0.59267,0.35308 0.60528,0.680941 0,0.10088 -0.01261,0.15132 l -0.08827,0.40352 0.743991,0 0.807041,-3.619073 q 0.08827,0.10088 0.68094,0.45396 0.605281,0.365691 0.605281,0.706161 l 0,0.06305 -0.290031,1.298831 0.743991,0 0.390911,-1.765401 q 0.15132,-0.416131 1.084461,-0.731381 0.79443,-0.29003 0.93314,-0.403521 l -0.84487,3.795614 0.74399,0 0.20176,-0.895311 q 0.163931,-0.42874 1.134902,-0.769211 0.83226,-0.29003 0.98358,-0.41613 l -0.71877,3.253383 0.74399,0 0.01261,-0.03783 q 0.08827,-0.47918 0.996191,-0.832261 0.857481,-0.32786 0.907921,-0.35308 0.13871,-0.08827 0.21437,-0.16393 l -0.21437,1.034021 q -0.05044,0.18915 -0.05044,0.40352 z"
             style="font-style:normal;font-variant:normal;font-weight:600;font-stretch:normal;font-family:'Yaldevi Colombo';-inkscape-font-specification:'Yaldevi Colombo Semi-Bold';fill:#0b2822;stroke-width:1.21056092px"
             id="path6362"
             inkscape:connector-curvature="0" />
          <path
             d="m 105.16892,34.442908 q 0,0.794431 0.64311,1.109681 0.26481,0.1261 0.55484,0.1261 l 3.37948,0 q 1.0088,-0.02522 1.02141,-1.071851 0,-0.36569 -0.0757,-0.7566 l -0.70616,0.07566 q 0.0631,0.41613 0.0631,0.49179 -0.0252,0.542231 -0.44135,0.554841 l -3.0264,0 q -0.61789,-0.02522 -0.6305,-0.655721 0,-0.15132 0.0378,-0.35308 l 0.39091,-1.992382 -0.73138,0 -0.0126,0.02522 q -0.0883,0.42874 -0.98358,0.756601 -0.87009,0.32786 -0.98359,0.39091 -0.063,0.03783 -0.11349,0.07566 l 0.70617,-3.177723 -0.744,0 -0.0252,0.13871 q -0.16393,0.378301 -1.10968,0.706161 -0.83226,0.29003 -1.0088,0.42874 l 0.73138,-3.303823 -0.73138,0 -0.0883,0.378301 q -0.0883,0.40352 -1.0088,0.73138 -0.832259,0.29003 -0.970969,0.378301 -0.02522,0.01261 -0.03783,0.02522 l 0.54223,-2.433733 -0.74399,0 -0.668331,3.001183 q -0.06305,-0.11349 -0.680941,-0.5044 -0.60528,-0.378301 -0.61789,-0.592671 0,-0.07566 0.01261,-0.11349 l 0.07566,-0.36569 -0.743991,0 -0.769211,3.467753 q -0.05044,-0.11349 -0.68094,-0.466571 -0.668331,-0.3783 -0.668331,-0.60528 l 0,-0.10088 0.07566,-0.315251 -0.74399,0 -0.693551,3.177723 q -0.06305,-0.11349 -0.706161,-0.47918 -0.65572,-0.3783 -0.65572,-0.605281 l 0,-0.05044 0.08827,-0.44135 -0.743991,0 -0.2522,1.311441 q -0.21437,1.122291 -0.718771,1.462762 -0.34047,0.22698 -0.844871,0.22698 l -1.916721,0 q -0.428741,-0.02522 -0.441351,-0.554841 0,-0.22698 0.06305,-0.47918 l -0.70616,-0.08827 q -0.08827,0.46657 -0.08827,0.7566 0.02522,1.059241 1.02141,1.071851 l 2.206753,0 q 1.235781,0 1.740181,-0.98358 0.22698,-0.466571 0.416131,-1.361882 l 0.01261,-0.03783 q 0.08827,0.08827 0.70616,0.441351 0.592671,0.35308 0.605281,0.68094 0,0.10088 -0.01261,0.15132 l -0.02522,0.07566 0,0.02522 -0.06305,0.290031 0.74399,0 0.743991,-3.366873 q 0.10088,0.11349 0.718771,0.46657 0.59267,0.35308 0.60528,0.680941 0,0.10088 -0.01261,0.15132 l -0.08827,0.40352 0.743991,0 0.807041,-3.619073 q 0.08827,0.10088 0.68094,0.45396 0.605281,0.365691 0.605281,0.706161 l 0,0.06305 -0.29003,1.298831 0.74399,0 0.390911,-1.765401 q 0.15132,-0.416131 1.084459,-0.731381 0.79443,-0.29003 0.93314,-0.403521 l -0.84487,3.795614 0.74399,0 0.20176,-0.895311 q 0.16393,-0.42874 1.1349,-0.769211 0.83226,-0.29003 0.98358,-0.41613 l -0.71877,3.253383 0.74399,0 0.0126,-0.03783 q 0.0883,-0.47918 0.9962,-0.832261 0.85748,-0.32786 0.90792,-0.35308 0.13871,-0.08827 0.21437,-0.16393 l -0.21437,1.034021 q -0.0504,0.18915 -0.0504,0.40352 z"
             style="font-style:normal;font-variant:normal;font-weight:600;font-stretch:normal;font-family:'Yaldevi Colombo';-inkscape-font-specification:'Yaldevi Colombo Semi-Bold';fill:#0b2822;stroke-width:1.21056092px"
             id="path6364"
             inkscape:connector-curvature="0" />
        </g>
        <g
           transform="matrix(0.00429698,-2.0323137,2.0323137,0.00429698,-27.576121,-118.80023)"
           style="font-style:normal;font-weight:normal;font-size:12.91265202px;line-height:125%;font-family:sans-serif;letter-spacing:0px;word-spacing:0px;fill:#0b2822;fill-opacity:1;stroke:none;stroke-width:1.21056092px;stroke-linecap:butt;stroke-linejoin:miter;stroke-opacity:1"
           id="text5141-8-7">
          <path
             d="m -89.335993,36.995334 q 0,0.79443 0.64311,1.109681 0.264811,0.1261 0.554841,0.1261 l 3.379483,0 q 1.008801,-0.02522 1.021411,-1.071851 0,-0.365691 -0.07566,-0.756601 l -0.706161,0.07566 q 0.06305,0.41613 0.06305,0.491791 -0.02522,0.54223 -0.44135,0.55484 l -3.026403,0 q -0.61789,-0.02522 -0.6305,-0.655721 0,-0.15132 0.03783,-0.35308 l 0.39091,-1.992382 -0.731381,0 -0.01261,0.02522 q -0.08827,0.428741 -0.983581,0.756601 -0.87009,0.32786 -0.983581,0.39091 -0.06305,0.03783 -0.11349,0.07566 l 0.706161,-3.177723 -0.743991,0 -0.02522,0.138711 q -0.16393,0.3783 -1.109681,0.70616 -0.832261,0.290031 -1.008801,0.428741 l 0.731381,-3.303823 -0.731381,0 -0.08827,0.3783 q -0.08827,0.40352 -1.008801,0.731381 -0.832261,0.29003 -0.970971,0.3783 -0.02522,0.01261 -0.03783,0.02522 l 0.542231,-2.433732 -0.743991,0 -0.66833,3.001183 q -0.06305,-0.113491 -0.680941,-0.504401 -0.605281,-0.3783 -0.617891,-0.592671 0,-0.07566 0.01261,-0.11349 l 0.07566,-0.36569 -0.74399,0 -0.769211,3.467753 q -0.05044,-0.11349 -0.680941,-0.46657 -0.668327,-0.378301 -0.668327,-0.605281 l 0,-0.10088 0.0757,-0.31525 -0.74399,0 -0.69355,3.177723 q -0.0631,-0.11349 -0.70617,-0.479181 -0.65572,-0.3783 -0.65572,-0.60528 l 0,-0.05044 0.0883,-0.441351 -0.74399,0 -0.2522,1.311442 q -0.21437,1.122291 -0.71877,1.462761 -0.34047,0.22698 -0.84487,0.22698 l -1.91672,0 q -0.42874,-0.02522 -0.44135,-0.55484 0,-0.226981 0.063,-0.479181 l -0.70616,-0.08827 q -0.0883,0.466571 -0.0883,0.756601 0.0252,1.059241 1.02141,1.071851 l 2.20675,0 q 1.23578,0 1.74018,-0.983581 0.22698,-0.466571 0.41613,-1.361881 l 0.0126,-0.03783 q 0.0883,0.08827 0.70616,0.44135 0.59268,0.35308 0.60529,0.680941 0,0.10088 -0.0126,0.15132 l -0.0252,0.07566 0,0.02522 -0.0631,0.29003 0.74399,0 0.74399,-3.366873 q 0.10088,0.11349 0.718767,0.46657 0.592671,0.353081 0.605281,0.680941 0,0.10088 -0.01261,0.15132 l -0.08827,0.403521 0.74399,0 0.807041,-3.619074 q 0.08827,0.10088 0.680941,0.453961 0.60528,0.36569 0.60528,0.70616 l 0,0.06305 -0.29003,1.298832 0.743991,0 0.39091,-1.765402 q 0.15132,-0.41613 1.084461,-0.731381 0.794431,-0.29003 0.933141,-0.40352 l -0.844871,3.795613 0.743991,0 0.20176,-0.89531 q 0.16393,-0.428741 1.134901,-0.769211 0.832261,-0.29003 0.983581,-0.416131 l -0.718771,3.253384 0.743991,0 0.01261,-0.03783 q 0.08827,-0.47918 0.996191,-0.83226 0.857481,-0.327861 0.907921,-0.353081 0.13871,-0.08827 0.21437,-0.16393 l -0.21437,1.034021 q -0.05044,0.18915 -0.05044,0.403521 z"
             style="font-style:normal;font-variant:normal;font-weight:600;font-stretch:normal;font-family:'Yaldevi Colombo';-inkscape-font-specification:'Yaldevi Colombo Semi-Bold';fill:#0b2822;stroke-width:1.21056092px"
             id="path6367"
             inkscape:connector-curvature="0" />
          <path
             d="m -63.81333,36.995334 q 0,0.79443 0.643111,1.109681 0.26481,0.1261 0.55484,0.1261 l 3.379483,0 q 1.008801,-0.02522 1.021411,-1.071851 0,-0.365691 -0.07566,-0.756601 l -0.706161,0.07566 q 0.06305,0.41613 0.06305,0.491791 -0.02522,0.54223 -0.44135,0.55484 l -3.026403,0 q -0.61789,-0.02522 -0.6305,-0.655721 0,-0.15132 0.03783,-0.35308 l 0.39091,-1.992382 -0.731381,0 -0.01261,0.02522 q -0.08827,0.428741 -0.983581,0.756601 -0.87009,0.32786 -0.98358,0.39091 -0.06305,0.03783 -0.113491,0.07566 l 0.706161,-3.177723 -0.743991,0 -0.02522,0.138711 q -0.16393,0.3783 -1.109681,0.70616 -0.83226,0.290031 -1.008801,0.428741 l 0.731381,-3.303823 -0.731381,0 -0.08827,0.3783 q -0.08827,0.40352 -1.008801,0.731381 -0.83226,0.29003 -0.970971,0.3783 -0.02522,0.01261 -0.03783,0.02522 l 0.542231,-2.433732 -0.743991,0 -0.66833,3.001183 q -0.06305,-0.113491 -0.680941,-0.504401 -0.605281,-0.3783 -0.617891,-0.592671 0,-0.07566 0.01261,-0.11349 l 0.07566,-0.36569 -0.743991,0 -0.769211,3.467753 q -0.05044,-0.11349 -0.680941,-0.46657 -0.66833,-0.378301 -0.66833,-0.605281 l 0,-0.10088 0.07566,-0.31525 -0.743991,0 -0.69355,3.177723 q -0.06305,-0.11349 -0.706161,-0.479181 -0.655721,-0.3783 -0.655721,-0.60528 l 0,-0.05044 0.08827,-0.441351 -0.74399,0 -0.252201,1.311442 q -0.21437,1.122291 -0.71877,1.462761 -0.340471,0.22698 -0.844871,0.22698 l -1.916722,0 q -0.42874,-0.02522 -0.44135,-0.55484 0,-0.226981 0.06305,-0.479181 l -0.706161,-0.08827 q -0.08827,0.466571 -0.08827,0.756601 0.02522,1.059241 1.021411,1.071851 l 2.206752,0 q 1.235781,0 1.740182,-0.983581 0.22698,-0.466571 0.41613,-1.361881 l 0.01261,-0.03783 q 0.08827,0.08827 0.706161,0.44135 0.59267,0.35308 0.60528,0.680941 0,0.10088 -0.01261,0.15132 l -0.02522,0.07566 0,0.02522 -0.06305,0.29003 0.743991,0 0.743991,-3.366873 q 0.10088,0.11349 0.71877,0.46657 0.592671,0.353081 0.605281,0.680941 0,0.10088 -0.01261,0.15132 l -0.08827,0.403521 0.74399,0 0.807041,-3.619074 q 0.08827,0.10088 0.680941,0.453961 0.60528,0.36569 0.60528,0.70616 l 0,0.06305 -0.29003,1.298832 0.743991,0 0.39091,-1.765402 q 0.15132,-0.41613 1.084461,-0.731381 0.794431,-0.29003 0.933141,-0.40352 l -0.844871,3.795613 0.743991,0 0.20176,-0.89531 q 0.16393,-0.428741 1.134901,-0.769211 0.832261,-0.29003 0.983581,-0.416131 l -0.71877,3.253384 0.74399,0 0.01261,-0.03783 q 0.08827,-0.47918 0.996191,-0.83226 0.857481,-0.327861 0.907921,-0.353081 0.13871,-0.08827 0.21437,-0.16393 l -0.21437,1.034021 q -0.05044,0.18915 -0.05044,0.403521 z"
             style="font-style:normal;font-variant:normal;font-weight:600;font-stretch:normal;font-family:'Yaldevi Colombo';-inkscape-font-specification:'Yaldevi Colombo Semi-Bold';fill:#0b2822;stroke-width:1.21056092px"
             id="path6369"
             inkscape:connector-curvature="0" />
          <path
             d="m -38.290667,36.995334 q 0,0.79443 0.643111,1.109681 0.26481,0.1261 0.55484,0.1261 l 3.379483,0 q 1.008801,-0.02522 1.021411,-1.071851 0,-0.365691 -0.07566,-0.756601 l -0.70616,0.07566 q 0.06305,0.41613 0.06305,0.491791 -0.02522,0.54223 -0.441351,0.55484 l -3.026403,0 q -0.61789,-0.02522 -0.6305,-0.655721 0,-0.15132 0.03783,-0.35308 l 0.39091,-1.992382 -0.731381,0 -0.01261,0.02522 q -0.08827,0.428741 -0.98358,0.756601 -0.870091,0.32786 -0.983581,0.39091 -0.06305,0.03783 -0.11349,0.07566 l 0.70616,-3.177723 -0.74399,0 -0.02522,0.138711 q -0.16393,0.3783 -1.109681,0.70616 -0.83226,0.290031 -1.0088,0.428741 l 0.73138,-3.303823 -0.73138,0 -0.08827,0.3783 q -0.08827,0.40352 -1.008801,0.731381 -0.83226,0.29003 -0.97097,0.3783 -0.02522,0.01261 -0.03783,0.02522 l 0.54223,-2.433732 -0.743991,0 -0.66833,3.001183 q -0.06305,-0.113491 -0.680941,-0.504401 -0.60528,-0.3783 -0.61789,-0.592671 0,-0.07566 0.01261,-0.11349 l 0.07566,-0.36569 -0.743991,0 -0.769211,3.467753 q -0.05044,-0.11349 -0.68094,-0.46657 -0.668331,-0.378301 -0.668331,-0.605281 l 0,-0.10088 0.07566,-0.31525 -0.743991,0 -0.69355,3.177723 q -0.06305,-0.11349 -0.706161,-0.479181 -0.655721,-0.3783 -0.655721,-0.60528 l 0,-0.05044 0.08827,-0.441351 -0.743991,0 -0.2522,1.311442 q -0.214371,1.122291 -0.718771,1.462761 -0.34047,0.22698 -0.844871,0.22698 l -1.916722,0 q -0.42874,-0.02522 -0.44135,-0.55484 0,-0.226981 0.06305,-0.479181 l -0.706161,-0.08827 q -0.08827,0.466571 -0.08827,0.756601 0.02522,1.059241 1.021411,1.071851 l 2.206752,0 q 1.235781,0 1.740182,-0.983581 0.22698,-0.466571 0.41613,-1.361881 l 0.01261,-0.03783 q 0.08827,0.08827 0.706161,0.44135 0.59267,0.35308 0.60528,0.680941 0,0.10088 -0.01261,0.15132 l -0.02522,0.07566 0,0.02522 -0.06305,0.29003 0.743991,0 0.743991,-3.366873 q 0.10088,0.11349 0.71877,0.46657 0.592671,0.353081 0.605281,0.680941 0,0.10088 -0.01261,0.15132 l -0.08827,0.403521 0.743991,0 0.80704,-3.619074 q 0.08827,0.10088 0.680941,0.453961 0.605281,0.36569 0.605281,0.70616 l 0,0.06305 -0.290031,1.298832 0.743991,0 0.39091,-1.765402 q 0.15132,-0.41613 1.084461,-0.731381 0.794431,-0.29003 0.933141,-0.40352 l -0.844871,3.795613 0.743991,0 0.20176,-0.89531 q 0.16393,-0.428741 1.134901,-0.769211 0.832261,-0.29003 0.983581,-0.416131 l -0.71877,3.253384 0.74399,0 0.01261,-0.03783 q 0.08827,-0.47918 0.996191,-0.83226 0.857481,-0.327861 0.907921,-0.353081 0.13871,-0.08827 0.21437,-0.16393 l -0.21437,1.034021 q -0.05044,0.18915 -0.05044,0.403521 z"
             style="font-style:normal;font-variant:normal;font-weight:600;font-stretch:normal;font-family:'Yaldevi Colombo';-inkscape-font-specification:'Yaldevi Colombo Semi-Bold';fill:#0b2822;stroke-width:1.21056092px"
             id="path6371"
             inkscape:connector-curvature="0" />
        </g>
        <g
           transform="matrix(-0.00429699,-2.0323137,-2.0323137,0.00429699,-27.576121,-118.80023)"
           style="font-style:normal;font-weight:normal;font-size:12.91265202px;line-height:125%;font-family:sans-serif;letter-spacing:0px;word-spacing:0px;fill:#0b2822;fill-opacity:1;stroke:none;stroke-width:1.21056092px;stroke-linecap:butt;stroke-linejoin:miter;stroke-opacity:1"
           id="text5141-8-7-0">
          <path
             d="m -89.644389,-108.86861 q 0,0.79443 0.643111,1.10968 0.26481,0.1261 0.554841,0.1261 l 3.379483,0 q 1.008801,-0.0252 1.021411,-1.07185 0,-0.36569 -0.07566,-0.7566 l -0.706161,0.0757 q 0.06305,0.41613 0.06305,0.49179 -0.02522,0.54223 -0.44135,0.55484 l -3.026403,0 q -0.617891,-0.0252 -0.630501,-0.65572 0,-0.15132 0.03783,-0.35308 l 0.390911,-1.99238 -0.731381,0 -0.01261,0.0252 q -0.08827,0.42874 -0.983581,0.7566 -0.870091,0.32786 -0.983581,0.39091 -0.06305,0.0378 -0.11349,0.0757 l 0.706161,-3.17772 -0.743991,0 -0.02522,0.13871 q -0.16393,0.3783 -1.109681,0.70616 -0.832261,0.29003 -1.008801,0.42874 l 0.731381,-3.30382 -0.731381,0 -0.08827,0.3783 q -0.08827,0.40352 -1.008801,0.73138 -0.832261,0.29003 -0.970971,0.3783 -0.02522,0.0126 -0.03783,0.0252 l 0.54223,-2.43373 -0.74399,0 -0.668331,3.00118 q -0.06305,-0.11349 -0.680941,-0.5044 -0.60528,-0.3783 -0.61789,-0.59267 0,-0.0757 0.01261,-0.11349 l 0.07566,-0.36569 -0.743991,0 -0.76921,3.46775 q -0.05044,-0.11349 -0.680941,-0.46657 -0.668332,-0.3783 -0.668332,-0.60528 l 0,-0.10088 0.0757,-0.31525 -0.74399,0 -0.69355,3.17772 q -0.063,-0.11349 -0.70616,-0.47918 -0.65572,-0.3783 -0.65572,-0.60528 l 0,-0.0504 0.0883,-0.44135 -0.74399,0 -0.2522,1.31144 q -0.21437,1.12229 -0.71877,1.46276 -0.34047,0.22698 -0.84487,0.22698 l -1.91673,0 q -0.42874,-0.0252 -0.44135,-0.55484 0,-0.22698 0.0631,-0.47918 l -0.70616,-0.0883 q -0.0883,0.46657 -0.0883,0.7566 0.0252,1.05924 1.02141,1.07185 l 2.20676,0 q 1.23578,0 1.74018,-0.98358 0.22698,-0.46657 0.41613,-1.36188 l 0.0126,-0.0378 q 0.0883,0.0883 0.70616,0.44135 0.59267,0.35308 0.60528,0.68094 0,0.10088 -0.0126,0.15132 l -0.0252,0.0757 0,0.0252 -0.063,0.29003 0.74399,0 0.74399,-3.36687 q 0.10088,0.11349 0.718772,0.46657 0.59267,0.35308 0.60528,0.68094 0,0.10088 -0.01261,0.15132 l -0.08827,0.40352 0.743991,0 0.807041,-3.61907 q 0.08827,0.10088 0.68094,0.45396 0.605281,0.36569 0.605281,0.70616 l 0,0.063 -0.29003,1.29883 0.74399,0 0.390911,-1.7654 q 0.15132,-0.41613 1.084461,-0.73138 0.79443,-0.29003 0.933141,-0.40352 l -0.844871,3.79561 0.743991,0 0.20176,-0.89531 q 0.16393,-0.42874 1.134901,-0.76921 0.832261,-0.29003 0.983581,-0.41613 l -0.718771,3.25338 0.743991,0 0.01261,-0.0378 q 0.08827,-0.47918 0.996191,-0.83226 0.85748,-0.32786 0.90792,-0.35308 0.138711,-0.0883 0.214371,-0.16393 l -0.214371,1.03402 q -0.05044,0.18915 -0.05044,0.40352 z"
             style="font-style:normal;font-variant:normal;font-weight:600;font-stretch:normal;font-family:'Yaldevi Colombo';-inkscape-font-specification:'Yaldevi Colombo Semi-Bold';fill:#0b2822;stroke-width:1.21056092px"
             id="path6374"
             inkscape:connector-curvature="0" />
          <path
             d="m -64.121725,-108.86861 q 0,0.79443 0.64311,1.10968 0.26481,0.1261 0.554841,0.1261 l 3.379483,0 q 1.008801,-0.0252 1.021411,-1.07185 0,-0.36569 -0.07566,-0.7566 l -0.706161,0.0757 q 0.06305,0.41613 0.06305,0.49179 -0.02522,0.54223 -0.44135,0.55484 l -3.026403,0 q -0.617891,-0.0252 -0.630501,-0.65572 0,-0.15132 0.03783,-0.35308 l 0.390911,-1.99238 -0.731381,0 -0.01261,0.0252 q -0.08827,0.42874 -0.983581,0.7566 -0.870091,0.32786 -0.983581,0.39091 -0.06305,0.0378 -0.11349,0.0757 l 0.706161,-3.17772 -0.743991,0 -0.02522,0.13871 q -0.16393,0.3783 -1.109681,0.70616 -0.832261,0.29003 -1.008801,0.42874 l 0.731381,-3.30382 -0.731381,0 -0.08827,0.3783 q -0.08827,0.40352 -1.008801,0.73138 -0.832261,0.29003 -0.970971,0.3783 -0.02522,0.0126 -0.03783,0.0252 l 0.542231,-2.43373 -0.743991,0 -0.668331,3.00118 q -0.06305,-0.11349 -0.68094,-0.5044 -0.605281,-0.3783 -0.617891,-0.59267 0,-0.0757 0.01261,-0.11349 l 0.07566,-0.36569 -0.743991,0 -0.76921,3.46775 q -0.05044,-0.11349 -0.680941,-0.46657 -0.668331,-0.3783 -0.668331,-0.60528 l 0,-0.10088 0.07566,-0.31525 -0.743991,0 -0.693551,3.17772 q -0.06305,-0.11349 -0.70616,-0.47918 -0.655721,-0.3783 -0.655721,-0.60528 l 0,-0.0504 0.08827,-0.44135 -0.743991,0 -0.2522,1.31144 q -0.21437,1.12229 -0.718771,1.46276 -0.34047,0.22698 -0.84487,0.22698 l -1.916722,0 q -0.428741,-0.0252 -0.441351,-0.55484 0,-0.22698 0.06305,-0.47918 l -0.70616,-0.0883 q -0.08827,0.46657 -0.08827,0.7566 0.02522,1.05924 1.021411,1.07185 l 2.206752,0 q 1.235781,0 1.740181,-0.98358 0.226981,-0.46657 0.416131,-1.36188 l 0.01261,-0.0378 q 0.08827,0.0883 0.70616,0.44135 0.592671,0.35308 0.605281,0.68094 0,0.10088 -0.01261,0.15132 l -0.02522,0.0757 0,0.0252 -0.06305,0.29003 0.743991,0 0.74399,-3.36687 q 0.10088,0.11349 0.718771,0.46657 0.592671,0.35308 0.605281,0.68094 0,0.10088 -0.01261,0.15132 l -0.08827,0.40352 0.743991,0 0.807041,-3.61907 q 0.08827,0.10088 0.68094,0.45396 0.605281,0.36569 0.605281,0.70616 l 0,0.063 -0.29003,1.29883 0.74399,0 0.390911,-1.7654 q 0.15132,-0.41613 1.084461,-0.73138 0.794431,-0.29003 0.933141,-0.40352 l -0.844871,3.79561 0.743991,0 0.20176,-0.89531 q 0.16393,-0.42874 1.134901,-0.76921 0.832261,-0.29003 0.983581,-0.41613 l -0.718771,3.25338 0.743991,0 0.01261,-0.0378 q 0.08827,-0.47918 0.996191,-0.83226 0.857481,-0.32786 0.907921,-0.35308 0.13871,-0.0883 0.21437,-0.16393 l -0.21437,1.03402 q -0.05044,0.18915 -0.05044,0.40352 z"
             style="font-style:normal;font-variant:normal;font-weight:600;font-stretch:normal;font-family:'Yaldevi Colombo';-inkscape-font-specification:'Yaldevi Colombo Semi-Bold';fill:#0b2822;stroke-width:1.21056092px"
             id="path6376"
             inkscape:connector-curvature="0" />
          <path
             d="m -38.599062,-108.86861 q 0,0.79443 0.64311,1.10968 0.264811,0.1261 0.554841,0.1261 l 3.379483,0 q 1.008801,-0.0252 1.021411,-1.07185 0,-0.36569 -0.07566,-0.7566 l -0.706161,0.0757 q 0.06305,0.41613 0.06305,0.49179 -0.02522,0.54223 -0.44135,0.55484 l -3.026403,0 q -0.617891,-0.0252 -0.630501,-0.65572 0,-0.15132 0.03783,-0.35308 l 0.390911,-1.99238 -0.731381,0 -0.01261,0.0252 q -0.08827,0.42874 -0.983581,0.7566 -0.870091,0.32786 -0.983581,0.39091 -0.06305,0.0378 -0.11349,0.0757 l 0.706161,-3.17772 -0.743991,0 -0.02522,0.13871 q -0.16393,0.3783 -1.109681,0.70616 -0.832261,0.29003 -1.008801,0.42874 l 0.731381,-3.30382 -0.731381,0 -0.08827,0.3783 q -0.08827,0.40352 -1.008801,0.73138 -0.832261,0.29003 -0.970971,0.3783 -0.02522,0.0126 -0.03783,0.0252 l 0.542231,-2.43373 -0.743991,0 -0.668331,3.00118 q -0.06305,-0.11349 -0.68094,-0.5044 -0.605281,-0.3783 -0.617891,-0.59267 0,-0.0757 0.01261,-0.11349 l 0.07566,-0.36569 -0.74399,0 -0.769211,3.46775 q -0.05044,-0.11349 -0.680941,-0.46657 -0.66833,-0.3783 -0.66833,-0.60528 l 0,-0.10088 0.07566,-0.31525 -0.743991,0 -0.693551,3.17772 q -0.06305,-0.11349 -0.70616,-0.47918 -0.655721,-0.3783 -0.655721,-0.60528 l 0,-0.0504 0.08827,-0.44135 -0.743991,0 -0.2522,1.31144 q -0.21437,1.12229 -0.71877,1.46276 -0.340471,0.22698 -0.844871,0.22698 l -1.916722,0 q -0.42874,-0.0252 -0.44135,-0.55484 0,-0.22698 0.06305,-0.47918 l -0.706161,-0.0883 q -0.08827,0.46657 -0.08827,0.7566 0.02522,1.05924 1.021411,1.07185 l 2.206752,0 q 1.235781,0 1.740181,-0.98358 0.226981,-0.46657 0.416131,-1.36188 l 0.01261,-0.0378 q 0.08827,0.0883 0.706161,0.44135 0.59267,0.35308 0.60528,0.68094 0,0.10088 -0.01261,0.15132 l -0.02522,0.0757 0,0.0252 -0.06305,0.29003 0.743991,0 0.74399,-3.36687 q 0.10088,0.11349 0.718771,0.46657 0.592671,0.35308 0.605281,0.68094 0,0.10088 -0.01261,0.15132 l -0.08827,0.40352 0.74399,0 0.807041,-3.61907 q 0.08827,0.10088 0.680941,0.45396 0.60528,0.36569 0.60528,0.70616 l 0,0.063 -0.29003,1.29883 0.743991,0 0.39091,-1.7654 q 0.15132,-0.41613 1.084461,-0.73138 0.794431,-0.29003 0.933141,-0.40352 l -0.844871,3.79561 0.743991,0 0.20176,-0.89531 q 0.16393,-0.42874 1.134901,-0.76921 0.832261,-0.29003 0.983581,-0.41613 l -0.718771,3.25338 0.743991,0 0.01261,-0.0378 q 0.08827,-0.47918 0.996191,-0.83226 0.857481,-0.32786 0.907921,-0.35308 0.13871,-0.0883 0.21437,-0.16393 l -0.21437,1.03402 q -0.05044,0.18915 -0.05044,0.40352 z"
             style="font-style:normal;font-variant:normal;font-weight:600;font-stretch:normal;font-family:'Yaldevi Colombo';-inkscape-font-specification:'Yaldevi Colombo Semi-Bold';fill:#0b2822;stroke-width:1.21056092px"
             id="path6378"
             inkscape:connector-curvature="0" />
        </g>
        <path
           inkscape:connector-curvature="0"
           id="path5452"
           d="m 126.30505,77.456662 a 5.1221362,5.1221362 0 0 1 -5.12214,5.122137 5.1221362,5.1221362 0 0 1 -5.12213,-5.122137 5.1221362,5.1221362 0 0 1 5.12213,-5.122135 5.1221362,5.1221362 0 0 1 5.12214,5.122135 z"
           style="opacity:1;fill:none;fill-opacity:1;stroke:#000000;stroke-width:1.48155987;stroke-linecap:round;stroke-linejoin:round;stroke-miterlimit:4;stroke-dasharray:none;stroke-opacity:1" />
        <path
           style="fill:none;fill-rule:evenodd;stroke:#000000;stroke-width:1.35149169;stroke-linecap:butt;stroke-linejoin:miter;stroke-miterlimit:4;stroke-dasharray:none;stroke-opacity:1"
           d="m 72.702858,76.728527 35.462342,0"
           id="path5465"
           inkscape:connector-curvature="0" />
        <path
           style="fill:none;fill-rule:evenodd;stroke:#000000;stroke-width:1.35149169;stroke-linecap:butt;stroke-linejoin:miter;stroke-miterlimit:4;stroke-dasharray:none;stroke-opacity:1"
           d="m 133.1926,76.728527 35.46233,0"
           id="path5465-1"
           inkscape:connector-curvature="0" />
      </g>
    </g>
  </g>
</svg>
