<?xml version="1.0" encoding="UTF-8" standalone="no"?>
<!-- Generator: Adobe Illustrator 21.0.0, SVG Export Plug-In . SVG Version: 6.00 Build 0)  -->

<svg
   xmlns:dc="http://purl.org/dc/elements/1.1/"
   xmlns:cc="http://creativecommons.org/ns#"
   xmlns:rdf="http://www.w3.org/1999/02/22-rdf-syntax-ns#"
   xmlns:svg="http://www.w3.org/2000/svg"
   xmlns="http://www.w3.org/2000/svg"
   xmlns:sodipodi="http://sodipodi.sourceforge.net/DTD/sodipodi-0.dtd"
   xmlns:inkscape="http://www.inkscape.org/namespaces/inkscape"
   version="1.1"
   id="Layer_1"
   x="0px"
   y="0px"
   viewBox="0 0 288 187"
   style="enable-background:new 0 0 288 187;"
   xml:space="preserve"
   inkscape:version="0.91+devel+osxmenu r12898"
   sodipodi:docname="typoday-logo.svg"><metadata
     id="metadata6473"><rdf:RDF><cc:Work
         rdf:about=""><dc:format>image/svg+xml</dc:format><dc:type
           rdf:resource="http://purl.org/dc/dcmitype/StillImage" /><dc:title></dc:title></cc:Work></rdf:RDF></metadata><defs
     id="defs6471" /><sodipodi:namedview
     pagecolor="#ffffff"
     bordercolor="#666666"
     borderopacity="1"
     objecttolerance="10"
     gridtolerance="10"
     guidetolerance="10"
     inkscape:pageopacity="0"
     inkscape:pageshadow="2"
     inkscape:window-width="1625"
     inkscape:window-height="1045"
     id="namedview6469"
     showgrid="false"
     inkscape:zoom="2.7855757"
     inkscape:cx="206.87648"
     inkscape:cy="116.84512"
     inkscape:window-x="0"
     inkscape:window-y="23"
     inkscape:window-maximized="0"
     inkscape:current-layer="Layer_1" /><style
     type="text/css"
     id="style6381">
	.st0{fill-rule:evenodd;clip-rule:evenodd;fill:#7A1926;}
	.st1{fill:#7A1926;}
	.st2{fill:#7A1926;stroke:#7A1926;stroke-width:0.25;stroke-miterlimit:10;}
	.st3{fill-rule:evenodd;clip-rule:evenodd;fill:#7A1926;stroke:#7A1926;stroke-width:0.25;stroke-miterlimit:10;}
	.st4{fill:#231F20;stroke:#7A1926;stroke-width:0.25;stroke-miterlimit:10;}
</style><path
     class="st1"
     d="m 168.1,98 c -0.3,-0.1 -0.5,-0.3 -0.7,-0.5 -0.2,-0.2 -0.3,-0.5 -0.4,-0.8 -0.1,-0.3 -0.2,-0.6 -0.2,-1 0,-0.6 0,-1.1 0.1,-1.6 0.1,-0.5 0.3,-1 0.6,-1.4 0.3,-0.4 0.6,-0.8 0.9,-1.2 0.4,-0.4 0.7,-0.7 1.1,-1.1 0.6,-0.5 1.2,-0.9 1.7,-1.4 0.6,-0.5 1.1,-1 1.6,-1.6 0.4,-0.6 0.8,-1.3 1,-2.1 0.2,-0.8 0.3,-1.7 0.1,-2.7 l -0.1,0 c 0,0.2 0.1,0.4 0.1,0.6 0,0.2 0,0.4 0,0.5 -0.1,0.2 -0.3,0.3 -0.7,0.4 -0.4,0 -0.8,0 -1.3,0 -0.5,-0.1 -1.1,-0.2 -1.7,-0.3 -0.6,-0.1 -1.2,-0.3 -1.9,-0.4 -0.6,-0.1 -1.2,-0.2 -1.8,-0.3 -0.6,-0.1 -1,-0.1 -1.5,-0.1 -0.7,0 -1.3,0.2 -1.8,0.6 -0.5,0.3 -0.8,0.8 -1.1,1.3 -0.3,0.5 -0.5,1.1 -0.6,1.7 -0.1,0.6 -0.2,1.3 -0.3,1.9 l 0.2,0 c 0.1,-0.5 0.3,-0.9 0.7,-1.1 0.4,-0.2 0.8,-0.3 1.4,-0.3 0.6,0 1.2,0 1.7,0.1 0.6,0.1 1.2,0.2 1.7,0.4 0.6,0.1 1.1,0.3 1.7,0.4 0.6,0.1 1.1,0.1 1.6,0.1 0.6,0 1.1,-0.2 1.6,-0.4 0.5,-0.2 0.9,-0.6 1.2,-1.1 -0.3,0.5 -0.7,1 -1.1,1.3 -0.4,0.4 -0.9,0.7 -1.4,0.9 -0.5,0.2 -1.1,0.5 -1.6,0.6 -0.6,0.2 -1.1,0.4 -1.7,0.5 -0.7,0.2 -1.4,0.5 -2,0.7 -0.7,0.3 -1.2,0.6 -1.7,1 -0.5,0.4 -0.9,0.9 -1.2,1.4 -0.3,0.5 -0.4,1.2 -0.4,1.9 0.1,1.2 0.7,2.2 1.8,2.8 1.1,0.6 2.8,0.8 5.1,0.7 0.1,0 0.3,0 0.5,0 -0.2,-0.2 -0.9,-0.3 -1.2,-0.4"
     id="path6397"
     style="fill:#000000"
     inkscape:connector-curvature="0" /><path
     class="st1"
     d="m 170,95.1 c 0.1,-1 1.1,-1.8 2.1,-1.7 1,0.1 1.8,1.1 1.7,2.1 0,0 0,0 0,0.1 0,0.1 -0.1,0.5 -0.4,0.9 0,0 0,0 0,0 -0.3,0.5 -0.8,1 -1.8,1.4 0,-0.1 0.4,-0.6 0.2,-0.7 l 0,0 c 0,0 -0.1,0 -0.2,0 -1,-0.1 -1.8,-1 -1.6,-2.1"
     id="path6399"
     style="fill:#000000"
     inkscape:connector-curvature="0" /><path
     class="st1"
     d="m 172.5,96.3 c 0.2,-0.4 0.3,-0.8 0.3,-0.9 0,0.4 -0.1,0.7 -0.3,0.9"
     id="path6401"
     style="fill:#000000"
     inkscape:connector-curvature="0" /><path
     class="st1"
     d="m 132,82.9 c 0.3,0.1 0.5,0.3 0.7,0.5 0.2,0.2 0.3,0.5 0.4,0.8 0.1,0.3 0.2,0.6 0.2,1 0,0.6 0,1.1 -0.2,1.6 -0.1,0.5 -0.3,1 -0.6,1.4 -0.3,0.4 -0.6,0.8 -0.9,1.2 -0.4,0.4 -0.7,0.7 -1.1,1.1 -0.6,0.5 -1.1,0.9 -1.7,1.4 -0.6,0.5 -1.1,1 -1.6,1.6 -0.4,0.6 -0.8,1.3 -1,2.1 -0.2,0.8 -0.3,1.7 -0.1,2.7 l 0.2,0 c 0,-0.2 -0.1,-0.4 -0.1,-0.6 0,-0.2 0,-0.4 0,-0.5 0.1,-0.2 0.3,-0.3 0.7,-0.4 0.4,0 0.8,0 1.3,0 0.5,0.1 1.1,0.2 1.7,0.3 0.6,0.1 1.2,0.3 1.9,0.4 0.6,0.1 1.2,0.2 1.8,0.3 0.6,0.1 1,0.1 1.5,0.1 0.7,0 1.3,-0.2 1.8,-0.6 0.5,-0.3 0.8,-0.8 1.1,-1.3 0.3,-0.5 0.5,-1.1 0.6,-1.7 0.1,-0.6 0.2,-1.3 0.3,-1.9 l -0.2,0 c -0.1,0.5 -0.3,0.9 -0.7,1.1 -0.4,0.2 -0.8,0.3 -1.4,0.3 -0.6,0 -1.2,0 -1.7,-0.1 -0.6,-0.1 -1.2,-0.2 -1.7,-0.4 -0.6,-0.1 -1.1,-0.3 -1.7,-0.4 -0.6,-0.1 -1.1,-0.1 -1.6,-0.1 -0.6,0 -1.1,0.2 -1.6,0.4 -0.5,0.2 -0.9,0.6 -1.2,1.1 0.3,-0.5 0.7,-1 1.1,-1.3 0.4,-0.3 0.9,-0.7 1.4,-0.9 0.5,-0.2 1.1,-0.5 1.6,-0.6 0.6,-0.2 1.1,-0.3 1.7,-0.5 0.7,-0.2 1.4,-0.5 2,-0.7 0.7,-0.3 1.2,-0.6 1.7,-1 0.5,-0.4 0.9,-0.9 1.2,-1.4 0.3,-0.5 0.4,-1.2 0.4,-1.9 -0.1,-1.2 -0.7,-2.2 -1.7,-2.8 -1.1,-0.6 -2.8,-0.8 -5.1,-0.7 -0.1,0 -0.3,0 -0.4,0 0,0.1 0.7,0.3 1,0.4"
     id="path6403"
     style="fill:#000000"
     inkscape:connector-curvature="0" /><path
     class="st1"
     d="m 130.1,85.7 c -0.1,1 -1.1,1.8 -2.1,1.7 -1,-0.1 -1.8,-1.1 -1.7,-2.1 0,0 0,0 0,-0.1 0,-0.1 0.1,-0.5 0.4,-0.9 0,0 0,0 0,0 0.3,-0.5 0.9,-1 1.8,-1.4 0,0.1 -0.4,0.6 -0.2,0.7 l 0,0 c 0,0 0.1,0 0.2,0 1,0.2 1.8,1.1 1.6,2.1"
     id="path6405"
     style="fill:#000000"
     inkscape:connector-curvature="0" /><path
     class="st1"
     d="m 127.5,84.5 c -0.2,0.4 -0.3,0.8 -0.3,0.9 0.1,-0.3 0.2,-0.6 0.3,-0.9"
     id="path6407"
     style="fill:#000000"
     inkscape:connector-curvature="0" /><path
     class="st1"
     d="m 139.5,90.4 c 0,-0.9 0.1,-1.8 0.4,-2.6 0.3,-0.8 0.7,-1.5 1.2,-2.1 0.5,-0.6 1.2,-1 1.9,-1.4 0.8,-0.3 1.6,-0.5 2.5,-0.5 0.9,0 1.8,0.2 2.5,0.5 0.8,0.3 1.4,0.8 1.9,1.4 0.5,0.6 0.9,1.3 1.2,2.1 0.3,0.8 0.4,1.6 0.4,2.6 0,0.9 -0.1,1.8 -0.4,2.6 -0.3,0.8 -0.7,1.5 -1.2,2.1 -0.5,0.6 -1.2,1 -1.9,1.4 -0.8,0.3 -1.6,0.5 -2.5,0.5 -0.9,0 -1.8,-0.2 -2.5,-0.5 -0.8,-0.3 -1.4,-0.8 -1.9,-1.4 -0.5,-0.6 -0.9,-1.3 -1.2,-2.1 -0.2,-0.8 -0.4,-1.6 -0.4,-2.6 m 4.1,0 c 0,1.1 0,2 0.1,2.8 0,0.8 0.1,1.5 0.3,2 0.1,0.5 0.4,0.9 0.6,1.2 0.3,0.3 0.6,0.4 1.1,0.4 0.5,0 0.8,-0.1 1.1,-0.4 0.3,-0.3 0.5,-0.6 0.6,-1.2 0.1,-0.5 0.2,-1.2 0.3,-2 0,-0.8 0.1,-1.8 0.1,-2.8 0,-1.1 0,-2 -0.1,-2.8 0,-0.8 -0.1,-1.5 -0.3,-2 -0.1,-0.5 -0.4,-0.9 -0.6,-1.2 -0.3,-0.3 -0.6,-0.4 -1.1,-0.4 -0.4,0 -0.8,0.1 -1.1,0.4 -0.3,0.2 -0.5,0.6 -0.6,1.2 -0.1,0.5 -0.2,1.2 -0.3,2 -0.1,0.8 -0.1,1.7 -0.1,2.8"
     id="path6409"
     style="fill:#000000"
     inkscape:connector-curvature="0" /><path
     class="st1"
     d="m 152.5,96.8 0,-0.1 2,0 0,-9.2 c -0.3,0.4 -0.6,0.7 -0.9,1 -0.3,0.3 -0.7,0.5 -1,0.8 l -0.1,-0.1 c 0.5,-0.3 0.9,-0.6 1.3,-1 0.4,-0.4 0.7,-0.8 1,-1.3 0.3,-0.5 0.6,-0.9 0.8,-1.4 0.2,-0.5 0.4,-0.9 0.6,-1.4 l 2,0 0,12.6 2,0 0,0.1 -7.7,0 z"
     id="path6411"
     style="fill:#000000"
     inkscape:connector-curvature="0" /><path
     class="st1"
     d="M 251.7,81.4"
     id="path6413"
     style="fill:#000000"
     inkscape:connector-curvature="0" /><path
     style="fill:#000000"
     inkscape:connector-curvature="0"
     id="path6417"
     d="m 105.1,69 0,-0.1 0,0.1 z"
     class="st1" /><path
     style="clip-rule:evenodd;fill:#000000;fill-rule:evenodd"
     inkscape:connector-curvature="0"
     id="path6419"
     d="m 122.9,27 c 0,-0.1 0.1,0 0,0 l 0,0 z"
     class="st0" /><path
     style="clip-rule:evenodd;fill:#000000;fill-rule:evenodd"
     inkscape:connector-curvature="0"
     id="path6421"
     d="m 76.4,19.2 c -6.1,6.8 -14.6,7.2 -18.3,9.3 -3.7,2.2 -4.8,4.5 -4.8,6.2 0,1.7 0,27 0,27.8 0,0 1.6,0.7 2.7,1.6 1.1,0.8 2.4,2.3 2.4,2.3 l -9.8,8.4 C 45,66 37.1,72.5 36.9,72.6 c 0,-0.2 -0.1,-3.2 2.5,-6.8 2.4,-3.3 4.9,-3.5 4.9,-3.5 -0.1,-7.2 0,-31.8 0,-31.8 l -5.9,0 5.9,-5.8 9,0.1 c 5.6,0 14.6,-1.3 19.5,-5.3 C 78.3,15 80.4,6.7 73.3,3.7 67.7,1.3 63.2,6.2 63,6.4 63.6,6.1 64.3,6 65,6 c 2.7,0 4.9,2.2 4.9,4.9 0,2.7 -2.2,4.9 -4.9,4.9 -2.7,0 -4.9,-2.2 -4.9,-4.9 -0.3,-4.2 4,-8.9 9.6,-9.2 9.5,-0.6 13.7,9.8 6.7,17.5"
     class="st0" /><path
     style="clip-rule:evenodd;fill:#000000;fill-rule:evenodd"
     d="M 105.1,68.800003 105.1,69"
     id="line6423"
     inkscape:connector-curvature="0" /><path
     style="clip-rule:evenodd;fill:#000000;fill-rule:evenodd"
     inkscape:connector-curvature="0"
     id="path6425"
     d="m 122.9,27 c 0,-0.1 0.1,0 0,0 l 0,0 z"
     class="st0" /><path
     style="fill:#000000"
     d="m 104.51172,26.910156 -8.500001,8.300782 0.175781,0.177734 1.484375,-1.449219 c 0.220284,0.111339 4.927735,2.512854 4.927735,4.759766 l 0,23.300781 c 0,0 -1.79922,0.4 -3.699219,2.5 -2.7,3.1 -2.300782,7.400391 -2.300782,7.400391 0,0 0.701172,-1.501172 3.201172,-2.701172 1.199999,-0.5 2.798829,-0.59961 2.798829,-0.59961 l 0,24.400391 9.09961,-6.90039 0,-15.699219 c 0.5,0.3 2.40039,1.1 3.90039,3.5 5.7,-4.8 15.09961,-6.5 15.09961,-6.5 0,-1.8 -0.19844,-21.800782 0.10156,-28.800782 0,-1 -0.10078,-2 0.69922,-3.5 0,0 -10.20078,-7.9 -10.30078,-8 l -9.5,6.400391 -7.0586,-6.363281 0.0469,-0.04687 -0.17578,-0.179688 z m 11.91601,7.47461 c 0.21644,-0.0084 0.44063,-0.0031 0.67188,0.01563 2.3,0.1 3.19961,1.00039 3.59961,1.90039 0.4,1 0.30078,4.398438 0.30078,4.398438 l 0.0996,26.201172 c 0,0 -1.5,-2.400782 -5,-3.800782 -2.4,-1.1 -4.5,-1.40039 -4.5,-1.40039 l 0,-24.199219 c 0,0 1.58166,-2.988892 4.82812,-3.115234 z"
     id="path6427"
     inkscape:connector-curvature="0" /><path
     style="color:#000000;font-style:normal;font-variant:normal;font-weight:normal;font-stretch:normal;font-size:medium;line-height:normal;font-family:sans-serif;text-indent:0;text-align:start;text-decoration:none;text-decoration-line:none;text-decoration-style:solid;text-decoration-color:#000000;letter-spacing:normal;word-spacing:normal;text-transform:none;direction:ltr;block-progression:tb;writing-mode:lr-tb;baseline-shift:baseline;text-anchor:start;white-space:normal;shape-padding:0;clip-rule:nonzero;display:inline;overflow:visible;visibility:visible;opacity:1;isolation:auto;mix-blend-mode:normal;color-interpolation:sRGB;color-interpolation-filters:linearRGB;solid-color:#000000;solid-opacity:1;fill:#000000;fill-opacity:1;fill-rule:nonzero;stroke:none;stroke-width:0.25;stroke-linecap:butt;stroke-linejoin:miter;stroke-miterlimit:10;stroke-dasharray:none;stroke-dashoffset:0;stroke-opacity:1;color-rendering:auto;image-rendering:auto;shape-rendering:auto;text-rendering:auto;enable-background:accumulate"
     d="M 85.611328,26.011719 76.8125,34.8125 76.988281,34.988281 85.789062,26.1875 85.611328,26.011719 Z M 68.011719,26.912109 55.8125,39.011719 55.988281,39.189453 68.1875,27.087891 68.011719,26.912109 Z"
     id="line6431"
     inkscape:connector-curvature="0" /><path
     style="clip-rule:evenodd;fill:#000000;fill-rule:evenodd"
     inkscape:connector-curvature="0"
     id="path6433"
     d="m 95.2,35.1 -9.4,-8.9 -7.9,7.8 2.2,-2 c 0,0 3.3,2.2 4.1,4.5 0.8,2.2 0.6,4.2 0.6,4.2 l 0,26 -9.4,2.7 0,-33.1 0,-3.5 -7.3,-5.8 -6.8,6.8 c 0,0 5,2.6 5,4.8 0,3.2 0.1,22.2 0,30.3 0,2.3 0.2,4.4 -1.7,6.4 -6.5,7 -2.8,18.8 6.8,18.3 5.6,-0.3 9.9,-5 9.6,-9.2 0,-2.7 -2.2,-4.9 -4.9,-4.9 -2.7,0 -4.9,2.2 -4.9,4.9 0,2.7 2.2,4.9 4.9,4.9 0.7,0 1.4,-0.2 2,-0.4 -0.2,0.2 -4.8,5.2 -10.3,2.7 -6.4,-2.9 -5,-11.3 0.5,-15.8 4.9,-4 26.2,-8.2 26.2,-8.2 0,0 0,-26.5 0,-28.9 0,-1.1 0,-2.1 0.7,-3.6"
     class="st0" /><path
     style="clip-rule:evenodd;fill:#000000;fill-rule:evenodd"
     d="m 195,33.299999 0,-0.200001"
     id="line6439"
     inkscape:connector-curvature="0" /><path
     style="clip-rule:evenodd;fill:#000000;fill-rule:evenodd"
     inkscape:connector-curvature="0"
     id="path6441"
     d="m 177.2,75.1 c 0,0.1 -0.1,0 0,0 l 0,0 z"
     class="st0" /><path
     style="clip-rule:evenodd;fill:#000000;fill-rule:evenodd"
     inkscape:connector-curvature="0"
     id="path6443"
     d="m 223.7,82.9 c 6.1,-6.8 14.6,-7.2 18.3,-9.3 3.7,-2.2 4.8,-4.5 4.8,-6.2 0,-1.7 0,-27 0,-27.8 0,0 -1.6,-0.7 -2.7,-1.6 -1.1,-0.8 -2.4,-2.3 -2.4,-2.3 l 9.8,-8.4 c 3.6,8.9 11.5,2.4 11.7,2.3 0,0.2 0.1,3.2 -2.5,6.8 -2.4,3.3 -4.9,3.5 -4.9,3.5 0.1,7.2 0,31.8 0,31.8 l 5.7,0 -5.7,5.6 -9,0 c -5.6,0 -14.5,1.3 -19.5,5.3 -5.5,4.5 -7.6,12.8 -0.5,15.8 5.6,2.4 10.1,-2.5 10.3,-2.7 -0.6,0.3 -1.3,0.4 -2,0.4 -2.7,0 -4.9,-2.2 -4.9,-4.9 0,-2.7 2.2,-4.9 4.9,-4.9 2.7,0 4.9,2.2 4.9,4.9 0.3,4.2 -4,8.9 -9.6,9.2 -9.5,0.6 -13.7,-9.8 -6.7,-17.5"
     class="st0" /><path
     style="clip-rule:evenodd;fill:#000000;fill-rule:evenodd"
     d="m 195,33.299999 0,-0.200001"
     id="line6445"
     inkscape:connector-curvature="0" /><path
     style="clip-rule:evenodd;fill:#000000;fill-rule:evenodd"
     inkscape:connector-curvature="0"
     id="path6447"
     d="m 177.2,75.1 c 0,0.1 -0.1,0 0,0 l 0,0 z"
     class="st0" /><path
     style="fill:#000000"
     d="m 229.58203,8.488281 c -0.28816,-0.0079 -0.58281,-0.0039 -0.88281,0.01172 -5.6,0.3 -9.89961,4.899219 -9.59961,9.199219 0,2.7 2.20039,4.90039 4.90039,4.90039 2.7,0 4.90039,-2.20039 4.90039,-4.90039 0,-2.7 -2.20039,-4.898438 -4.90039,-4.898438 -0.7,0 -1.4,0.198438 -2,0.398438 0.2,-0.2 4.80078,-5.199219 10.30078,-2.699219 6.4,2.9 5,11.300781 -0.5,15.800781 -4.9,4 -26.20117,8.199219 -26.20117,8.199219 l 0,28.900391 c 0,1 7.8e-4,2 -0.69922,3.5 l 9.40039,8.90039 L 222.19922,68 220,70 c 0,0 -3.29961,-2.2 -4.09961,-4.5 -0.8,-2.2 -0.59961,-4.199219 -0.59961,-4.199219 l 0,-26 9.39844,-2.701172 0,33.09961 0,3.5 7.25781,5.767578 -0.0449,0.04492 0.17578,0.177734 12.19922,-12.101562 -0.17578,-0.175782 -5.32617,5.283203 c -0.0894,0.146157 -4.98438,-2.515333 -4.98438,-4.695312 0,-3.2 -0.1,-22.200781 0,-30.300781 0,-2.4 -0.20078,-4.398438 1.69922,-6.398438 6.2,-6.78125 3.01497,-18.068326 -5.91797,-18.3125 z m -31.98242,0.710938 -9.09961,6.90039 0,15.59961 c -0.5,-0.3 -2.40039,-1.1 -3.90039,-3.5 -5.8,4.8 -15.19922,6.5 -15.19922,6.5 0,1.8 0.20039,21.800781 -0.0996,28.800781 0,1 0.0988,2 -0.70117,3.5 0,0 10.20078,7.9 10.30078,8 l 9.5,-6.400391 7.06055,6.365235 -0.0488,0.04687 0.17578,0.177734 8.40039,-8.300781 -0.17578,-0.177734 -1.40234,1.384765 c -0.53525,-0.275571 -4.81055,-2.534831 -4.81055,-4.695312 l 0,-23.201172 c 0,0 1.80117,-0.4 3.70117,-2.5 2.7,-3.1 2.29883,-7.398438 2.29883,-7.398438 0,0 -0.69922,1.499219 -3.19922,2.699219 -1.2,0.5 -2.80078,0.599609 -2.80078,0.599609 l 0,-24.40039 z m -18.59961,26 c 0,0 1.5,2.400781 5,3.800781 2.4,1.1 4.5,1.400391 4.5,1.400391 l 0,24.199218 c 0,0 -1.8,3.39961 -5.5,3.09961 -2.3,-0.1 -3.19961,-0.998438 -3.59961,-1.898438 -0.4,-1 -0.30078,-4.40039 -0.30078,-4.40039 L 179,35.199219 Z m 44.11133,31.912109 -8.89844,8.798828 0.17578,0.179688 8.89844,-8.800782 -0.17578,-0.177734 z"
     id="path6449"
     inkscape:connector-curvature="0" /><path
     style="clip-rule:evenodd;fill:#000000;fill-rule:evenodd"
     inkscape:connector-curvature="0"
     id="path6461"
     d="m 150.1,27.9 c 0,0 -5.5,5.2 -14,6.5 l 0,32.3 c 0,0 6.8,0.7 12.9,7 0,0 8.4,-6.1 14.1,-6.5 l 0,-32 c 0,0 -7.5,-1.6 -13,-7.3 m 3.9,38.3 c -2.8,-3 -8.7,-5.7 -8.7,-5.7 l 0,-24.9 c 3.6,3.6 8.7,5.6 8.7,5.6 l 0,25 z"
     class="st0" /><path
     style="fill:#000000"
     inkscape:connector-curvature="0"
     id="path6463"
     d="M 263.9,69.3"
     class="st1" /><path
     style="fill:#000000;stroke:#7a1926;stroke-width:0.25;stroke-miterlimit:10"
     inkscape:connector-curvature="0"
     id="path6465"
     d="M 37.3,31.5"
     class="st4" /><path
     style="fill:#000000;stroke:#7a1926;stroke-width:0.25;stroke-miterlimit:10"
     inkscape:connector-curvature="0"
     id="path6467"
     d="M 49.6,19.4"
     class="st4" /><g
     style="font-style:normal;font-variant:normal;font-weight:bold;font-stretch:normal;font-size:44.04640961px;line-height:125%;font-family:'Yaldevi Colombo';-inkscape-font-specification:'Yaldevi Colombo Bold';letter-spacing:0px;word-spacing:0px;fill:#000000;fill-opacity:1;stroke:none;stroke-width:4.12935114px;stroke-linecap:butt;stroke-linejoin:miter;stroke-opacity:1"
     id="text7018"
     transform="translate(0,-20)"><path
       d="m 101.61282,157.22075 q 0,-1.46248 1.29042,-2.10769 0.51617,-0.25808 1.03234,-0.25808 l 0.043,0 q 1.54851,0.043 2.1507,1.46247 0.17206,0.43014 0.17206,0.9033 0,1.46248 -1.33344,2.10769 -0.51617,0.25808 -1.03233,0.25808 -1.41947,0 -2.06468,-1.33343 -0.25808,-0.51617 -0.25808,-1.03234 z m -2.623863,-0.086 q 0,2.58085 2.150703,4.04332 0.12904,0.086 0.21507,0.12905 1.03234,0.68822 2.40879,0.68822 2.10769,-0.043 3.14003,-1.59152 -0.34412,4.08634 -3.39812,5.11868 -0.86028,0.25808 -1.8496,0.25808 -3.742225,0 -5.462788,-3.82825 -1.032337,-2.23673 -1.032337,-5.16169 0,-4.81758 2.7529,-7.74253 1.978648,-2.02167 4.516475,-2.06468 2.58085,0 4.55949,2.10769 0.17206,0.17206 0.3011,0.34411 l 2.15071,-1.8496 q -2.83893,-3.52716 -7.0113,-3.57017 -4.645517,0 -7.613488,4.12935 -2.623858,3.61318 -2.623858,8.64583 0,6.88225 3.871266,10.06529 2.32276,1.89262 5.59183,1.89262 4.98963,0 7.01129,-4.43045 0.94631,-2.10769 0.94631,-4.6025 0,-5.20471 -3.054,-6.96828 -1.16138,-0.64522 -2.53783,-0.64522 -2.62385,0 -4.129347,2.15071 -0.903296,1.33343 -0.903296,2.88194 z"
       style="font-style:normal;font-variant:normal;font-weight:bold;font-stretch:normal;font-family:'Yaldevi Colombo';-inkscape-font-specification:'Yaldevi Colombo Bold';fill:#000000;stroke-width:4.12935114px"
       id="path7060"
       inkscape:connector-curvature="0" /><path
       d="m 111.16194,159.93064 0.64521,2.83892 q 0.21507,-0.12904 0.38713,-0.12904 0.60219,0.086 0.64521,1.07535 0,0.21507 -0.043,0.55919 0,0.34411 0,0.47315 0.086,3.9573 3.91428,4.00031 2.36578,0 3.26907,-1.97865 0.21507,-0.38712 0.25809,-0.77425 0.38713,1.72056 2.06467,2.4518 0.73124,0.3011 1.59152,0.3011 2.27975,-0.043 3.61319,-1.76358 1.41946,1.72057 3.91428,1.76358 5.93594,0 6.83923,-7.91459 0.17206,-1.54851 0.17206,-3.31208 0,-9.24803 -4.77456,-12.43107 -2.02166,-1.33343 -4.47346,-1.33343 -3.91429,0.043 -7.26938,3.22605 -1.16138,-2.92496 -4.2584,-3.52715 -0.55918,-0.086 -1.11836,-0.086 -3.09701,0 -4.60251,2.36577 -0.77425,1.33344 -0.77425,2.96797 0,3.61319 3.14003,5.33375 0.60219,0.34411 1.2474,0.55918 l -4.38743,5.33375 z m 20.25963,5.89292 q -2.02166,-0.043 -2.58085,-1.67754 0.47316,-1.84961 0.47316,-4.04333 0,-8.81788 -5.41978,-9.59214 -0.43014,-0.043 -0.90329,-0.043 l -0.3011,0 q 2.70989,-3.14003 5.29073,-3.52715 0.51617,-0.086 0.98933,-0.086 3.82825,0 5.46278,4.38743 0.94631,2.58085 0.94631,6.28006 -0.043,8.2587 -3.95729,8.30171 z m -7.74254,-0.086 q -2.06467,-0.086 -2.10769,-3.74223 l 0,-1.63453 -2.66687,0 0,1.63453 q -0.17205,3.61318 -2.1507,3.74223 -1.63454,-0.043 -1.63454,-2.45181 l 0,-0.73124 q -0.043,-1.93563 -0.81726,-2.23673 1.03233,-1.03234 5.59183,-6.45211 1.03233,-0.81727 2.36577,-0.81727 2.79591,0 3.69921,3.6562 0.34411,1.46248 0.34411,3.39811 -0.043,5.59183 -2.62386,5.63485 z m -9.89323,-16.86152 q 0,-1.93563 1.67755,-2.58084 0.51617,-0.17206 1.03233,-0.17206 2.06468,0 2.83893,1.97865 0.25809,0.68822 0.3011,1.50549 l -2.58084,3.14003 q -3.22606,-0.98933 -3.26907,-3.87127 z"
       style="font-style:normal;font-variant:normal;font-weight:bold;font-stretch:normal;font-family:'Yaldevi Colombo';-inkscape-font-specification:'Yaldevi Colombo Bold';fill:#000000;stroke-width:4.12935114px"
       id="path7062"
       inkscape:connector-curvature="0" /><path
       d="m 139.29314,146.85436 q 1.46248,-1.84961 3.6562,-1.84961 3.48414,0 5.24771,4.08634 1.24741,2.96797 1.24741,7.57048 0,8.34473 -3.74222,10.83954 -1.29043,0.86028 -2.7529,0.86028 -2.23674,-0.043 -3.6562,-1.8496 l 1.76358,-1.93563 q 0.68822,0.77425 1.72056,0.81726 2.40879,0 3.18304,-4.64552 0.3011,-1.80659 0.3011,-4.08633 0,-7.39842 -2.62386,-8.5598 -0.43014,-0.17206 -0.86028,-0.17206 -1.03234,0.043 -1.72056,0.86028 l -1.76358,-1.93563 z"
       style="font-style:normal;font-variant:normal;font-weight:bold;font-stretch:normal;font-family:'Yaldevi Colombo';-inkscape-font-specification:'Yaldevi Colombo Bold';fill:#000000;stroke-width:4.12935114px"
       id="path7064"
       inkscape:connector-curvature="0" /><path
       d="m 151.68119,163.11368 q 0,6.19402 3.61319,9.59214 2.88194,2.66687 7.3554,2.66687 5.89293,0 8.77487,-4.34442 1.2044,-1.84961 1.59152,-4.00031 l -3.09701,-0.47316 q -0.64521,3.22606 -3.52715,4.77457 -1.67755,0.90329 -3.74223,0.90329 -4.73155,0 -6.75321,-4.17236 -1.07535,-2.19372 -1.07535,-4.94662 0.043,-5.46279 2.70989,-7.61349 -0.21507,0.77425 -0.21507,1.50549 0,3.3551 2.79591,4.94662 1.67755,0.94631 4.00031,0.94631 4.51648,0 6.06498,-3.09702 0.6022,-1.20439 0.6022,-2.58084 l -2.83893,0 q 0,2.19372 -2.36577,2.79591 -0.73124,0.17206 -1.59152,0.17206 -3.09702,0 -3.91428,-2.27975 -0.21507,-0.60219 -0.21507,-1.20439 0.043,-1.50549 0.77425,-2.1507 l 10.58146,0 q 0.68823,-2.58085 0.68823,-4.86059 0,-4.51648 -2.53783,-5.89293 -0.81727,-0.43014 -1.76358,-0.43014 -2.49482,0.043 -3.48414,2.4518 -0.98932,-2.40879 -3.6562,-2.4518 -3.44112,0 -4.25839,3.48414 -0.17206,0.86028 -0.17206,1.80659 0.043,2.4518 1.11837,3.78524 -3.26907,1.67755 -4.68853,5.8069 -0.77426,2.23673 -0.77426,4.86059 z m 17.50673,-11.35572 -3.82825,0 0,-1.11836 0,-1.29043 q 0.12904,-3.14002 2.10769,-3.18304 1.93563,0.086 1.97864,3.22606 0,0.94631 -0.25808,2.36577 z m -9.33405,0 q -0.81727,-0.086 -1.16138,-1.89262 -0.086,-0.51617 -0.086,-0.90329 0,-2.23673 1.37645,-2.70989 0.3011,-0.086 0.55918,-0.086 2.10769,0.086 2.32276,3.18304 0.043,0.38713 0.043,1.29043 l 0,1.11836 -3.054,0 z"
       style="font-style:normal;font-variant:normal;font-weight:bold;font-stretch:normal;font-family:'Yaldevi Colombo';-inkscape-font-specification:'Yaldevi Colombo Bold';fill:#000000;stroke-width:4.12935114px"
       id="path7066"
       inkscape:connector-curvature="0" /><path
       d="m 175.42496,157.995 q 0,9.29104 4.25839,10.53845 0.73124,0.21507 1.54851,0.21507 2.49482,0 3.52715,-2.10769 0.43014,-0.86028 0.43014,-1.76358 0,-0.68822 -0.47315,-2.40878 -0.12904,-0.43014 -0.12904,-0.73124 0.086,-1.2044 1.67755,-1.24741 1.63453,0.086 1.67754,1.24741 0,0.17205 -0.38712,1.67755 -0.21507,0.77425 -0.21507,1.46247 0,2.15071 1.76357,3.26907 0.98933,0.6022 2.15071,0.6022 5.11867,0 6.02197,-7.39842 0.25808,-2.02166 0.25808,-5.11867 0,-14.53876 -6.15101,-18.28098 -2.40879,-1.46248 -5.84991,-1.46248 -3.91428,0 -6.75321,2.70988 -1.41947,1.37645 -2.06468,3.14003 l 2.96797,1.03234 q 0.9033,-2.32276 3.61318,-3.31209 1.11837,-0.38712 2.23674,-0.38712 6.02197,0 7.87157,7.05431 0.94631,3.69921 0.94631,9.50611 0,7.09732 -1.63453,8.73185 -0.64521,0.64521 -1.46248,0.64521 -1.11837,0 -1.37645,-1.11836 -0.043,-0.25809 -0.043,-0.43014 0,-0.47316 0.47316,-1.93564 0.21507,-0.60219 0.21507,-1.11836 0,-2.83893 -3.48414,-3.054 -0.38713,-0.043 -0.77425,-0.043 -3.82826,0 -4.21538,2.45181 -0.043,0.3011 -0.043,0.64521 0,0.47315 0.47316,1.93563 0.21507,0.6022 0.21507,1.11837 0,1.20439 -1.03234,1.50549 -0.21507,0.043 -0.43014,0.043 -2.70989,0 -2.79592,-7.26937 0,-0.3011 0,-0.6022 0,-6.88225 1.84961,-8.38775 0.43014,-0.34411 0.9033,-0.34411 1.41946,0 1.59152,1.50549 0.043,0.21507 0.043,0.43015 0,0.43014 -0.086,1.07535 -0.043,0.55918 -0.043,0.81726 0,3.78524 3.18304,4.08634 0.3011,0.043 0.55918,0.043 3.91428,-0.043 3.91428,-5.46279 0,-4.08634 -2.4518,-5.03265 -0.64521,-0.21507 -1.33344,-0.21507 -1.63453,0.043 -2.40878,1.2044 -1.16138,-1.2044 -3.054,-1.2044 -4.2584,0 -5.37676,7.18335 -0.3011,2.10769 -0.3011,4.55949 z m 9.85022,-7.74253 q 0,-0.43014 -0.043,-0.6022 0.38712,-0.90329 1.24741,-0.94631 1.41946,0.043 1.41946,2.79592 -0.043,2.66687 -1.33344,2.70988 -1.37645,-0.086 -1.37645,-1.93563 0,-0.3011 0.043,-1.07535 0.043,-0.68823 0.043,-0.94631 z"
       style="font-style:normal;font-variant:normal;font-weight:bold;font-stretch:normal;font-family:'Yaldevi Colombo';-inkscape-font-specification:'Yaldevi Colombo Bold';fill:#000000;stroke-width:4.12935114px"
       id="path7068"
       inkscape:connector-curvature="0" /></g></svg>