<?xml version="1.0" encoding="utf-8"?>
<!-- Generator: Adobe Illustrator 22.0.1, SVG Export Plug-In . SVG Version: 6.00 Build 0)  -->
<svg version="1.1"
	 id="svg491" inkscape:version="0.92.2 5c3e80d, 2017-08-06" sodipodi:docname="akuru-logo_triling.svg" xmlns:cc="http://creativecommons.org/ns#" xmlns:dc="http://purl.org/dc/elements/1.1/" xmlns:inkscape="http://www.inkscape.org/namespaces/inkscape" xmlns:rdf="http://www.w3.org/1999/02/22-rdf-syntax-ns#" xmlns:sodipodi="http://sodipodi.sourceforge.net/DTD/sodipodi-0.dtd" xmlns:svg="http://www.w3.org/2000/svg"
	 xmlns="http://www.w3.org/2000/svg" xmlns:xlink="http://www.w3.org/1999/xlink" x="0px" y="0px" viewBox="0 0 421 110.8"
	 style="enable-background:new 0 0 421 110.8;" xml:space="preserve">
<style type="text/css">
	.st0{fill:#FFFFFF;}
	.st1{opacity:0.85;enable-background:new    ;}
</style>
<sodipodi:namedview  bordercolor="#666666" borderopacity="1" gridtolerance="10" guidetolerance="10" id="namedview493" inkscape:current-layer="Layer_1" inkscape:cx="308.95305" inkscape:cy="322.1973" inkscape:pageopacity="0" inkscape:pageshadow="2" inkscape:window-height="1006" inkscape:window-maximized="0" inkscape:window-width="1680" inkscape:window-x="5" inkscape:window-y="0" inkscape:zoom="0.56063665" objecttolerance="10" pagecolor="#ffffff" showgrid="false">
	</sodipodi:namedview>
<g id="Layer_1" transform="translate(0,-741.00006)">
	
		<ellipse id="circle16" inkscape:export-filename="/Users/macbookpro/text1124.png" inkscape:export-xdpi="300" inkscape:export-ydpi="300" transform="matrix(0.9985 -5.530038e-02 5.530038e-02 0.9985 -44.184 8.1505)" cx="125.2" cy="802.4" rx="35.1" ry="35.1">
	</ellipse>
	
		<g id="g62" transform="matrix(0.58574952,0,0,0.58574952,-6.5361591,560.85004)" inkscape:export-filename="/Users/macbookpro/text1124.png" inkscape:export-xdpi="300" inkscape:export-ydpi="300">
		<path id="path18" inkscape:connector-curvature="0" class="st0" d="M186.3,407.9c-0.3-0.7-0.7-1.3-1.2-2c-0.9-0.9-1.9-1.4-2.8-1.4
			c-0.9-0.1-1.8,0.3-2.6,1c-0.6,0.6-0.9,1.3-0.9,2.1s0.2,1.4,0.7,2.1c0.3,0.3,0.7,0.5,1.1,0.6c0.4,0.1,0.9,0.1,1.3,0
			c0.5-0.1,0.9-0.4,1.3-0.8c0.2-0.2,0.4-0.5,0.5-0.8s0.2-0.6,0.2-0.8c0.3,0.5,0.5,1.1,0.4,1.6c-0.1,0.6-0.4,1.1-0.9,1.8
			c-0.7,0.7-1.6,1-2.7,0.9c-1-0.1-2.1-0.6-2.9-1.5c-0.6-0.6-1.1-1.3-1.3-2.1c-0.3-0.8-0.3-1.5-0.2-2.2s0.4-1.3,0.9-1.9
			c0.4-0.4,0.8-0.7,1.2-0.8c0.4-0.1,0.9-0.2,1.4-0.2l0.2-2c-0.8,0-1.6,0.1-2.3,0.4c-0.7,0.3-1.3,0.7-2,1.3c-0.8,0.8-1.3,1.8-1.5,2.9
			s-0.2,2.1,0.2,3.3c0.3,1.1,0.9,2.1,1.9,3c0.9,0.9,1.9,1.5,2.9,1.9s2,0.4,3,0.1c0.9-0.2,1.9-0.8,2.7-1.6c0.8-0.8,1.2-1.5,1.4-2.4
			C186.6,409.3,186.5,408.6,186.3,407.9L186.3,407.9z M181.7,408.7c-0.3,0-0.6-0.1-0.8-0.3c-0.2-0.2-0.3-0.5-0.3-0.8
			c0-0.3,0.1-0.6,0.4-0.8c0.2-0.2,0.5-0.3,0.8-0.4c0.3,0,0.6,0.1,0.8,0.3c0.2,0.2,0.3,0.5,0.3,0.8c0,0.3-0.1,0.6-0.4,0.8
			C182.2,408.5,182,408.6,181.7,408.7z"/>
		<path id="path20" inkscape:connector-curvature="0" class="st0" d="M194.1,399.9c-0.3-0.7-0.7-1.3-1.2-2c-0.9-0.9-1.9-1.4-2.8-1.4
			c-0.9-0.1-1.8,0.3-2.6,1c-0.6,0.6-0.9,1.3-0.9,2.1s0.2,1.4,0.7,2.1c0.3,0.3,0.7,0.5,1.1,0.6c0.4,0.1,0.9,0.1,1.3,0
			c0.5-0.1,0.9-0.4,1.3-0.8c0.2-0.2,0.4-0.5,0.5-0.8c0.1-0.3,0.2-0.6,0.2-0.8c0.3,0.5,0.5,1.1,0.4,1.6c-0.1,0.6-0.4,1.1-0.9,1.8
			c-0.7,0.7-1.6,1-2.7,0.9c-1-0.1-2.1-0.6-2.9-1.5c-0.6-0.6-1.1-1.3-1.3-2.1c-0.3-0.8-0.3-1.5-0.2-2.2c0.1-0.7,0.4-1.3,0.9-1.9
			c0.4-0.4,0.8-0.7,1.2-0.8c0.4-0.1,0.9-0.2,1.4-0.2l0.2-2c-0.8,0-1.6,0.1-2.3,0.4s-1.3,0.7-2,1.3c-0.8,0.8-1.3,1.8-1.5,2.9
			s-0.2,2.1,0.2,3.3c0.3,1.1,0.9,2.1,1.9,3c0.9,0.9,1.9,1.5,2.9,1.9s2,0.4,3,0.1c0.9-0.2,1.9-0.8,2.7-1.6c0.8-0.8,1.2-1.5,1.4-2.4
			C194.4,401.4,194.4,400.7,194.1,399.9L194.1,399.9z M189.4,400.7c-0.3,0-0.6-0.1-0.8-0.3c-0.2-0.2-0.3-0.5-0.3-0.8
			s0.1-0.6,0.4-0.8c0.2-0.2,0.5-0.3,0.8-0.4c0.3,0,0.6,0.1,0.8,0.3c0.2,0.2,0.3,0.5,0.3,0.8s-0.1,0.6-0.4,0.8
			C190.1,400.6,189.8,400.7,189.4,400.7z"/>
		<path id="path22" inkscape:connector-curvature="0" class="st0" d="M199.7,386.4c-4.3-4.2-7.9-4.7-11.1-1.6
			c-0.7,0.7-1.2,1.6-1.5,2.7c-0.3,1-0.2,2.1,0.2,3.1l2.1-1.1c-0.2-0.5-0.2-1.1-0.1-1.8c0.2-0.6,0.4-1.1,0.9-1.5
			c0.9-0.9,2.1-1.3,3.3-1.1c1.2,0.2,2.8,1.1,4.6,3c1.4,1.3,2.2,2.7,2.4,3.8s-0.1,2.2-1.1,3.2c-0.8,0.8-1.6,1.2-2.6,1.1
			s-1.6-0.5-2.3-1.1c-0.6-0.6-0.9-1.2-1-1.9c-0.1-0.6,0-1.1,0.4-1.5c0.2-0.2,0.5-0.4,0.8-0.5l-0.7-1.9c-0.7,0.2-1.2,0.5-1.8,1
			c-0.5,0.5-0.8,1.1-1,1.9c-0.1,0.7-0.1,1.4,0.2,2.2c0.3,0.7,0.8,1.5,1.4,2.1c0.6,0.6,1.4,1.1,2.2,1.4s1.8,0.4,2.8,0.1
			c1-0.2,2-0.8,2.9-1.8C203.8,393.5,203.4,390.2,199.7,386.4z"/>
		<path id="path24" inkscape:connector-curvature="0" class="st0" d="M211.3,382.6c-0.3-0.7-0.7-1.3-1.2-2c-0.9-0.9-1.9-1.4-2.8-1.4
			c-0.9-0.1-1.8,0.3-2.6,1c-0.6,0.6-0.9,1.3-0.9,2.1s0.2,1.4,0.7,2.1c0.3,0.3,0.7,0.5,1.1,0.6c0.4,0.1,0.9,0.1,1.3,0
			c0.5-0.1,0.9-0.4,1.3-0.8c0.2-0.2,0.4-0.5,0.5-0.8c0.1-0.3,0.2-0.6,0.2-0.8c0.3,0.5,0.5,1.1,0.4,1.6c-0.1,0.6-0.4,1.1-0.9,1.8
			c-0.7,0.7-1.6,1-2.7,0.9c-1-0.1-2.1-0.6-2.9-1.5c-0.6-0.6-1.1-1.3-1.3-2.1c-0.3-0.8-0.3-1.5-0.2-2.2s0.4-1.3,0.9-1.9
			c0.4-0.4,0.8-0.7,1.2-0.8s0.9-0.2,1.4-0.2l0.2-2c-0.8,0-1.6,0.1-2.3,0.4c-0.7,0.3-1.3,0.7-2,1.3c-0.8,0.8-1.3,1.8-1.5,2.9
			s-0.2,2.1,0.2,3.3c0.3,1.1,0.9,2.1,1.9,3c0.9,0.9,1.9,1.5,2.9,1.9c1,0.3,2,0.4,3,0.1c0.9-0.2,1.9-0.8,2.7-1.6
			c0.8-0.8,1.2-1.5,1.4-2.4C211.6,384.1,211.5,383.3,211.3,382.6L211.3,382.6z M206.6,383.4c-0.3,0-0.6-0.1-0.8-0.3
			c-0.2-0.2-0.3-0.5-0.3-0.8s0.1-0.6,0.4-0.8c0.2-0.2,0.5-0.3,0.8-0.4c0.3,0,0.6,0.1,0.8,0.3c0.2,0.2,0.3,0.5,0.3,0.8
			c0,0.3-0.1,0.6-0.4,0.8C207.2,383.2,207,383.4,206.6,383.4z"/>
		<path id="path26" inkscape:connector-curvature="0" class="st0" d="M221.1,372.9c-0.1-1-0.6-1.9-1.4-2.7c-0.5-0.5-1-0.8-1.6-1
			s-1.2-0.3-1.9-0.2c0-0.4-0.1-0.7-0.2-1.1c-0.2-0.3-0.3-0.6-0.6-0.9c-0.6-0.6-1.3-0.9-2.1-0.8c-0.8,0.1-1.6,0.4-2.2,1.1
			c-0.3,0.4-0.6,0.7-0.8,1.2c-0.2,0.4-0.3,0.9-0.3,1.3c-0.4,0-0.9,0.1-1.3,0.3s-0.8,0.5-1.2,0.8c-0.7,0.7-1,1.4-1.1,2.2
			c0,0.8,0.2,1.5,0.8,2.1c0.3,0.2,0.5,0.4,0.9,0.6c0.3,0.1,0.7,0.2,1.1,0.2c-0.1,0.6,0,1.2,0.2,1.9s0.6,1.1,1.1,1.6
			c0.8,0.8,1.6,1.2,2.7,1.3c1,0.1,2,0,3-0.4c1-0.4,2-1,2.8-2c0.8-0.8,1.4-1.8,1.9-2.8C221.1,374.9,221.3,373.9,221.1,372.9z
			 M209,374.5c-0.2-0.1-0.4-0.2-0.5-0.3c-0.3-0.3-0.4-0.6-0.4-0.9s0.2-0.7,0.5-1c0.3-0.3,0.7-0.5,1.1-0.5s0.8,0.1,1.2,0.5
			c0.2,0.2,0.3,0.4,0.4,0.4l-0.8,0.8c-0.3,0.3-0.6,0.7-0.8,1C209.6,374.6,209.3,374.6,209,374.5z M213.7,370.5l-0.8,0.8
			c-0.1-0.1-0.2-0.2-0.5-0.4c-0.4-0.4-0.6-0.8-0.5-1.2c0-0.4,0.2-0.8,0.5-1.1c0.3-0.3,0.6-0.5,1-0.5s0.6,0.1,0.9,0.3
			c0.1,0.1,0.2,0.3,0.3,0.5c0.1,0.2,0.1,0.4,0.1,0.6C214.3,369.8,214,370.1,213.7,370.5L213.7,370.5z M214.6,378.9
			c-1,0.2-1.9,0-2.6-0.7c-0.5-0.5-0.8-1-0.8-1.6s0.2-1.2,0.7-1.8l2.9-2.9c0.5-0.5,1.1-0.8,1.8-0.8s1.1,0.3,1.6,0.8
			c0.7,0.7,0.9,1.5,0.7,2.6c-0.2,1-0.7,2-1.6,2.9C216.4,378.1,215.5,378.7,214.6,378.9L214.6,378.9z"/>
		<path id="path28" inkscape:connector-curvature="0" class="st0" d="M217.1,365.6c0-0.4,0.1-0.7,0.4-1c0.4-0.4,0.9-0.4,1.6-0.2
			c0.7,0.2,1.6,0.9,2.7,1.9c1,1,1.6,2,2,2.7c0.2,0.7,0.2,1.3-0.2,1.6c-0.3,0.3-0.6,0.4-1,0.4l0.1,1.8c0.9,0.1,1.8-0.2,2.3-0.9
			c0.5-0.5,0.8-1.1,0.9-1.9c0.1-0.7,0-1.5-0.4-2.4s-1.1-1.9-2.1-2.9c-1-1-2-1.6-2.9-2.1c-0.9-0.4-1.8-0.5-2.4-0.3
			c-0.7,0.1-1.3,0.5-1.9,1c-0.6,0.6-0.9,1.4-0.9,2.3H217.1z"/>
		<path id="path30" inkscape:connector-curvature="0" class="st0" d="M194.5,425.5c0.5,0.9,1.1,1.9,2,2.7c1.1,1.1,2.3,1.8,3.5,2
			c1.1,0.1,2.1-0.2,3.1-1.1c0.8-0.8,1.2-1.9,1-3c-0.1-1.1-0.8-2.2-2-3.4c-1.9-1.9-3.9-2.7-6.1-2.4c0.3-0.6,0.6-1.1,1.1-1.6
			c1.1-1.1,2.2-1.6,3.6-1.6c1.3,0,2.6,0.6,3.7,1.9c0.8,0.8,1.3,1.6,1.4,2.6c0.2,0.9,0,1.8-0.5,2.3l1.5,1.1c0.9-1.2,1.2-2.4,1-3.9
			c-0.2-1.4-0.9-2.7-2.1-3.9c-1.1-1.1-2.2-1.8-3.5-2.1c-1.2-0.3-2.3-0.2-3.5,0.2c-1.1,0.4-2.1,1-3,2c-1,1.1-1.8,2.2-2.1,3.6
			c-0.7,0.3-1.4,0.6-2.1,1c-0.6,0.4-1.2,0.9-1.6,1.3c-0.9,0.9-1.5,2-2.1,3.2c-0.4,1.2-0.5,2.4-0.3,3.9c0.3,1.3,1,2.6,2.1,3.8
			c0.8,0.8,1.6,1.3,2.4,1.8c0.8,0.4,1.6,0.5,2.4,0.5c0.8,0,1.5-0.4,2.1-1c0.8-0.8,1.1-1.6,1-2.7c-0.1-1-0.6-2.1-1.5-3
			c-0.6-0.6-1.3-1-2-1.3c-0.7-0.2-1.3-0.3-2-0.1c-0.6,0.1-1.1,0.4-1.5,0.8c-0.5,0.5-0.7,1-0.8,1.8c-0.5-1.1-0.6-2.2-0.4-3.3
			c0.3-1.1,0.7-2.1,1.4-2.8c0.7-0.7,1.5-1.3,2.3-1.6C193.7,423.5,194,424.6,194.5,425.5z M200.5,424.2c0.7,0.7,1.2,1.3,1.4,2
			c0.3,0.6,0.2,1.1-0.2,1.5c-0.4,0.4-1,0.5-1.6,0.3c-0.7-0.2-1.3-0.7-2.1-1.4c-0.7-0.7-1.2-1.4-1.6-2.1c-0.4-0.8-0.7-1.5-0.7-2.3
			C197.4,422,199,422.7,200.5,424.2z M193.3,429.6c0.5,0.1,1.1,0.4,1.6,1c0.5,0.5,0.9,1,1.1,1.6c0.2,0.6,0.1,1.1-0.2,1.4
			c-0.7,0.7-1.8,0.5-3.1-0.5c-0.6-0.5-1-1.1-1.1-1.8c-0.1-0.6,0-1.1,0.4-1.5C192.3,429.6,192.7,429.5,193.3,429.6z"/>
		<polygon id="polygon32" class="st0" points="211.7,419.2 220.9,409.9 219.6,408.7 212,416.3 204.3,408.8 202.8,410.3 		"/>
		<path id="path34" inkscape:connector-curvature="0" class="st0" d="M226.9,402.8c-0.1-1-0.7-2.1-1.8-3.1c-1-1-2.1-1.6-3.3-1.9
			c-1.1-0.2-2.1,0.1-2.9,0.9c-0.6,0.6-0.9,1.3-0.9,2.1l-0.1-0.1c-1.1-1-1.9-2.1-2.3-3.4c-0.5-1.1-0.7-2.2-0.6-3.3
			c0.1-1,0.5-2,1.2-2.6c0.8-0.9,1.9-1.1,3.1-0.9c1.1,0.3,2.6,1.1,4.1,2.7l7,6.9l1.5-1.6l-7-6.8c-2-2-3.8-3.1-5.4-3.4
			c-1.6-0.3-3.2,0.3-4.6,1.8c-1,1-1.6,2.2-1.9,3.7c-0.2,1.4,0,2.9,0.6,4.4c0.6,1.5,1.8,3.1,3.2,4.5c4,4,7.1,4.9,9,3
			C226.8,404.9,227.2,404,226.9,402.8L226.9,402.8z M223.4,404.8c-0.5-0.1-1.1-0.4-1.8-0.9l0,0c-0.1-0.1-0.2-0.2-0.4-0.3
			c-0.6-0.6-1-1.2-1.1-1.8c-0.1-0.6,0-1,0.3-1.4c0.4-0.4,0.9-0.5,1.5-0.3c0.6,0.2,1.2,0.6,1.9,1.2c0.6,0.6,1,1.1,1.2,1.8
			c0.2,0.6,0.1,1-0.3,1.4C224.3,404.8,223.9,404.9,223.4,404.8L223.4,404.8z"/>
		<polygon id="polygon36" class="st0" points="233,379.8 231.4,381.4 239,389 234.2,393.8 226.5,386.3 225,387.9 233.9,396.7 
			241.9,388.6 		"/>
		<polygon id="polygon38" class="st0" points="243.2,369.4 234.9,377.9 243.9,386.7 245.5,385 237.8,377.6 241,374.3 248.7,381.9 
			250.2,380.2 242.6,372.6 244.6,370.7 		"/>
		<path id="path40" inkscape:connector-curvature="0" class="st0" d="M263.6,415.3c0.3,0.7,0.7,1.3,1.2,2c0.9,0.9,1.9,1.4,2.8,1.4
			c0.9,0.1,1.8-0.3,2.6-1c0.6-0.6,0.9-1.3,0.9-2.1c0-0.8-0.2-1.4-0.7-2.1c-0.3-0.3-0.7-0.5-1.1-0.6s-0.9-0.1-1.3,0
			c-0.5,0.1-0.9,0.4-1.3,0.8c-0.2,0.2-0.4,0.5-0.5,0.8s-0.2,0.6-0.2,0.8c-0.3-0.5-0.5-1.1-0.4-1.6c0.1-0.6,0.4-1.1,0.9-1.8
			c0.7-0.7,1.6-1,2.7-0.9c1,0.1,2.1,0.6,2.9,1.5c0.6,0.6,1.1,1.3,1.3,2.1c0.3,0.8,0.3,1.5,0.2,2.2s-0.4,1.3-0.9,1.9
			c-0.4,0.4-0.8,0.7-1.2,0.8s-0.9,0.2-1.4,0.2l-0.2,2c0.8,0,1.6-0.1,2.3-0.4c0.7-0.3,1.3-0.7,2-1.3c0.8-0.8,1.3-1.8,1.5-2.9
			s0.2-2.1-0.2-3.3c-0.3-1.1-0.9-2.1-1.9-3c-0.9-0.9-1.9-1.5-2.9-1.9c-1-0.3-2-0.4-3-0.1c-0.9,0.2-1.9,0.8-2.7,1.6
			c-0.8,0.8-1.2,1.5-1.4,2.4C263.3,413.8,263.4,414.6,263.6,415.3L263.6,415.3z M268.2,414.5c0.3,0,0.6,0.1,0.8,0.3
			c0.2,0.2,0.3,0.5,0.3,0.8s-0.1,0.6-0.4,0.8c-0.2,0.2-0.5,0.3-0.8,0.4c-0.3,0-0.6-0.1-0.8-0.3c-0.2-0.2-0.3-0.5-0.3-0.8
			s0.1-0.6,0.4-0.8C267.7,414.7,267.9,414.5,268.2,414.5z"/>
		<path id="path42" inkscape:connector-curvature="0" class="st0" d="M255.8,423.2c0.3,0.7,0.7,1.3,1.2,2c0.9,0.9,1.9,1.4,2.8,1.4
			c0.9,0.1,1.8-0.3,2.6-1c0.6-0.6,0.9-1.3,0.9-2.1s-0.2-1.4-0.7-2.1c-0.3-0.3-0.7-0.5-1.1-0.6s-0.9-0.1-1.3,0
			c-0.5,0.1-0.9,0.4-1.3,0.8c-0.2,0.2-0.4,0.5-0.5,0.8c-0.1,0.3-0.2,0.6-0.2,0.8c-0.3-0.5-0.5-1.1-0.4-1.6c0.1-0.6,0.4-1.1,0.9-1.8
			c0.7-0.7,1.6-1,2.7-0.9c1,0.1,2.1,0.6,2.9,1.5c0.6,0.6,1.1,1.3,1.3,2.1c0.3,0.8,0.3,1.5,0.2,2.2s-0.4,1.3-0.9,1.9
			c-0.4,0.4-0.8,0.7-1.2,0.8s-0.9,0.2-1.4,0.2l-0.2,2c0.8,0,1.6-0.1,2.3-0.4c0.7-0.3,1.3-0.7,2-1.3c0.8-0.8,1.3-1.8,1.5-2.9
			s0.2-2.1-0.2-3.3c-0.3-1.1-0.9-2.1-1.9-3c-0.9-0.9-1.9-1.5-2.9-1.9c-1-0.3-2-0.4-3-0.1c-0.9,0.2-1.9,0.8-2.7,1.6
			c-0.8,0.8-1.2,1.5-1.4,2.4C255.5,421.7,255.5,422.5,255.8,423.2L255.8,423.2z M260.5,422.4c0.3,0,0.6,0.1,0.8,0.3
			c0.2,0.2,0.3,0.5,0.3,0.8s-0.1,0.6-0.4,0.8c-0.2,0.2-0.5,0.3-0.8,0.4c-0.3,0-0.6-0.1-0.8-0.3c-0.2-0.2-0.3-0.5-0.3-0.8
			s0.1-0.6,0.4-0.8C259.8,422.6,260.1,422.4,260.5,422.4z"/>
		<path id="path44" inkscape:connector-curvature="0" class="st0" d="M262.8,435.6c0.3-1,0.2-2.1-0.2-3.1l-2.1,1.1
			c0.2,0.5,0.2,1.1,0.1,1.8c-0.2,0.6-0.4,1.1-0.9,1.5c-0.9,0.9-2.1,1.3-3.3,1.1c-1.2-0.2-2.8-1.1-4.6-3c-1.4-1.3-2.2-2.7-2.4-3.8
			c-0.2-1.1,0.1-2.2,1.1-3.2c0.8-0.8,1.6-1.2,2.6-1.1s1.6,0.5,2.3,1.1c0.6,0.6,0.9,1.2,1,1.9c0.1,0.6,0,1.1-0.4,1.5
			c-0.2,0.2-0.5,0.4-0.8,0.5l0.7,1.9c0.7-0.2,1.2-0.5,1.8-1c0.5-0.5,0.8-1.1,1-1.9c0.1-0.7,0.1-1.4-0.2-2.2
			c-0.3-0.7-0.8-1.5-1.4-2.1c-0.6-0.6-1.4-1.1-2.2-1.4c-0.8-0.3-1.8-0.4-2.8-0.1c-1,0.2-2,0.8-2.9,1.8c-3,3.1-2.7,6.4,1.1,10.2
			c4.3,4.2,7.9,4.7,11.1,1.6C261.9,437.6,262.5,436.7,262.8,435.6z"/>
		<path id="path46" inkscape:connector-curvature="0" class="st0" d="M244.8,445.1l-0.2,2c0.8,0,1.6-0.1,2.3-0.4
			c0.7-0.3,1.3-0.7,2-1.3c0.8-0.8,1.3-1.8,1.5-2.9c0.2-1.1,0.2-2.1-0.2-3.3c-0.3-1.1-0.9-2.1-1.9-3c-0.9-0.9-1.9-1.5-2.9-1.9
			c-1-0.3-2-0.4-3-0.1c-0.9,0.2-1.9,0.8-2.7,1.6c-0.8,0.8-1.2,1.5-1.4,2.4c-0.2,0.8-0.1,1.6,0.1,2.3c0.3,0.7,0.7,1.3,1.2,2
			c0.9,0.9,1.9,1.4,2.8,1.4c0.9,0.1,1.8-0.3,2.6-1c0.6-0.6,0.9-1.3,0.9-2.1s-0.2-1.4-0.7-2.1c-0.3-0.3-0.7-0.5-1.1-0.6
			c-0.4-0.1-0.9-0.1-1.3,0c-0.5,0.1-0.9,0.4-1.3,0.8c-0.2,0.2-0.4,0.5-0.5,0.8c-0.1,0.3-0.2,0.6-0.2,0.8c-0.3-0.5-0.5-1.1-0.4-1.6
			c0.1-0.6,0.4-1.1,0.9-1.8c0.7-0.7,1.6-1,2.7-0.9c1,0.1,2.1,0.6,2.9,1.5c0.6,0.6,1.1,1.3,1.3,2.1c0.3,0.8,0.3,1.5,0.2,2.2
			c-0.1,0.7-0.4,1.3-0.9,1.9c-0.4,0.4-0.8,0.7-1.2,0.8C245.8,445,245.3,445.1,244.8,445.1L244.8,445.1z M243.2,439.8
			c0.3,0,0.6,0.1,0.8,0.3c0.2,0.2,0.3,0.5,0.3,0.8s-0.1,0.6-0.4,0.8c-0.2,0.2-0.5,0.3-0.8,0.4c-0.3,0-0.6-0.1-0.8-0.3
			c-0.2-0.2-0.3-0.5-0.3-0.8s0.1-0.6,0.4-0.8C242.7,439.9,242.9,439.8,243.2,439.8z"/>
		<path id="path48" inkscape:connector-curvature="0" class="st0" d="M242.5,452.2c0.7-0.7,1-1.4,1.1-2.2c0-0.8-0.2-1.5-0.8-2.1
			c-0.3-0.2-0.5-0.4-0.9-0.6c-0.3-0.1-0.7-0.2-1.1-0.2c0.1-0.6,0-1.2-0.2-1.9c-0.2-0.6-0.6-1.1-1.1-1.6c-0.8-0.8-1.6-1.2-2.7-1.3
			c-1-0.1-2,0-3,0.4c-1,0.4-2,1-2.8,2c-0.8,0.8-1.4,1.8-1.9,2.8c-0.4,1-0.5,2.1-0.4,3c0.1,1,0.6,1.9,1.4,2.7c0.5,0.5,1,0.8,1.6,1
			c0.6,0.2,1.2,0.3,1.9,0.2c0,0.4,0.1,0.7,0.2,1.1c0.2,0.3,0.3,0.6,0.6,0.9c0.6,0.6,1.3,0.9,2.1,0.8s1.6-0.4,2.2-1.1
			c0.3-0.4,0.6-0.7,0.8-1.2c0.2-0.4,0.3-0.9,0.3-1.3c0.4,0,0.9-0.1,1.3-0.3S242.2,452.5,242.5,452.2z M235.1,451.4
			c-0.5,0.5-1.1,0.8-1.8,0.8s-1.1-0.3-1.6-0.8c-0.7-0.7-0.9-1.5-0.7-2.6c0.2-1,0.7-2,1.6-2.9c0.9-0.9,1.9-1.4,2.9-1.6s1.9,0,2.6,0.7
			c0.5,0.5,0.8,1,0.8,1.6s-0.2,1.2-0.7,1.8L235.1,451.4z M236.7,455.1c-0.3,0-0.6-0.1-0.9-0.3c-0.1-0.1-0.2-0.3-0.3-0.5
			c-0.1-0.2-0.1-0.4-0.1-0.6c0.3-0.2,0.7-0.5,1-0.8l0.8-0.8c0.1,0.1,0.2,0.2,0.5,0.4c0.4,0.4,0.6,0.8,0.5,1.2c0,0.4-0.2,0.8-0.5,1.1
			C237.4,454.8,237,455.1,236.7,455.1L236.7,455.1z M240.1,451.5c-0.4,0-0.8-0.1-1.2-0.5c-0.2-0.2-0.3-0.4-0.4-0.4l0.8-0.8
			c0.3-0.3,0.6-0.7,0.8-1c0.2,0,0.4,0,0.6,0.1s0.4,0.2,0.5,0.3c0.3,0.3,0.4,0.6,0.4,0.9s-0.2,0.7-0.5,1
			C240.9,451.3,240.6,451.5,240.1,451.5z"/>
		<path id="path50" inkscape:connector-curvature="0" class="st0" d="M232.7,457.6c0,0.4-0.1,0.7-0.4,1c-0.4,0.4-0.9,0.4-1.6,0.2
			s-1.6-0.9-2.7-1.9c-1-1-1.6-2-2-2.7c-0.2-0.7-0.2-1.3,0.2-1.6c0.3-0.3,0.6-0.4,1-0.4l-0.1-1.8c-0.9-0.1-1.8,0.2-2.3,0.9
			c-0.5,0.5-0.8,1.1-0.9,1.9c-0.1,0.7,0,1.5,0.4,2.4s1.1,1.9,2.1,2.9c1,1,2,1.6,2.9,2.1s1.8,0.5,2.4,0.3c0.7-0.1,1.3-0.5,1.9-1
			c0.6-0.6,0.9-1.4,0.9-2.3L232.7,457.6L232.7,457.6z"/>
		<path id="path52" inkscape:connector-curvature="0" class="st0" d="M255.9,398.4c-0.5-0.9-1.1-1.9-2-2.7c-1.1-1.1-2.3-1.8-3.5-2
			c-1.1-0.1-2.1,0.2-3.1,1.1c-0.8,0.8-1.2,1.9-1,3c0.1,1.1,0.8,2.2,2,3.4c1.9,1.9,3.9,2.7,6.1,2.4c-0.3,0.6-0.6,1.1-1.1,1.6
			c-1.1,1.1-2.2,1.6-3.6,1.6c-1.3,0-2.6-0.6-3.7-1.9c-0.8-0.8-1.3-1.6-1.4-2.6c-0.2-0.9,0-1.8,0.5-2.3l-1.5-1.1
			c-0.9,1.2-1.2,2.4-1,3.9c0.2,1.4,0.9,2.7,2.1,3.9c1.1,1.1,2.2,1.8,3.5,2.1c1.2,0.3,2.3,0.2,3.5-0.2c1.1-0.4,2.1-1,3-2
			c1-1.1,1.8-2.2,2.1-3.6c0.7-0.3,1.4-0.6,2.1-1c0.6-0.4,1.2-0.9,1.6-1.3c0.9-0.9,1.5-2,2.1-3.2c0.4-1.2,0.5-2.4,0.3-3.9
			c-0.3-1.3-1-2.6-2.1-3.8c-0.8-0.8-1.6-1.3-2.4-1.8s-1.6-0.5-2.4-0.5c-0.8,0.1-1.5,0.4-2.1,1c-0.8,0.8-1.1,1.6-1,2.7
			c0.1,1,0.6,2.1,1.5,3c0.6,0.6,1.3,1,2,1.3c0.7,0.2,1.3,0.3,2,0.1c0.6-0.1,1.1-0.4,1.5-0.8c0.5-0.5,0.7-1,0.8-1.8
			c0.5,1.1,0.6,2.2,0.4,3.3c-0.3,1.1-0.7,2.1-1.4,2.8c-0.7,0.7-1.5,1.3-2.3,1.6C256.6,400.2,256.4,399.3,255.9,398.4z M249.9,399.6
			c-0.7-0.7-1.2-1.3-1.4-2c-0.3-0.6-0.2-1.1,0.2-1.5c0.4-0.4,1-0.5,1.6-0.3c0.7,0.2,1.3,0.7,2.1,1.4c0.7,0.7,1.2,1.4,1.6,2.1
			c0.4,0.8,0.7,1.5,0.7,2.3C253.1,401.8,251.4,401.1,249.9,399.6z M257.1,394.3c-0.5-0.1-1.1-0.4-1.6-1c-0.5-0.5-0.9-1-1.1-1.6
			c-0.2-0.6-0.1-1.1,0.2-1.4c0.7-0.7,1.8-0.5,3.1,0.5c0.6,0.5,1,1.1,1.1,1.8s0,1.1-0.4,1.5C258.1,394.3,257.6,394.4,257.1,394.3z"/>
		<polygon id="polygon54" class="st0" points="238.7,404.6 229.5,413.8 230.8,415.1 238.4,407.5 246,415 247.5,413.4 		"/>
		<path id="path56" inkscape:connector-curvature="0" class="st0" d="M236.6,425.6c-0.6-1.5-1.8-3.1-3.2-4.5c-4-4-7.1-4.9-9-3
			c-0.8,0.8-1.1,1.8-1,2.9c0.1,1,0.7,2.1,1.8,3.1c1,1,2.1,1.6,3.3,1.9c1.1,0.2,2.1-0.1,2.9-0.9c0.6-0.6,0.9-1.3,0.9-2.1l0.1,0.1
			c1.1,1,1.9,2.1,2.3,3.4c0.5,1.1,0.7,2.2,0.6,3.3c-0.1,1-0.5,2-1.2,2.6c-0.8,0.9-1.9,1.1-3.1,0.9c-1.1-0.3-2.6-1.1-4.1-2.7l-7-6.9
			l-1.5,1.6l7.1,7c2,2,3.8,3.1,5.4,3.4c1.6,0.3,3.2-0.3,4.6-1.8c1-1,1.6-2.2,1.9-3.7C237.4,428.6,237.2,427.1,236.6,425.6
			L236.6,425.6z M228.4,423.8c-0.6-0.2-1.2-0.6-1.9-1.2c-0.6-0.6-1-1.1-1.2-1.8c-0.2-0.6-0.1-1,0.3-1.4s0.8-0.5,1.3-0.3
			c0.5,0.1,1.1,0.4,1.8,0.9l0,0c0.1,0.1,0.2,0.2,0.4,0.3c0.6,0.6,1,1.2,1.1,1.8c0.1,0.6,0,1-0.3,1.4
			C229.5,423.9,229,424,228.4,423.8L228.4,423.8z"/>
		<polygon id="polygon58" class="st0" points="217.4,443.9 219,442.3 211.4,434.8 216.2,429.9 223.8,437.5 225.4,435.8 216.4,427 
			208.4,435.1 		"/>
		<polygon id="polygon60" class="st0" points="207.1,454.4 215.4,446 206.5,437.1 204.9,438.7 212.5,446.3 209.3,449.4 201.7,442 
			200.1,443.5 207.8,451.1 205.8,453.1 		"/>
	</g>
	<g class="st1">
		<path d="M185.1,780.2c0.1,0.1,0.1,0.2,0.1,0.4h-4.7v-0.5h1.3l-1.5-3.8h-4l-1.4,3.8h1c0.2,0,0.3,0.1,0.4,0.1s0.1,0.2,0.1,0.4h-3.5
			v-0.5h1.2l4.3-11.2h1.1l4.5,11.2h0.6C184.9,780.1,185.1,780.1,185.1,780.2z M180.1,775.7l-1.8-4.6l-1.8,4.6H180.1z"/>
		<path d="M189.1,777.1v2.9h1c0.2,0,0.3,0.1,0.4,0.1s0.1,0.2,0.1,0.4h-4.9v-0.5c0.5,0,0.9-0.1,1.1-0.2c0.2-0.2,0.3-0.4,0.3-0.9
			v-10.6h-1.5v-0.5h3.5v8.5l3.8-3.6h-1.4v-0.5h3.3c0,0.2-0.1,0.3-0.1,0.4c-0.1,0.1-0.2,0.1-0.4,0.1c-0.3,0-0.5,0.1-0.6,0.2
			c-0.2,0.1-0.4,0.3-0.7,0.6l-1.6,1.5l3.1,5.1h0.5c0.2,0,0.3,0.1,0.4,0.1c0.1,0.1,0.1,0.2,0.1,0.4h-2.9l-2.6-4.3L189.1,777.1z"/>
		<path d="M202.5,780.6l-0.1-1.8c-0.3,0.6-0.7,1.1-1.2,1.5c-0.5,0.4-1.1,0.5-1.7,0.5c-1.9,0-2.8-1.1-2.8-3.3v-4.8h-1.3v-0.5h3.3v5.6
			c0,0.7,0.2,1.2,0.4,1.5c0.3,0.3,0.7,0.5,1.2,0.5c0.3,0,0.6-0.1,1-0.3s0.5-0.5,0.7-0.9c0.2-0.4,0.3-0.9,0.3-1.4v-4.6H201v-0.5h3.2
			v7.9h0.8c0.2,0,0.3,0.1,0.4,0.1c0.1,0.1,0.1,0.2,0.1,0.4L202.5,780.6L202.5,780.6z"/>
		<path d="M213.5,772.4c0.3,0.2,0.4,0.5,0.4,0.9c0,0.3-0.1,0.5-0.3,0.7c-0.2,0.2-0.4,0.3-0.7,0.3c-0.3,0-0.4-0.1-0.6-0.2
			c-0.1-0.1-0.3-0.3-0.4-0.5c-0.1-0.2-0.2-0.3-0.3-0.4c-0.1-0.1-0.2-0.1-0.3-0.1s-0.3,0.1-0.6,0.3c-0.2,0.2-0.4,0.5-0.6,0.9
			s-0.3,0.9-0.4,1.5v4.3h1.4c0.2,0,0.3,0.1,0.4,0.1c0.1,0.1,0.1,0.2,0.1,0.4h-5.2v-0.5c0.5,0,0.9-0.1,1-0.2c0.2-0.2,0.3-0.4,0.3-0.9
			v-6.2h-1.3v-0.5h3.1l0.1,1.9c0.3-0.6,0.6-1.1,1.2-1.5c0.5-0.4,1.1-0.5,1.6-0.5C212.9,772.1,213.3,772.2,213.5,772.4z"/>
		<path d="M221.1,780.6l-0.1-1.8c-0.3,0.6-0.7,1.1-1.2,1.5c-0.5,0.4-1.1,0.5-1.7,0.5c-1.9,0-2.8-1.1-2.8-3.3v-4.8h-1.3v-0.5h3.3v5.6
			c0,0.7,0.2,1.2,0.4,1.5c0.3,0.3,0.7,0.5,1.2,0.5c0.3,0,0.6-0.1,1-0.3s0.5-0.5,0.7-0.9c0.2-0.4,0.3-0.9,0.3-1.4v-4.6h-1.3v-0.5h3.2
			v7.9h0.8c0.2,0,0.3,0.1,0.4,0.1c0.1,0.1,0.1,0.2,0.1,0.4L221.1,780.6L221.1,780.6z"/>
		<path d="M232.3,779.9c-0.9-0.6-1.6-1.3-2.1-2.2c-0.5-1-0.7-1.9-0.7-3s0.2-2,0.7-2.9c0.5-0.9,1.2-1.6,2.1-2.2
			c0.9-0.6,2-0.9,3.3-0.9c0.7,0,1.5,0.1,2.1,0.3c0.6,0.2,1.2,0.4,1.6,0.7c0-0.4,0-0.6,0.1-0.7c0.1-0.1,0.3-0.2,0.5-0.2l0.1,3.7h-0.6
			c-0.3-1.1-0.7-1.9-1.4-2.4c-0.6-0.5-1.4-0.8-2.3-0.8c-1.2,0-2.1,0.5-2.7,1.4c-0.6,0.9-1,2.3-1,4c0,1.8,0.3,3.1,0.9,4.1
			c0.6,1,1.5,1.4,2.8,1.4c1,0,1.8-0.3,2.4-0.8c0.6-0.5,1.1-1.4,1.4-2.5h0.6v3.8c-0.3,0-0.4-0.1-0.5-0.2s-0.1-0.4-0.1-0.7
			c-1.2,0.7-2.5,1-3.8,1C234.3,780.8,233.2,780.5,232.3,779.9z"/>
		<path d="M249.4,778.7c-0.4,0.7-0.9,1.2-1.6,1.6c-0.7,0.4-1.4,0.5-2.2,0.5c-0.8,0-1.5-0.2-2.2-0.5c-0.6-0.4-1.2-0.9-1.5-1.6
			c-0.4-0.7-0.6-1.4-0.6-2.3c0-0.9,0.2-1.6,0.6-2.3c0.4-0.6,1-1.2,1.6-1.5c0.7-0.4,1.4-0.5,2.2-0.5c0.8,0,1.5,0.2,2.2,0.5
			c0.6,0.4,1.2,0.9,1.5,1.5s0.6,1.4,0.6,2.3C250,777.2,249.9,778,249.4,778.7z M247.4,779.3c0.3-0.7,0.5-1.6,0.5-3
			c0-1.3-0.2-2.2-0.5-2.9c-0.3-0.6-0.9-1-1.7-1c-0.8,0-1.3,0.3-1.7,1c-0.3,0.6-0.5,1.6-0.5,2.9s0.2,2.2,0.5,2.9c0.3,0.6,0.9,1,1.7,1
			C246.5,780.3,247,779.9,247.4,779.3z"/>
		<path d="M251.2,780.6v-0.5c0.6,0,1-0.1,1.2-0.2c0.2-0.2,0.3-0.4,0.3-0.9v-10.6h-1.5v-0.5h3.5v12.2h1c0.2,0,0.3,0.1,0.4,0.1
			c0.1,0.1,0.1,0.2,0.1,0.4H251.2L251.2,780.6z"/>
		<path d="M257,780.6v-0.5c0.6,0,1-0.1,1.2-0.2c0.2-0.2,0.3-0.4,0.3-0.9v-10.6H257v-0.5h3.5v12.2h1c0.2,0,0.3,0.1,0.4,0.1
			s0.1,0.2,0.1,0.4H257L257,780.6z"/>
		<path d="M269.4,779.7c0.5-0.3,0.8-0.7,1.1-1.3l0.5,0.2c-0.3,0.7-0.7,1.2-1.3,1.6c-0.6,0.4-1.3,0.5-2.2,0.5c-0.8,0-1.5-0.2-2.1-0.5
			s-1.2-0.9-1.5-1.5s-0.6-1.4-0.6-2.4c0-0.9,0.2-1.6,0.5-2.3c0.4-0.6,0.9-1.2,1.5-1.5c0.6-0.4,1.4-0.5,2.2-0.5
			c0.7,0,1.3,0.1,1.9,0.3c0.6,0.2,1,0.5,1.3,1c0.3,0.4,0.5,0.9,0.5,1.4c0,0.6-0.3,1.1-0.9,1.3s-1.5,0.3-2.8,0.3l-2.1-0.1
			c0.1,2.6,0.9,3.9,2.5,3.9C268.4,780.2,268.9,780.1,269.4,779.7z M265.9,773.3c-0.4,0.5-0.6,1.3-0.6,2.4l1.6,0.1
			c0.7,0,1.3-0.1,1.6-0.2s0.4-0.5,0.4-1c0-0.6-0.2-1.1-0.4-1.5c-0.3-0.4-0.7-0.6-1.2-0.6C266.8,772.5,266.4,772.8,265.9,773.3z"/>
		<path d="M278.4,772.3c0.5,0.2,0.9,0.5,1.2,0.8c0.3,0.3,0.4,0.6,0.4,1c0,0.3-0.1,0.5-0.3,0.6s-0.4,0.3-0.7,0.3
			c-0.4,0-0.7-0.1-0.8-0.3c-0.1-0.2-0.2-0.5-0.3-0.9c-0.1-0.4-0.2-0.8-0.3-1c-0.2-0.2-0.5-0.3-1-0.3c-1.4,0-2.2,1.3-2.2,3.9
			c0,1.3,0.2,2.3,0.6,2.9c0.4,0.6,1,0.9,1.8,0.9c0.6,0,1.2-0.2,1.7-0.5c0.5-0.3,0.9-0.7,1.1-1.3l0.5,0.2c-0.3,0.7-0.7,1.2-1.4,1.6
			c-0.6,0.4-1.4,0.5-2.2,0.5s-1.5-0.2-2.2-0.5s-1.2-0.8-1.5-1.5c-0.4-0.7-0.6-1.4-0.6-2.3c0-0.9,0.2-1.6,0.5-2.3
			c0.4-0.7,0.9-1.2,1.5-1.5c0.6-0.4,1.4-0.5,2.2-0.5C277.3,772,277.9,772.1,278.4,772.3z"/>
		<path d="M286.9,778.5c-0.2,0.8-0.4,1.4-0.8,1.8c-0.4,0.3-0.9,0.5-1.5,0.5c-0.7,0-1.3-0.2-1.8-0.6c-0.5-0.4-0.7-1.2-0.7-2.2v-5.2
			h-1.3v-0.5h1.3v-1.9l2-0.4v2.3h2.8v0.5H284v6c0,0.5,0.1,0.9,0.3,1.1c0.2,0.3,0.4,0.4,0.7,0.4c0.6,0,1.1-0.6,1.4-1.8L286.9,778.5z"
			/>
		<path d="M287.6,780.6v-0.5c0.5,0,0.9-0.1,1.1-0.2c0.2-0.2,0.3-0.4,0.3-0.9v-6.2h-1.3v-0.5h3.3v7.9h0.9c0.2,0,0.3,0.1,0.4,0.1
			s0.1,0.2,0.1,0.4H287.6L287.6,780.6z M289,770.4c-0.3-0.3-0.4-0.5-0.4-0.9s0.1-0.6,0.4-0.9c0.3-0.3,0.5-0.4,0.9-0.4
			c0.3,0,0.6,0.1,0.9,0.4c0.3,0.3,0.4,0.5,0.4,0.9s-0.1,0.6-0.4,0.9c-0.3,0.3-0.5,0.4-0.9,0.4S289.2,770.6,289,770.4z"/>
		<path d="M301.4,772.2c0,0.2,0,0.4-0.1,0.4s-0.2,0.1-0.4,0.1s-0.3,0.1-0.4,0.2c-0.1,0.1-0.2,0.3-0.3,0.5l-2.8,7.3h-0.5
			c-0.3,0-0.4-0.1-0.6-0.1c-0.2-0.1-0.3-0.2-0.4-0.4c-0.1-0.2-0.3-0.5-0.4-0.9l-2.4-6.5h-0.8v-0.5h4.1v0.5h-1.3l2.3,6.3l2.4-6.3
			h-1.5v-0.5L301.4,772.2L301.4,772.2z"/>
		<path d="M307.9,779.7c0.5-0.3,0.8-0.7,1.1-1.3l0.5,0.2c-0.3,0.7-0.7,1.2-1.3,1.6c-0.6,0.4-1.3,0.5-2.2,0.5c-0.8,0-1.5-0.2-2.1-0.5
			s-1.2-0.9-1.5-1.5s-0.6-1.4-0.6-2.4c0-0.9,0.2-1.6,0.5-2.3c0.4-0.6,0.9-1.2,1.5-1.5c0.6-0.4,1.4-0.5,2.2-0.5
			c0.7,0,1.3,0.1,1.9,0.3c0.6,0.2,1,0.5,1.3,1c0.3,0.4,0.5,0.9,0.5,1.4c0,0.6-0.3,1.1-0.9,1.3s-1.5,0.3-2.8,0.3l-2.1-0.1
			c0.1,2.6,0.9,3.9,2.5,3.9C306.9,780.2,307.5,780.1,307.9,779.7z M304.5,773.3c-0.4,0.5-0.6,1.3-0.6,2.4l1.6,0.1
			c0.7,0,1.3-0.1,1.6-0.2s0.4-0.5,0.4-1c0-0.6-0.2-1.1-0.4-1.5c-0.3-0.4-0.7-0.6-1.2-0.6C305.3,772.5,304.9,772.8,304.5,773.3z"/>
	</g>
	<g class="st1">
		<path d="M180.4,803.7c1.2-0.2,2.1-0.5,2.9-1.1v0.7c-0.7,0.5-1.7,0.8-2.9,1v4.6h-0.6v-4.6c-0.5,0.1-1,0.1-1.6,0.1
			c-1.7,0-3-0.3-3.9-1c-0.9-0.6-1.4-1.5-1.4-2.6c0-1,0.3-1.7,1-2.3c0.6-0.6,1.5-0.9,2.6-0.9h2.4c0-0.5-0.2-0.9-0.4-1.2
			c-0.3-0.3-0.6-0.5-1.1-0.5c-0.3,0-0.6,0.1-0.7,0.2c-0.1,0.1-0.3,0.3-0.4,0.5c-0.2,0.4-0.5,0.6-1,0.6c-0.2,0-0.4-0.1-0.6-0.2
			c-0.2-0.2-0.3-0.4-0.3-0.6c0-0.4,0.2-0.7,0.6-1c0.4-0.3,1-0.4,1.6-0.4c0.9,0,1.6,0.3,2.1,0.8s0.7,1.3,0.7,2.2v0.1h-1.4
			c-1.1,0-1.8,0.3-2.2,0.9c-0.4,0.5-0.6,1.1-0.6,1.8c0,0.9,0.3,1.5,0.9,2.1c0.6,0.5,1.5,0.8,2.6,0.8h0.9v-6c0-0.9,0.2-1.4,0.6-1.9
			c0.3-0.4,0.7-0.6,1.2-0.7l0.5,0.2l-0.2,0.1c-0.1,0.1-0.2,0.2-0.2,0.4c0,0.1,0.1,0.3,0.2,0.4s0.3,0.3,0.5,0.4
			c0.4,0.3,0.6,0.5,0.9,0.8c0.2,0.3,0.3,0.6,0.3,1c0,0.5-0.2,1-0.6,1.3s-0.9,0.5-1.5,0.5c-0.3,0-0.5-0.1-0.9-0.1L180.4,803.7
			L180.4,803.7z M180.6,796.7c-0.1,0.3-0.1,0.6-0.1,1v1.7c0.1,0.1,0.2,0.1,0.4,0.1c0.3,0,0.5-0.1,0.7-0.3c0.2-0.2,0.3-0.5,0.3-0.9
			c0-0.3,0-0.5-0.1-0.6c-0.1-0.2-0.1-0.4-0.3-0.5c-0.1-0.1-0.1-0.1-0.2-0.3c-0.1-0.1-0.2-0.3-0.2-0.4s-0.1-0.3-0.1-0.4V796
			C180.9,796.2,180.7,796.4,180.6,796.7z"/>
		<path d="M199.7,805.9c0,0.4-0.1,0.8-0.3,1.2c-0.2,0.4-0.6,0.7-1,1c-0.4,0.3-1,0.4-1.6,0.4c-0.8,0-1.5-0.2-2-0.6
			c-0.6-0.4-0.9-1-0.9-1.7c0-0.5,0.2-1,0.4-1.3c0.3-0.4,0.6-0.6,1.1-0.9c0.3-0.1,0.5-0.1,0.8-0.1c0.4,0,0.8-0.2,1.1-0.7
			c0.3-0.4,0.4-1,0.4-1.6c0-1-0.3-1.9-0.7-2.6c-0.5-0.7-1.1-1.2-1.9-1.6c-0.8-0.4-1.6-0.5-2.6-0.5c-0.7,0-1.4,0.1-2,0.3
			c-0.6,0.2-1.1,0.5-1.5,0.8c0.5-0.1,1.1-0.2,1.9-0.2c1.3,0,2.4,0.4,3.2,1.1c0.9,0.7,1.2,1.7,1.2,3c0,0.7-0.2,1.3-0.6,1.9
			s-1.1,0.8-1.9,0.8c-1,0-1.7-0.5-2.1-1.4c-0.2,0.4-0.4,0.8-0.8,1c-0.3,0.2-0.7,0.4-1.2,0.4c-0.5,0-0.9-0.1-1.2-0.3
			c-0.3-0.2-0.5-0.4-0.7-0.8c-0.1-0.2-0.2-0.3-0.3-0.4c-0.1-0.1-0.2-0.1-0.3-0.1c-0.2,0-0.4,0.1-0.6,0.3s-0.2,0.5-0.3,1l-0.6-0.2
			c0.1-0.7,0.3-1.5,0.7-2.3s0.7-1.6,1.2-2.1c0.3-0.4,0.5-0.7,0.8-1c0.3-0.3,0.4-0.4,0.5-0.5c0.3-0.4,0.5-0.7,0.5-1.1
			c0-0.2-0.1-0.4-0.2-0.6c-0.1-0.2-0.3-0.2-0.5-0.2c-0.2,0-0.3,0.1-0.5,0.2s-0.3,0.2-0.3,0.4c-0.1,0.1-0.1,0.3-0.1,0.4
			c0,0.2-0.1,0.3-0.1,0.4c-0.1,0.2-0.2,0.3-0.3,0.4s-0.3,0.2-0.5,0.2c-0.3,0-0.6-0.1-0.7-0.3c-0.1-0.2-0.2-0.4-0.2-0.6
			c0-0.6,0.2-1,0.7-1.4c0.5-0.4,1-0.6,1.6-0.6c0.5,0,1,0.2,1.3,0.4c0.3,0.3,0.5,0.7,0.5,1.2c0,0.1,0,0.3,0,0.4
			c0.6-0.6,1.4-1.1,2.3-1.4c0.9-0.3,1.8-0.5,2.7-0.5c1,0,2,0.2,2.8,0.7c0.8,0.4,1.4,1.1,1.9,1.9c0.4,0.8,0.6,1.6,0.6,2.6
			c0,0.7-0.1,1.4-0.4,2s-0.6,1.2-1.1,1.5c-0.5,0.4-1,0.6-1.6,0.6c-0.3,0-0.6,0.1-0.9,0.1c-0.2,0.1-0.4,0.2-0.5,0.4
			c-0.2,0.2-0.2,0.4-0.2,0.6c0,0.4,0.2,0.7,0.6,1c0.4,0.2,0.9,0.4,1.5,0.4s1.2-0.2,1.6-0.4c0.4-0.3,0.6-0.7,0.6-1.1v-0.2h0.6
			C199.7,805.3,199.7,805.5,199.7,805.9z M188.2,798.6c-0.3,0.3-0.7,0.7-1.1,1.3c-0.3,0.4-0.5,0.7-0.6,1c-0.2,0.3-0.3,0.6-0.4,0.9
			c0.2-0.2,0.4-0.2,0.6-0.2s0.3,0.1,0.5,0.1c0.2,0.1,0.3,0.1,0.3,0.1c0.3,0.1,0.5,0.2,0.6,0.2c0.2,0.1,0.4,0.1,0.6,0.1
			c0.5,0,0.9-0.2,1.2-0.4c0.3-0.3,0.4-0.7,0.4-1.3l0,0h0.6l0,0c0,0.6,0.1,1.1,0.4,1.4c0.3,0.3,0.7,0.4,1.2,0.4
			c0.5,0,0.9-0.2,1.2-0.5s0.4-0.7,0.4-1.1c0-0.7-0.3-1.2-0.9-1.6c-0.6-0.4-1.4-0.6-2.5-0.6C189.6,798.2,188.8,798.4,188.2,798.6z"/>
		<path d="M216.9,806.6c-0.5,0.6-1.3,0.9-2.2,0.9c-0.9,0-1.6-0.3-2.1-1c-0.5-0.6-0.8-1.5-0.8-2.5c0-1.2,0.3-2.3,0.9-3.4
			c0.6-1,1.3-2,2.1-2.9h-4.7c0.2,0.5,0.4,1.1,0.4,1.9c0,0.9-0.2,1.6-0.6,2.4s-1,1.3-1.8,1.8c-0.7,0.4-1.6,0.6-2.6,0.6
			c-0.9,0-1.6-0.2-2.3-0.6c-0.7-0.4-1.3-0.9-1.6-1.6c-0.4-0.7-0.6-1.4-0.6-2.3c0-1.1,0.3-2,0.9-2.7c0.5-0.7,1.3-1.3,2.2-1.6l1.1-0.4
			c0.7-0.3,1.4-0.5,1.9-0.8c0.5-0.3,1.1-0.6,1.6-1c0.3-0.3,0.7-0.6,1.1-1.1c0.3-0.3,0.4-0.5,0.6-0.6s0.4-0.2,0.6-0.2
			c0.2,0,0.3,0.1,0.5,0.2c0.1,0.1,0.2,0.2,0.2,0.4c0,0.6-0.6,1.2-1.8,1.9c-0.4,0.2-0.9,0.5-1.5,0.7c-0.6,0.3-1.2,0.5-1.6,0.6
			c0.5,0,1,0.2,1.5,0.4c0.5,0.3,1,0.6,1.4,1.1c0.2,0.2,0.3,0.4,0.5,0.6h5.9c0,0.1-0.1,0.2-0.1,0.4c-0.6,0.9-1.1,1.8-1.3,2.7
			c-0.3,0.9-0.4,1.8-0.4,2.6c0,0.9,0.2,1.6,0.5,2.2c0.4,0.6,0.9,1,1.5,1.1c0.2,0.1,0.5,0.1,0.9,0.1L216.9,806.6z M207.9,801.2
			c0.7-0.6,1.1-1.5,1.1-2.6c0-0.9-0.3-1.6-0.9-2.1c-0.6-0.5-1.4-0.8-2.4-0.8c-0.6,0-1.2,0.2-1.9,0.4c-0.6,0.3-1.2,0.7-1.5,1.2
			c-0.4,0.5-0.6,1.1-0.6,1.8c0,0.9,0.3,1.5,0.9,2.1c0.6,0.6,1.4,0.9,2.6,0.9C206.3,802.1,207.3,801.8,207.9,801.2z"/>
		<path d="M234.7,799.2c0.3,0.5,0.5,1.1,0.5,1.6c0,1.1-0.3,2-1,2.6c-0.6,0.6-1.5,0.9-2.6,0.9c-0.7,0-1.2-0.2-1.7-0.5
			c-0.5-0.3-0.8-0.7-1-1.3c-0.5,1.2-1.4,1.8-2.8,1.8c-0.6,0-1.2-0.2-1.7-0.5s-0.9-0.7-1.1-1.2c-0.3-0.5-0.4-1-0.4-1.6
			c0-0.7,0.2-1.3,0.5-1.7s0.7-0.8,1.3-1c-1.5,0.1-2.4,0.1-2.8,0.1v-0.7h5.9v-0.1c0-0.5-0.2-0.9-0.4-1.2c-0.3-0.3-0.6-0.5-1-0.5
			c-0.4,0-0.6,0.1-0.8,0.2c-0.2,0.2-0.3,0.3-0.4,0.6c-0.2,0.5-0.5,0.7-0.9,0.7c-0.2,0-0.4-0.1-0.5-0.2c-0.2-0.2-0.2-0.3-0.2-0.6
			c0-0.5,0.2-0.9,0.6-1.1c0.4-0.3,1-0.4,1.6-0.4c0.9,0,1.5,0.3,2,0.9c0.4,0.5,0.7,1.2,0.7,2.1v0.3h-1.9c-0.6,0-1.2,0.2-1.8,0.5
			c-0.5,0.3-0.8,0.8-0.8,1.4c0,0.5,0.2,1,0.6,1.3c0.4,0.4,1,0.5,1.8,0.5c0.6,0,1.1-0.1,1.5-0.4c0.4-0.3,0.6-0.6,0.6-1.1v-0.5h0.6
			v0.5c0,0.5,0.2,0.9,0.6,1.1c0.4,0.3,1,0.4,1.7,0.4c0.7,0,1.4-0.2,1.8-0.5c0.5-0.4,0.7-0.9,0.7-1.5c0-1.3-0.9-1.9-2.7-1.9
			c-0.7,0-1.3,0.1-2,0.2v-0.2c0-0.9,0.2-1.6,0.7-2.2c0.5-0.5,1.1-0.9,1.9-0.9c0.6,0,1.1,0.2,1.5,0.4c0.4,0.3,0.6,0.7,0.6,1.3
			c0,0.2-0.1,0.4-0.2,0.6c-0.1,0.2-0.3,0.4-0.4,0.5C234,798.3,234.4,798.7,234.7,799.2z M233.3,797.1c0-0.3-0.2-0.5-0.4-0.7
			c-0.3-0.2-0.6-0.3-1.1-0.3c-0.5,0-1,0.2-1.3,0.4c-0.3,0.3-0.5,0.7-0.5,1.2c0.3-0.1,0.7-0.1,1.3-0.1c0.7,0,1.2,0.1,1.6,0.2
			C233.2,797.6,233.3,797.3,233.3,797.1z"/>
		<path d="M238.9,804.4c-0.7,0-1.3-0.2-1.7-0.6c-0.4-0.4-0.6-1-0.6-1.7c0-0.2,0-0.4,0-0.5h0.6c0,0.1,0,0.2,0,0.3
			c0,0.5,0.1,0.9,0.3,1.1c0.2,0.2,0.5,0.3,0.8,0.3c0.5,0,0.8-0.3,1.1-0.7c0.2-0.5,0.4-1.3,0.4-2.4c0-2.1-0.5-3.2-1.4-3.2
			c-0.3,0-0.5,0.1-0.8,0.4c-0.2,0.3-0.3,0.6-0.3,1.1c0,0.1,0,0.2,0,0.3h-0.6c0-0.1,0-0.3,0-0.5c0-0.7,0.2-1.3,0.7-1.7
			c0.5-0.4,1-0.6,1.6-0.6c1,0,1.7,0.4,2.2,1.1c0.5,0.7,0.7,1.8,0.7,3.2c0,1.4-0.3,2.4-0.7,3.2C240.6,804,239.9,804.4,238.9,804.4z"
			/>
		<path d="M254.9,800v9.3h-0.5c-0.2-0.5-0.5-0.9-1-1.3c-0.5-0.4-1-0.6-1.6-0.6c-0.4,0-0.9,0.1-1.2,0.2c-0.4,0.2-0.9,0.4-1.5,0.7
			c-0.6,0.3-1.1,0.6-1.5,0.7c-0.4,0.2-0.9,0.3-1.4,0.3c-0.6,0-1.2-0.2-1.6-0.5c-0.5-0.4-0.7-0.9-0.7-1.5c0-0.6,0.2-1.1,0.6-1.5
			c0.4-0.4,1-0.6,1.5-0.6c0.9,0,1.6,0.4,2.1,1.1l-0.6,0.2c-0.3-0.5-0.7-0.7-1.3-0.7c-0.4,0-0.7,0.1-1,0.4c-0.3,0.2-0.4,0.5-0.4,0.9
			c0,0.4,0.2,0.6,0.4,0.9c0.3,0.2,0.6,0.3,1,0.3s0.7-0.1,1-0.2s0.8-0.3,1.4-0.5c0.6-0.2,1.2-0.4,1.6-0.5s1-0.2,1.5-0.2
			s1,0.1,1.4,0.3c0.5,0.2,0.9,0.5,1.1,0.8v-6.1c-0.5,0.8-1.2,1.4-2,1.9c-0.9,0.4-1.8,0.6-2.9,0.6c-1.2,0-2.2-0.2-3.1-0.6
			c-0.9-0.4-1.6-1.1-2.1-1.9c-0.5-0.8-0.7-1.8-0.7-2.8c0-0.6,0.1-1.3,0.3-1.9c0.2-0.6,0.5-1.1,0.9-1.4c0.4-0.4,0.9-0.5,1.4-0.5
			c0.5,0,0.8,0.1,0.9,0.4c0.2,0.2,0.2,0.5,0.2,0.9c0,0.2,0,0.4-0.1,0.6c-0.1,0.4-0.1,0.7-0.1,0.9c0,0.5,0.2,1,0.6,1.3
			c0.4,0.3,0.9,0.5,1.5,0.5c0.6,0,1.2-0.2,1.5-0.5c0.4-0.4,0.6-0.9,0.6-1.4c0-0.4-0.1-0.7-0.3-1c0.1,0.2,0.1,0.3,0.1,0.5
			c0,0.4-0.2,0.8-0.4,1.1c-0.3,0.3-0.7,0.4-1.2,0.4c-0.5,0-0.9-0.2-1.2-0.5c-0.3-0.4-0.5-0.7-0.5-1.2c0-0.5,0.2-0.9,0.5-1.2
			c0.4-0.3,0.8-0.5,1.3-0.5c0.7,0,1.3,0.2,1.8,0.7c0.4,0.5,0.6,1.1,0.6,1.9c0,0.7-0.3,1.4-0.8,1.8c-0.5,0.5-1.2,0.7-2,0.7
			c-0.7,0-1.4-0.2-1.9-0.6c-0.5-0.4-0.9-1-0.9-1.7c0-0.3,0.1-0.6,0.1-1c0.1-0.3,0.1-0.5,0.1-0.7c0-0.4-0.2-0.6-0.5-0.6
			c-0.5,0-0.9,0.3-1.1,0.7c-0.3,0.5-0.4,1.1-0.4,1.8c0,1.2,0.4,2.2,1.3,2.9c0.9,0.7,2,1.1,3.4,1.1c0.9,0,1.8-0.2,2.5-0.6
			c0.7-0.4,1.3-0.9,1.7-1.6c0.4-0.7,0.6-1.5,0.6-2.4c0-0.9-0.2-1.7-0.6-2.5c-0.4-0.8-1-1.4-1.7-1.9s-1.6-0.7-2.6-0.7
			c-1.7,0-3.1,0.6-4,1.9h-0.7c0.5-0.8,1.2-1.4,2-1.9c0.9-0.4,1.8-0.6,2.7-0.6c1.1,0,2.1,0.3,3,0.9c0.9,0.5,1.6,1.3,2.2,2.3
			s0.8,2,0.8,3.1C255.1,798.8,255,799.4,254.9,800z M250.1,797.6c0.2-0.2,0.3-0.4,0.3-0.7c0-0.3-0.1-0.5-0.3-0.7
			c-0.2-0.2-0.4-0.3-0.7-0.3c-0.3,0-0.5,0.1-0.7,0.3c-0.2,0.2-0.3,0.4-0.3,0.7c0,0.3,0.1,0.5,0.3,0.7c0.2,0.2,0.4,0.3,0.7,0.3
			C249.6,797.9,249.9,797.8,250.1,797.6z"/>
		<path d="M268.4,797.2c0.4,0.8,0.6,1.7,0.6,2.7c0,0.9-0.2,1.6-0.6,2.3c-0.4,0.7-0.9,1.2-1.6,1.6c-0.7,0.4-1.4,0.6-2.3,0.6
			c-0.3,0-0.6,0-0.9-0.1v-0.6c0.2,0.1,0.4,0.1,0.7,0.1c1,0,1.6-0.3,2.2-1s0.7-1.4,0.7-2.3c0-0.9-0.3-1.7-0.7-2.4
			c-0.5-0.7-1.2-1-2.1-1c-1.3,0-2.2,0.7-2.6,2.3c0.2-0.1,0.4-0.2,0.6-0.2c0.4,0,0.7,0.2,1,0.6s0.4,0.9,0.4,1.4c0,1-0.3,1.7-1,2.3
			c-0.6,0.5-1.5,0.9-2.6,0.9s-1.9-0.3-2.6-0.9c-0.7-0.6-1-1.4-1-2.4c0-1,0.3-1.7,1-2.3c0.6-0.6,1.4-0.9,2.4-0.9h0.3
			c0-0.4-0.1-0.9-0.4-1.2c-0.2-0.3-0.5-0.5-0.9-0.5c-0.4,0-0.6,0.2-0.8,0.6c-0.1,0.2-0.2,0.3-0.3,0.5c-0.2,0.1-0.3,0.2-0.5,0.2
			s-0.4-0.1-0.5-0.2c-0.2-0.2-0.2-0.4-0.2-0.6c0-0.4,0.2-0.7,0.5-1s0.7-0.5,1.3-0.5c0.8,0,1.4,0.3,1.9,1s0.7,1.4,0.7,2.3
			c-0.3-0.1-0.5-0.1-0.7-0.1c-0.9,0-1.5,0.2-1.9,0.5c-0.5,0.3-0.7,0.8-0.7,1.3c0,0.6,0.3,1.1,0.8,1.4c0.5,0.3,1.2,0.5,1.9,0.5
			c0.6,0,1.2-0.1,1.7-0.4c0.5-0.3,0.7-0.6,0.7-1.1c0-0.3-0.1-0.4-0.2-0.6s-0.3-0.2-0.4-0.2c-0.3,0-0.5,0.2-0.7,0.6l-0.5-0.2
			c0.1-1,0.3-1.9,0.8-2.8c0.5-0.9,1-1.5,1.8-1.9c-1.4-0.1-2.5-0.4-3.3-0.9c-0.7-0.5-1.1-1.1-1.1-1.8c0-0.9,0.4-1.6,1.2-2.1
			c0.9-0.5,1.9-0.7,3-0.7c0.7,0,1.5,0.1,2.2,0.4c0.7,0.2,1.2,0.6,1.6,1c0.4,0.5,0.6,1,0.6,1.6c0,0.5-0.1,1-0.4,1.3
			c-0.3,0.4-0.6,0.7-1.1,0.9C267.4,795.8,267.9,796.3,268.4,797.2z M264.9,795.2L264.9,795.2c0.1,0,0.2,0,0.4,0h0.3
			c0.5-0.1,1-0.2,1.3-0.5c0.3-0.3,0.5-0.6,0.5-1.1c0-0.6-0.4-1-1.1-1.3c-0.7-0.3-1.5-0.4-2.6-0.4c-0.9,0-1.6,0.2-2.2,0.4
			c-0.6,0.3-0.9,0.6-0.9,1.1c0,0.5,0.5,1,1.4,1.2S263.8,795.2,264.9,795.2L264.9,795.2z"/>
		<path d="M271,804.1l-0.6-0.2c0.1-0.7,0.3-1.5,0.7-2.3c0.4-0.9,0.7-1.6,1.2-2.1c0.3-0.4,0.5-0.7,0.8-1c0.3-0.3,0.4-0.4,0.5-0.5
			c0.3-0.4,0.5-0.7,0.5-1.1c0-0.2-0.1-0.4-0.2-0.6c-0.1-0.2-0.3-0.2-0.5-0.2c-0.2,0-0.3,0.1-0.5,0.2c-0.2,0.1-0.3,0.2-0.3,0.4
			c-0.1,0.1-0.1,0.3-0.1,0.4c0,0.2-0.1,0.3-0.1,0.4s-0.2,0.3-0.3,0.4s-0.3,0.2-0.5,0.2c-0.3,0-0.6-0.1-0.7-0.3
			c-0.1-0.2-0.2-0.4-0.2-0.6c0-0.6,0.2-1,0.7-1.4c0.5-0.4,1-0.6,1.6-0.6c0.5,0,1,0.2,1.3,0.4c0.3,0.3,0.5,0.7,0.5,1.2
			c0,0.1,0,0.3,0,0.4c0.6-0.6,1.4-1.1,2.3-1.4c0.9-0.4,1.8-0.5,2.7-0.5c1,0,2,0.2,2.8,0.7c0.8,0.4,1.4,1.1,1.9,1.9
			c0.4,0.8,0.6,1.6,0.6,2.6c0,0.6-0.1,1.3-0.3,1.9c-0.2,0.6-0.6,1.2-1,1.6c-0.5,0.4-1.1,0.6-1.8,0.6c-0.4,0-0.8-0.1-1.1-0.3v-0.6
			c0.3,0.2,0.6,0.2,1,0.2c0.5,0,0.9-0.2,1.1-0.7c0.3-0.5,0.4-1,0.4-1.6c0-1-0.3-1.9-0.7-2.6c-0.5-0.7-1.1-1.2-1.9-1.6
			c-0.8-0.4-1.6-0.5-2.6-0.5c-0.7,0-1.4,0.1-2,0.3c-0.6,0.2-1.1,0.5-1.5,0.8c0.5-0.1,1.1-0.2,1.9-0.2c1.3,0,2.4,0.4,3.2,1.1
			c0.9,0.7,1.3,1.7,1.3,3c0,0.7-0.2,1.3-0.6,1.9s-1.1,0.8-1.9,0.8c-1,0-1.7-0.5-2.1-1.4c-0.2,0.4-0.4,0.8-0.8,1
			c-0.3,0.2-0.7,0.4-1.2,0.4c-0.5,0-0.9-0.1-1.2-0.3c-0.3-0.2-0.5-0.4-0.7-0.8c-0.1-0.2-0.2-0.3-0.3-0.4c-0.1-0.1-0.2-0.1-0.3-0.1
			c-0.2,0-0.4,0.1-0.6,0.3C271.1,803.4,271.1,803.7,271,804.1z M272.8,799.9c-0.3,0.4-0.5,0.7-0.6,1c-0.2,0.3-0.3,0.6-0.4,0.9
			c0.2-0.2,0.4-0.2,0.6-0.2s0.3,0.1,0.5,0.1c0.2,0.1,0.3,0.1,0.3,0.1c0.3,0.1,0.5,0.2,0.6,0.2c0.2,0.1,0.4,0.1,0.6,0.1
			c0.5,0,0.9-0.2,1.2-0.4c0.3-0.3,0.4-0.7,0.4-1.3l0,0h0.6l0,0c0,0.6,0.1,1.1,0.4,1.4c0.3,0.3,0.7,0.4,1.2,0.4s0.9-0.2,1.2-0.5
			c0.3-0.3,0.4-0.7,0.4-1.1c0-0.7-0.3-1.2-0.9-1.6c-0.6-0.4-1.4-0.6-2.5-0.6c-1.1,0-2,0.1-2.5,0.4
			C273.5,798.9,273.2,799.3,272.8,799.9z"/>
		<path d="M289.8,804.4c-1,0-1.9-0.4-2.4-1.1s-0.9-1.7-0.9-2.8c0-0.9,0.2-1.6,0.5-2.2c0.3-0.6,0.8-1.2,1.4-1.5
			c0.6-0.4,1.3-0.5,2.1-0.5c0.2,0,0.4,0,0.6,0.1v0.6c-0.2-0.1-0.4-0.1-0.7-0.1c-0.6,0-1.2,0.1-1.6,0.4c-0.5,0.3-0.9,0.6-1.1,1.1
			c-0.3,0.4-0.4,0.9-0.4,1.4c0,0.8,0.2,1.4,0.7,1.9c0.5,0.5,1.1,0.7,1.9,0.7c0.6,0,1.1-0.2,1.5-0.4c0.4-0.3,0.6-0.6,0.6-1.1v-0.5
			h0.6v0.5c0,0.5,0.2,0.9,0.7,1.2c0.5,0.3,1,0.4,1.7,0.4c0.8,0,1.4-0.2,1.8-0.6s0.6-0.9,0.6-1.4c0-1.4-1-2.1-3-2.1
			c-0.6,0-1.2,0.1-1.8,0.2c0-0.1,0-0.3,0-0.5c0-0.9,0.2-1.5,0.7-1.9s1.2-0.7,2-0.7c0.7,0,1.2,0.2,1.6,0.4c0.4,0.3,0.6,0.7,0.6,1.2
			c0,0.2-0.1,0.5-0.2,0.7c-0.1,0.2-0.3,0.4-0.6,0.5c0.5,0.3,0.9,0.7,1.1,1.2c0.3,0.5,0.4,1.1,0.4,1.7c0,1-0.3,1.9-0.9,2.6
			c-0.6,0.7-1.4,1-2.4,1c-1.4,0-2.3-0.5-2.7-1.5C291.9,803.9,291,804.4,289.8,804.4z M295.4,796c-0.6,0-1.2,0.2-1.5,0.4
			c-0.4,0.3-0.6,0.7-0.6,1.2c0.3-0.1,0.7-0.1,1.2-0.1c0.8,0,1.4,0.1,1.8,0.2c0.2-0.1,0.3-0.2,0.4-0.3c0.1-0.1,0.1-0.3,0.1-0.5
			c0-0.3-0.2-0.5-0.4-0.7C296.1,796.1,295.8,796,295.4,796z"/>
	</g>
	<g class="st1">
		<path d="M178.5,822.3c0-1,0.4-1.7,1.2-2.2c0.8-0.5,1.8-0.8,2.9-0.8c0.9,0,1.8,0.2,2.7,0.5c0.9,0.4,1.5,0.9,2,1.5
			c0.5,0.6,0.8,1.4,0.8,2.2c0,1.3-0.2,2.2-0.5,2.9h2v-6.9h2.2v11.6h-2.2v-3.9h-2.2c-0.6,1.1-1.7,2-3.2,2.7c-1.5,0.6-3.1,1-5,1
			c-1,0-1.9-0.1-2.9-0.4c-1-0.3-1.8-0.6-2.3-1.1c-0.6-0.5-0.9-1.1-0.9-1.8c0-0.3,0.1-0.5,0.4-0.7s0.5-0.3,0.9-0.3h10.9
			c0.4-0.9,0.7-1.9,0.7-2.9c0-0.6-0.1-1.2-0.4-1.7s-0.6-1-1-1.3c-0.4-0.3-0.9-0.5-1.5-0.5c0.4,0.2,0.7,0.5,1,1
			c0.3,0.4,0.4,0.9,0.4,1.4c0,0.5-0.2,0.9-0.4,1.3c-0.3,0.4-0.6,0.7-1.1,0.9c-0.5,0.2-1,0.3-1.4,0.3c-0.5,0-0.9-0.1-1.3-0.4
			c-0.4-0.2-0.7-0.5-1-1C178.6,823.2,178.5,822.8,178.5,822.3z M174.2,827.2c-0.2,0-0.3,0.1-0.4,0.1s-0.2,0.2-0.2,0.3
			c-0.1,0.5,0.2,1,0.6,1.3c0.5,0.4,1.1,0.7,1.9,0.9s1.6,0.3,2.3,0.3c1.3,0,2.5-0.3,3.6-0.8s1.9-1.3,2.4-2.1H174.2z M180.6,820.4
			c-0.4,0-0.7,0.2-1,0.6s-0.4,0.9-0.4,1.3c0,0.4,0.1,0.9,0.4,1.2c0.3,0.4,0.6,0.5,1,0.5c0.4,0,0.7-0.2,1-0.5
			c0.3-0.4,0.4-0.7,0.4-1.2c0-0.5-0.2-1-0.4-1.3C181.3,820.6,181,820.4,180.6,820.4z"/>
		<path d="M201.6,833.1c-1.4,0-2.8-0.3-4-1s-2.2-1.5-2.9-2.6c-0.7-1.1-1.1-2.3-1.1-3.6c0-1.4,0.3-2.8,1-3.9c0.7-1.1,1.6-2,2.7-2.4
			l0.3,0.6c-1,0.4-1.8,1.2-2.4,2.2c-0.6,1-0.9,2.2-0.9,3.5c0,1.1,0.3,2.2,0.9,3.1c0.6,1,1.3,1.7,2.3,2.2c1,0.5,2,0.8,3.2,0.8
			c1.2,0,2.2-0.2,3.2-0.6c1-0.4,1.7-1,2.3-1.8c0.6-0.8,0.9-1.7,0.9-2.8c0-0.9-0.1-1.6-0.4-2.1s-0.7-0.7-1.4-0.7h-0.8v1.1
			c0,2-1.6,3-4.7,3c-0.5,0-1.1-0.1-1.5-0.4c-0.5-0.3-0.9-0.6-1.2-1.1c-0.3-0.5-0.4-1-0.4-1.5c0-0.5,0.2-1,0.6-1.3
			c0.4-0.3,0.9-0.5,1.5-0.5h0.6v-3.9h7.9v0.6h-2.6v3.3h1c1.1,0,2.1,0.3,2.8,1s1.1,1.5,1.1,2.6c0,1.3-0.3,2.4-1,3.4
			c-0.7,0.9-1.6,1.6-2.7,2.1C204.4,832.9,203.1,833.1,201.6,833.1z M198.6,824.2c-0.4,0-0.7,0.1-1,0.3c-0.3,0.2-0.4,0.4-0.4,0.8
			c0,0.7,0.2,1.3,0.7,1.7c0.4,0.4,1.1,0.6,1.8,0.6c0.7,0,1.3-0.2,1.8-0.6c0.5-0.4,0.7-1,0.7-1.6v-1.1L198.6,824.2L198.6,824.2z
			 M200,820.2v3.3h2.4v-3.3H200z"/>
		<path d="M212.6,831.7c-1.4-1.4-2.1-3.3-2.1-5.6c0-1.4,0.3-2.7,1-3.8c0.6-1.1,1.5-2,2.5-2.5l0.3,0.5c-0.9,0.5-1.6,1.3-2.2,2.3
			c-0.6,1-0.9,2.2-0.9,3.5c0,1.4,0.3,2.7,0.9,3.7c0.6,1.1,1.4,1.9,2.4,2.5c1,0.6,2.2,0.9,3.6,0.9c1.2,0,2.3-0.3,3.2-0.7
			c0.9-0.5,1.6-1.2,2.1-2.2c0.5-1,0.7-2,0.7-3.2c0-1.8-0.5-2.7-1.6-2.7c-0.2,0-0.4,0.1-0.6,0.1c-0.2,0.1-0.3,0.2-0.3,0.3v3.6h-2.2
			v-8h-3.1v8h-0.7v-8.7h8.5v0.6h-2.4v3.6c0.3-0.3,0.7-0.4,1.4-0.4c1,0,1.9,0.3,2.4,1c0.6,0.7,0.9,1.5,0.9,2.6c0,2-0.7,3.7-2.3,5
			c-1.5,1.2-3.5,1.9-6.1,1.9C215.8,833.8,214,833.1,212.6,831.7z"/>
		<path d="M240,833.1c-1.4,0-2.8-0.3-4-1c-1.2-0.6-2.2-1.5-2.9-2.6c-0.7-1.1-1.1-2.3-1.1-3.6c0-1.4,0.3-2.8,1-3.9
			c0.7-1.1,1.6-2,2.7-2.4l0.3,0.6c-1,0.4-1.8,1.2-2.4,2.2c-0.6,1-0.9,2.2-0.9,3.5c0,1.1,0.3,2.2,0.9,3.1c0.6,1,1.3,1.7,2.3,2.2
			c1,0.5,2,0.8,3.2,0.8s2.2-0.2,3.2-0.6c1-0.4,1.7-1,2.3-1.8c0.6-0.8,0.9-1.7,0.9-2.8c0-0.9-0.1-1.6-0.4-2.1s-0.7-0.7-1.4-0.7h-0.8
			v1.1c0,2-1.6,3-4.8,3c-0.5,0-1.1-0.1-1.5-0.4c-0.5-0.3-0.9-0.6-1.2-1.1c-0.3-0.5-0.4-1-0.4-1.5c0-0.5,0.2-1,0.6-1.3
			c0.4-0.3,0.9-0.5,1.5-0.5h0.6v-3.9h7.9v0.6h-2.6v3.3h1c1.1,0,2.1,0.3,2.8,1s1.1,1.5,1.1,2.6c0,1.3-0.3,2.4-1,3.4
			c-0.7,0.9-1.6,1.6-2.7,2.1C242.8,832.9,241.5,833.1,240,833.1z M237,824.2c-0.4,0-0.7,0.1-1,0.3s-0.4,0.4-0.4,0.8
			c0,0.7,0.2,1.3,0.7,1.7c0.4,0.4,1.1,0.6,1.8,0.6c0.7,0,1.3-0.2,1.8-0.6c0.5-0.4,0.7-1,0.7-1.6v-1.1L237,824.2L237,824.2z
			 M238.4,820.2v3.3h2.4v-3.3H238.4z"/>
		<path d="M262.2,828.2v1c0.4-0.2,0.8-0.3,1.2-0.3c0.6,0,1.2,0.2,1.6,0.5s0.7,0.7,0.7,1.2c0,0.7-0.4,1.4-1.2,1.9s-1.9,1-3.1,1.2
			c-1.2,0.3-2.4,0.4-3.7,0.4c-1.6,0-3-0.4-4.4-1.1c-1.3-0.7-2.4-1.6-3.2-2.9c-0.8-1.2-1.2-2.6-1.2-4c0-1.4,0.3-2.8,0.9-3.9
			c0.6-1.2,1.4-2,2.4-2.5l0.3,0.6c-0.9,0.5-1.5,1.2-2.1,2.3s-0.7,2.2-0.7,3.6c0,1.3,0.4,2.6,1.1,3.7c0.7,1.1,1.8,2,3,2.6
			c1.2,0.6,2.6,1,4,1c0.9,0,1.8-0.1,2.7-0.3s1.6-0.5,2.2-1s0.9-1,0.9-1.6c0-0.2-0.1-0.4-0.2-0.6c-0.2-0.2-0.3-0.2-0.5-0.2
			c-0.2,0-0.4,0.1-0.6,0.3v1.2H260v-3.1h-5.7v-8.7h2.2v8h3.7v-5.2c0-0.9,0.3-1.6,0.9-2.1c0.5-0.5,1.3-0.9,2.2-0.9
			c0.8,0,1.5,0.2,2.1,0.6s1,1,1.3,1.8c0.3,0.7,0.4,1.5,0.4,2.4c0,1.1-0.2,2-0.7,2.8c-0.4,0.7-1.1,1.1-2,1.1H262.2z M262.3,827.6h1.8
			c0.7,0,1.2-0.3,1.6-1s0.5-1.4,0.5-2.3c0-1.1-0.2-2.1-0.6-2.9c-0.4-0.8-1-1.2-1.8-1.2c-0.4,0-0.8,0.2-1.1,0.6
			c-0.3,0.4-0.4,0.9-0.4,1.4V827.6z"/>
		<path d="M278.8,828.2h-10v-8.7h2.2v8h3.7v-5.2c0-0.9,0.3-1.6,0.9-2.1c0.5-0.5,1.3-0.9,2.2-0.9c0.8,0,1.5,0.2,2.1,0.6s1,1,1.3,1.8
			c0.3,0.7,0.4,1.5,0.4,2.4c0,1.1-0.2,2-0.7,2.8C280.3,827.8,279.7,828.2,278.8,828.2z M276.8,822.2v5.3h1.8c0.7,0,1.2-0.3,1.6-1
			c0.4-0.6,0.5-1.4,0.5-2.3c0-1.1-0.2-2.1-0.6-2.9c-0.4-0.8-1-1.2-1.8-1.2c-0.4,0-0.8,0.2-1.1,0.6
			C276.9,821.3,276.8,821.7,276.8,822.2z"/>
		<path d="M293.5,828.2h-10v-8.7h2.2v8h3.7v-5.2c0-0.9,0.3-1.6,0.9-2.1c0.5-0.5,1.3-0.9,2.2-0.9c0.8,0,1.5,0.2,2.1,0.6s1,1,1.3,1.8
			c0.3,0.7,0.4,1.5,0.4,2.4c0,1.1-0.2,2-0.7,2.8C295,827.8,294.3,828.2,293.5,828.2z M291.5,822.2v5.3h1.8c0.7,0,1.2-0.3,1.6-1
			s0.5-1.4,0.5-2.3c0-1.1-0.2-2.1-0.6-2.9c-0.4-0.8-1-1.2-1.8-1.2c-0.4,0-0.8,0.2-1.1,0.6C291.6,821.3,291.5,821.7,291.5,822.2z"/>
		<path d="M291.1,817.9c-0.4,0-0.8-0.2-1.1-0.4c-0.3-0.3-0.5-0.6-0.5-1c0-0.4,0.2-0.7,0.5-1c0.3-0.3,0.7-0.4,1.1-0.4
			c0.4,0,0.8,0.2,1.1,0.4c0.3,0.3,0.5,0.6,0.5,1c0,0.4-0.2,0.7-0.5,1C291.9,817.8,291.6,817.9,291.1,817.9z"/>
	</g>
</g>
<g id="Layer_2_1_" transform="translate(0,-741.00006)">
</g>
<g id="Layer_3" transform="translate(0,-741.00006)">
</g>
</svg>
