<?xml version="1.0" encoding="UTF-8" standalone="no"?>
<svg
   xmlns:dc="http://purl.org/dc/elements/1.1/"
   xmlns:cc="http://creativecommons.org/ns#"
   xmlns:rdf="http://www.w3.org/1999/02/22-rdf-syntax-ns#"
   xmlns:svg="http://www.w3.org/2000/svg"
   xmlns="http://www.w3.org/2000/svg"
   height="13.229167cm"
   width="43.259369cm"
   id="svg6"
   viewBox="0 -200 1634.9997 500"
   version="1.1">
  <title
     id="title841">akuruCON_2018_logo</title>
  <metadata
     id="metadata12">
    <rdf:RDF>
      <cc:Work
         rdf:about="">
        <dc:format>image/svg+xml</dc:format>
        <dc:type
           rdf:resource="http://purl.org/dc/dcmitype/StillImage" />
        <dc:title>akuruCON_2018_logo</dc:title>
        <cc:license
           rdf:resource="http://creativecommons.org/licenses/by-nc-nd/4.0/" />
      </cc:Work>
      <cc:License
         rdf:about="http://creativecommons.org/licenses/by-nc-nd/4.0/">
        <cc:permits
           rdf:resource="http://creativecommons.org/ns#Reproduction" />
        <cc:permits
           rdf:resource="http://creativecommons.org/ns#Distribution" />
        <cc:requires
           rdf:resource="http://creativecommons.org/ns#Notice" />
        <cc:requires
           rdf:resource="http://creativecommons.org/ns#Attribution" />
        <cc:prohibits
           rdf:resource="http://creativecommons.org/ns#CommercialUse" />
      </cc:License>
    </rdf:RDF>
  </metadata>
  <defs
     id="defs10" />
  <g
     style="fill:#000000"
     id="g4"
     transform="matrix(1,0,0,-1,0,239.99999)">
    <path
       style="fill:#000000"
       id="path2"
       d="m 882,162 v 217 c 0,4 3,7 7,7 h 32 c 4,0 7,-3 7,-7 V 168 c 0,-29.69 18.439,-44 42,-44 25.357,0 41,13.318 41,44 v 210 c 0,4 3,7 7,7 h 32 c 4,0 7,-3 7,-7 V 162 c 0,-46.397 -30.66,-80 -87,-80 -57.667,0 -88,36.667 -88,80 z M 53,7 v 301 c 0,45 38.7931,81 89,81 45.818,0 86,-36 86,-81 V 7 c 0,-4 -3,-7 -7,-7 h -32 c -4,0 -7,3 -7,7 v 62 c 0,4 -3,7 -7,7 h -69 c -4,0 -7,-3 -7,-7 V 7 C 99,3 96,-1 92,-1 H 60 c -4,0 -7,4 -7,8 z m 46,118 c 0,-4 3,-7 7,-7 h 69 c 4,0 7,3 7,7 v 184 c 0,21.111 -17,38 -40,38 -23,0 -43,-16.889 -43,-38 z M 1383,7 v 292 c 0,50 44,90 99,90 54,0 98,-40 98,-90 V 7 c 0,-4 -3,-7 -7,-7 h -32 c -4,0 -7,3 -7,7 v 292 c 0,27.667 -24,48 -52,48 -28,0 -51,-19.333 -51,-48 V 7 c 0,-4 -3,-8 -7,-8 h -34 c -4,0 -7,4 -7,8 z M 468,162 v 140 c 0,4 3,7 7,7 h 32 c 4,0 7,-3 7,-7 V 168 c 0,-29.69 18.439,-44 42,-44 25.357,0 41,13.318 41,44 v 210 c 0,4 3,7 7,7 h 32 c 4,0 7,-3 7,-7 V 162 c 0,-46.397 -30.659,-80 -87,-80 -57.667,0 -88,36.667 -88,80 z m 707,-24 v 100 c 0,42 39.55,77 87,77 47.45,0 87,-35 87,-77 v -98 c 0,-40.3636 -39.55,-74 -87,-74 -47.45,0 -87,32.7273 -87,72 z m 45,9 c 0,-25.594 19,-39 42,-39 23,0 42,11.875 42,38 v 94 c 0,19.125 -19,34 -42,34 -23,0 -42,-14.875 -42,-34 z m -127,-23 v 136 c 0,70 62,127 138,127 h 111 c 4,0 8,-3 8,-7 v -29 c 0,-4 -4,-7 -8,-7 h -111 c -51,0 -92,-37.902 -92,-84 V 124 c 0,-46.1111 41,-83 92,-83 h 111 c 4,0 8,-4 8,-8 V 5 c 0,-4 -4,-7 -8,-7 h -111 c -76,0 -138,56 -138,126 z M 264,7 v 372 c 0,4 3,7 7,7 h 32 c 4,0 7,-3 7,-7 V 231 c 0,-4 3,-7 7,-7 31,0 39.944,16.022 57,60 17,43.835 41,105 125,105 h 12 c 4,0 7,-4 7,-8 v -27 c 0,-4 -3,-7 -7,-7 h -12 c -50,0 -65.295,-30.054 -82,-78 -6,-17 -14.317,-32.633 -23,-50 -1,-2 -2,-4 -1,-6 11,-37 18.997,-58.286 32,-95 17,-47.3846 60,-77 127,-77 h 77 c 4,0 7,-4 7,-8 V 5 c 0,-4 -3,-7 -7,-7 H 547 C 465.006,-2 405.841,31.5227 382,104 l -25,76 c -1.285,3.906 -5.076,6.266 -9,5 -9.3,-3 -19.633,-4 -31,-4 -4,0 -7,-3 -7,-7 V 7 c 0,-4 -3,-8 -7,-8 h -32 c -4,0 -7,4 -7,8 z m 415,0 v 359 c 0,12 10,23 23,23 h 56 c 50,0 91,-38 91,-84 v -96 c 0,-29 -15.688,-55.458 -39,-71 -3,-2 -3.612,-5.775 -2,-9 29,-59.3488 79,-88 153,-88 h 96 c 4,0 8,-4 8,-8 V 5 c 0,-4 -4,-7 -8,-7 H 957 c -96.477,0 -159.076,39.4682 -190,118 -2,5 -6,4 -12,4 h -23 c -4,0 -7,-3 -7,-7 V 7 c 0,-4 -3,-8 -7,-8 h -32 c -4,0 -7,4 -7,8 z m 46,162 c 0,-4 3,-7 7,-7 h 20 c 29,0 51,20.909 51,46 v 100 c 0,21 -20,39 -45,39 h -26 c -4,0 -7,-4 -7,-8 z" />
  </g>
</svg>
