<?xml version="1.0" encoding="UTF-8" standalone="no"?>
<!-- Generator: Adobe Illustrator 22.0.1, SVG Export Plug-In . SVG Version: 6.00 Build 0)  -->

<svg
   xmlns:dc="http://purl.org/dc/elements/1.1/"
   xmlns:cc="http://creativecommons.org/ns#"
   xmlns:rdf="http://www.w3.org/1999/02/22-rdf-syntax-ns#"
   xmlns:svg="http://www.w3.org/2000/svg"
   xmlns="http://www.w3.org/2000/svg"
   xmlns:sodipodi="http://sodipodi.sourceforge.net/DTD/sodipodi-0.dtd"
   xmlns:inkscape="http://www.inkscape.org/namespaces/inkscape"
   version="1.1"
   id="svg491"
   inkscape:version="0.92.2 5c3e80d, 2017-08-06"
   sodipodi:docname="akuru-logo_triling.svg"
   x="0px"
   y="0px"
   viewBox="0 0 421 110.8"
   style="enable-background:new 0 0 421 110.8;"
   xml:space="preserve"><metadata
     id="metadata105"><rdf:RDF><cc:Work
         rdf:about=""><dc:format>image/svg+xml</dc:format><dc:type
           rdf:resource="http://purl.org/dc/dcmitype/StillImage" /></cc:Work></rdf:RDF></metadata><defs
     id="defs103" /><style
     type="text/css"
     id="style2">
	.st0{fill:#FFFFFF;}
	.st1{opacity:0.85;enable-background:new    ;}
</style><sodipodi:namedview
     bordercolor="#666666"
     borderopacity="1"
     gridtolerance="10"
     guidetolerance="10"
     id="namedview493"
     inkscape:current-layer="g59"
     inkscape:cx="249.32181"
     inkscape:cy="56.283237"
     inkscape:pageopacity="0"
     inkscape:pageshadow="2"
     inkscape:window-height="1006"
     inkscape:window-maximized="0"
     inkscape:window-width="1680"
     inkscape:window-x="5"
     inkscape:window-y="0"
     inkscape:zoom="2.2425466"
     objecttolerance="10"
     pagecolor="#ffffff"
     showgrid="false"
     showguides="true"
     inkscape:guide-bbox="true"><sodipodi:guide
       position="280.31432,101.21586"
       orientation="0,1"
       id="guide912"
       inkscape:locked="false" /></sodipodi:namedview><g
     id="Layer_1"
     transform="translate(0,-741.00006)"><circle
       id="circle16"
       inkscape:export-filename="/Users/macbookpro/text1124.png"
       inkscape:export-xdpi="300"
       inkscape:export-ydpi="300"
       transform="rotate(-3.1699997)"
       cx="0.86967969"
       cy="801.69812"
       r="35.101059"
       style="stroke-width:1.00003016" /><g
       id="g62"
       transform="matrix(0.58574952,0,0,0.58574952,-86.536159,558.85004)"
       inkscape:export-filename="/Users/macbookpro/text1124.png"
       inkscape:export-xdpi="300"
       inkscape:export-ydpi="300"><path
         id="path18"
         inkscape:connector-curvature="0"
         class="st0"
         d="m 186.3,407.9 c -0.3,-0.7 -0.7,-1.3 -1.2,-2 -0.9,-0.9 -1.9,-1.4 -2.8,-1.4 -0.9,-0.1 -1.8,0.3 -2.6,1 -0.6,0.6 -0.9,1.3 -0.9,2.1 0,0.8 0.2,1.4 0.7,2.1 0.3,0.3 0.7,0.5 1.1,0.6 0.4,0.1 0.9,0.1 1.3,0 0.5,-0.1 0.9,-0.4 1.3,-0.8 0.2,-0.2 0.4,-0.5 0.5,-0.8 0.1,-0.3 0.2,-0.6 0.2,-0.8 0.3,0.5 0.5,1.1 0.4,1.6 -0.1,0.6 -0.4,1.1 -0.9,1.8 -0.7,0.7 -1.6,1 -2.7,0.9 -1,-0.1 -2.1,-0.6 -2.9,-1.5 -0.6,-0.6 -1.1,-1.3 -1.3,-2.1 -0.3,-0.8 -0.3,-1.5 -0.2,-2.2 0.1,-0.7 0.4,-1.3 0.9,-1.9 0.4,-0.4 0.8,-0.7 1.2,-0.8 0.4,-0.1 0.9,-0.2 1.4,-0.2 l 0.2,-2 c -0.8,0 -1.6,0.1 -2.3,0.4 -0.7,0.3 -1.3,0.7 -2,1.3 -0.8,0.8 -1.3,1.8 -1.5,2.9 -0.2,1.1 -0.2,2.1 0.2,3.3 0.3,1.1 0.9,2.1 1.9,3 0.9,0.9 1.9,1.5 2.9,1.9 1,0.4 2,0.4 3,0.1 0.9,-0.2 1.9,-0.8 2.7,-1.6 0.8,-0.8 1.2,-1.5 1.4,-2.4 0.3,-1.1 0.2,-1.8 0,-2.5 z m -4.6,0.8 c -0.3,0 -0.6,-0.1 -0.8,-0.3 -0.2,-0.2 -0.3,-0.5 -0.3,-0.8 0,-0.3 0.1,-0.6 0.4,-0.8 0.2,-0.2 0.5,-0.3 0.8,-0.4 0.3,0 0.6,0.1 0.8,0.3 0.2,0.2 0.3,0.5 0.3,0.8 0,0.3 -0.1,0.6 -0.4,0.8 -0.3,0.2 -0.5,0.3 -0.8,0.4 z"
         style="fill:#ffffff" /><path
         id="path20"
         inkscape:connector-curvature="0"
         class="st0"
         d="m 194.1,399.9 c -0.3,-0.7 -0.7,-1.3 -1.2,-2 -0.9,-0.9 -1.9,-1.4 -2.8,-1.4 -0.9,-0.1 -1.8,0.3 -2.6,1 -0.6,0.6 -0.9,1.3 -0.9,2.1 0,0.8 0.2,1.4 0.7,2.1 0.3,0.3 0.7,0.5 1.1,0.6 0.4,0.1 0.9,0.1 1.3,0 0.5,-0.1 0.9,-0.4 1.3,-0.8 0.2,-0.2 0.4,-0.5 0.5,-0.8 0.1,-0.3 0.2,-0.6 0.2,-0.8 0.3,0.5 0.5,1.1 0.4,1.6 -0.1,0.6 -0.4,1.1 -0.9,1.8 -0.7,0.7 -1.6,1 -2.7,0.9 -1,-0.1 -2.1,-0.6 -2.9,-1.5 -0.6,-0.6 -1.1,-1.3 -1.3,-2.1 -0.3,-0.8 -0.3,-1.5 -0.2,-2.2 0.1,-0.7 0.4,-1.3 0.9,-1.9 0.4,-0.4 0.8,-0.7 1.2,-0.8 0.4,-0.1 0.9,-0.2 1.4,-0.2 l 0.2,-2 c -0.8,0 -1.6,0.1 -2.3,0.4 -0.7,0.3 -1.3,0.7 -2,1.3 -0.8,0.8 -1.3,1.8 -1.5,2.9 -0.2,1.1 -0.2,2.1 0.2,3.3 0.3,1.1 0.9,2.1 1.9,3 0.9,0.9 1.9,1.5 2.9,1.9 1,0.4 2,0.4 3,0.1 0.9,-0.2 1.9,-0.8 2.7,-1.6 0.8,-0.8 1.2,-1.5 1.4,-2.4 0.3,-1 0.3,-1.7 0,-2.5 z m -4.7,0.8 c -0.3,0 -0.6,-0.1 -0.8,-0.3 -0.2,-0.2 -0.3,-0.5 -0.3,-0.8 0,-0.3 0.1,-0.6 0.4,-0.8 0.2,-0.2 0.5,-0.3 0.8,-0.4 0.3,0 0.6,0.1 0.8,0.3 0.2,0.2 0.3,0.5 0.3,0.8 0,0.3 -0.1,0.6 -0.4,0.8 -0.1,0.3 -0.4,0.4 -0.8,0.4 z"
         style="fill:#ffffff" /><path
         id="path22"
         inkscape:connector-curvature="0"
         class="st0"
         d="m 199.7,386.4 c -4.3,-4.2 -7.9,-4.7 -11.1,-1.6 -0.7,0.7 -1.2,1.6 -1.5,2.7 -0.3,1 -0.2,2.1 0.2,3.1 l 2.1,-1.1 c -0.2,-0.5 -0.2,-1.1 -0.1,-1.8 0.2,-0.6 0.4,-1.1 0.9,-1.5 0.9,-0.9 2.1,-1.3 3.3,-1.1 1.2,0.2 2.8,1.1 4.6,3 1.4,1.3 2.2,2.7 2.4,3.8 0.2,1.1 -0.1,2.2 -1.1,3.2 -0.8,0.8 -1.6,1.2 -2.6,1.1 -1,-0.1 -1.6,-0.5 -2.3,-1.1 -0.6,-0.6 -0.9,-1.2 -1,-1.9 -0.1,-0.6 0,-1.1 0.4,-1.5 0.2,-0.2 0.5,-0.4 0.8,-0.5 l -0.7,-1.9 c -0.7,0.2 -1.2,0.5 -1.8,1 -0.5,0.5 -0.8,1.1 -1,1.9 -0.1,0.7 -0.1,1.4 0.2,2.2 0.3,0.7 0.8,1.5 1.4,2.1 0.6,0.6 1.4,1.1 2.2,1.4 0.8,0.3 1.8,0.4 2.8,0.1 1,-0.2 2,-0.8 2.9,-1.8 3.1,-2.7 2.7,-6 -1,-9.8 z"
         style="fill:#ffffff" /><path
         id="path24"
         inkscape:connector-curvature="0"
         class="st0"
         d="m 211.3,382.6 c -0.3,-0.7 -0.7,-1.3 -1.2,-2 -0.9,-0.9 -1.9,-1.4 -2.8,-1.4 -0.9,-0.1 -1.8,0.3 -2.6,1 -0.6,0.6 -0.9,1.3 -0.9,2.1 0,0.8 0.2,1.4 0.7,2.1 0.3,0.3 0.7,0.5 1.1,0.6 0.4,0.1 0.9,0.1 1.3,0 0.5,-0.1 0.9,-0.4 1.3,-0.8 0.2,-0.2 0.4,-0.5 0.5,-0.8 0.1,-0.3 0.2,-0.6 0.2,-0.8 0.3,0.5 0.5,1.1 0.4,1.6 -0.1,0.6 -0.4,1.1 -0.9,1.8 -0.7,0.7 -1.6,1 -2.7,0.9 -1,-0.1 -2.1,-0.6 -2.9,-1.5 -0.6,-0.6 -1.1,-1.3 -1.3,-2.1 -0.3,-0.8 -0.3,-1.5 -0.2,-2.2 0.1,-0.7 0.4,-1.3 0.9,-1.9 0.4,-0.4 0.8,-0.7 1.2,-0.8 0.4,-0.1 0.9,-0.2 1.4,-0.2 l 0.2,-2 c -0.8,0 -1.6,0.1 -2.3,0.4 -0.7,0.3 -1.3,0.7 -2,1.3 -0.8,0.8 -1.3,1.8 -1.5,2.9 -0.2,1.1 -0.2,2.1 0.2,3.3 0.3,1.1 0.9,2.1 1.9,3 0.9,0.9 1.9,1.5 2.9,1.9 1,0.3 2,0.4 3,0.1 0.9,-0.2 1.9,-0.8 2.7,-1.6 0.8,-0.8 1.2,-1.5 1.4,-2.4 0.3,-1 0.2,-1.8 0,-2.5 z m -4.7,0.8 c -0.3,0 -0.6,-0.1 -0.8,-0.3 -0.2,-0.2 -0.3,-0.5 -0.3,-0.8 0,-0.3 0.1,-0.6 0.4,-0.8 0.2,-0.2 0.5,-0.3 0.8,-0.4 0.3,0 0.6,0.1 0.8,0.3 0.2,0.2 0.3,0.5 0.3,0.8 0,0.3 -0.1,0.6 -0.4,0.8 -0.2,0.2 -0.4,0.4 -0.8,0.4 z"
         style="fill:#ffffff" /><path
         id="path26"
         inkscape:connector-curvature="0"
         class="st0"
         d="m 221.1,372.9 c -0.1,-1 -0.6,-1.9 -1.4,-2.7 -0.5,-0.5 -1,-0.8 -1.6,-1 -0.6,-0.2 -1.2,-0.3 -1.9,-0.2 0,-0.4 -0.1,-0.7 -0.2,-1.1 -0.2,-0.3 -0.3,-0.6 -0.6,-0.9 -0.6,-0.6 -1.3,-0.9 -2.1,-0.8 -0.8,0.1 -1.6,0.4 -2.2,1.1 -0.3,0.4 -0.6,0.7 -0.8,1.2 -0.2,0.4 -0.3,0.9 -0.3,1.3 -0.4,0 -0.9,0.1 -1.3,0.3 -0.4,0.2 -0.8,0.5 -1.2,0.8 -0.7,0.7 -1,1.4 -1.1,2.2 0,0.8 0.2,1.5 0.8,2.1 0.3,0.2 0.5,0.4 0.9,0.6 0.3,0.1 0.7,0.2 1.1,0.2 -0.1,0.6 0,1.2 0.2,1.9 0.2,0.7 0.6,1.1 1.1,1.6 0.8,0.8 1.6,1.2 2.7,1.3 1,0.1 2,0 3,-0.4 1,-0.4 2,-1 2.8,-2 0.8,-0.8 1.4,-1.8 1.9,-2.8 0.2,-0.7 0.4,-1.7 0.2,-2.7 z m -12.1,1.6 c -0.2,-0.1 -0.4,-0.2 -0.5,-0.3 -0.3,-0.3 -0.4,-0.6 -0.4,-0.9 0,-0.3 0.2,-0.7 0.5,-1 0.3,-0.3 0.7,-0.5 1.1,-0.5 0.4,0 0.8,0.1 1.2,0.5 0.2,0.2 0.3,0.4 0.4,0.4 l -0.8,0.8 c -0.3,0.3 -0.6,0.7 -0.8,1 -0.1,0.1 -0.4,0.1 -0.7,0 z m 4.7,-4 -0.8,0.8 c -0.1,-0.1 -0.2,-0.2 -0.5,-0.4 -0.4,-0.4 -0.6,-0.8 -0.5,-1.2 0,-0.4 0.2,-0.8 0.5,-1.1 0.3,-0.3 0.6,-0.5 1,-0.5 0.4,0 0.6,0.1 0.9,0.3 0.1,0.1 0.2,0.3 0.3,0.5 0.1,0.2 0.1,0.4 0.1,0.6 -0.4,0.3 -0.7,0.6 -1,1 z m 0.9,8.4 c -1,0.2 -1.9,0 -2.6,-0.7 -0.5,-0.5 -0.8,-1 -0.8,-1.6 0,-0.6 0.2,-1.2 0.7,-1.8 l 2.9,-2.9 c 0.5,-0.5 1.1,-0.8 1.8,-0.8 0.7,0 1.1,0.3 1.6,0.8 0.7,0.7 0.9,1.5 0.7,2.6 -0.2,1 -0.7,2 -1.6,2.9 -0.9,0.7 -1.8,1.3 -2.7,1.5 z"
         style="fill:#ffffff" /><path
         id="path28"
         inkscape:connector-curvature="0"
         class="st0"
         d="m 217.1,365.6 c 0,-0.4 0.1,-0.7 0.4,-1 0.4,-0.4 0.9,-0.4 1.6,-0.2 0.7,0.2 1.6,0.9 2.7,1.9 1,1 1.6,2 2,2.7 0.2,0.7 0.2,1.3 -0.2,1.6 -0.3,0.3 -0.6,0.4 -1,0.4 l 0.1,1.8 c 0.9,0.1 1.8,-0.2 2.3,-0.9 0.5,-0.5 0.8,-1.1 0.9,-1.9 0.1,-0.7 0,-1.5 -0.4,-2.4 -0.4,-0.9 -1.1,-1.9 -2.1,-2.9 -1,-1 -2,-1.6 -2.9,-2.1 -0.9,-0.4 -1.8,-0.5 -2.4,-0.3 -0.7,0.1 -1.3,0.5 -1.9,1 -0.6,0.6 -0.9,1.4 -0.9,2.3 z"
         style="fill:#ffffff" /><path
         id="path30"
         inkscape:connector-curvature="0"
         class="st0"
         d="m 194.5,425.5 c 0.5,0.9 1.1,1.9 2,2.7 1.1,1.1 2.3,1.8 3.5,2 1.1,0.1 2.1,-0.2 3.1,-1.1 0.8,-0.8 1.2,-1.9 1,-3 -0.1,-1.1 -0.8,-2.2 -2,-3.4 -1.9,-1.9 -3.9,-2.7 -6.1,-2.4 0.3,-0.6 0.6,-1.1 1.1,-1.6 1.1,-1.1 2.2,-1.6 3.6,-1.6 1.3,0 2.6,0.6 3.7,1.9 0.8,0.8 1.3,1.6 1.4,2.6 0.2,0.9 0,1.8 -0.5,2.3 l 1.5,1.1 c 0.9,-1.2 1.2,-2.4 1,-3.9 -0.2,-1.4 -0.9,-2.7 -2.1,-3.9 -1.1,-1.1 -2.2,-1.8 -3.5,-2.1 -1.2,-0.3 -2.3,-0.2 -3.5,0.2 -1.1,0.4 -2.1,1 -3,2 -1,1.1 -1.8,2.2 -2.1,3.6 -0.7,0.3 -1.4,0.6 -2.1,1 -0.6,0.4 -1.2,0.9 -1.6,1.3 -0.9,0.9 -1.5,2 -2.1,3.2 -0.4,1.2 -0.5,2.4 -0.3,3.9 0.3,1.3 1,2.6 2.1,3.8 0.8,0.8 1.6,1.3 2.4,1.8 0.8,0.4 1.6,0.5 2.4,0.5 0.8,0 1.5,-0.4 2.1,-1 0.8,-0.8 1.1,-1.6 1,-2.7 -0.1,-1 -0.6,-2.1 -1.5,-3 -0.6,-0.6 -1.3,-1 -2,-1.3 -0.7,-0.2 -1.3,-0.3 -2,-0.1 -0.6,0.1 -1.1,0.4 -1.5,0.8 -0.5,0.5 -0.7,1 -0.8,1.8 -0.5,-1.1 -0.6,-2.2 -0.4,-3.3 0.3,-1.1 0.7,-2.1 1.4,-2.8 0.7,-0.7 1.5,-1.3 2.3,-1.6 0.7,0.3 1,1.4 1.5,2.3 z m 6,-1.3 c 0.7,0.7 1.2,1.3 1.4,2 0.3,0.6 0.2,1.1 -0.2,1.5 -0.4,0.4 -1,0.5 -1.6,0.3 -0.7,-0.2 -1.3,-0.7 -2.1,-1.4 -0.7,-0.7 -1.2,-1.4 -1.6,-2.1 -0.4,-0.8 -0.7,-1.5 -0.7,-2.3 1.7,-0.2 3.3,0.5 4.8,2 z m -7.2,5.4 c 0.5,0.1 1.1,0.4 1.6,1 0.5,0.5 0.9,1 1.1,1.6 0.2,0.6 0.1,1.1 -0.2,1.4 -0.7,0.7 -1.8,0.5 -3.1,-0.5 -0.6,-0.5 -1,-1.1 -1.1,-1.8 -0.1,-0.6 0,-1.1 0.4,-1.5 0.3,-0.2 0.7,-0.3 1.3,-0.2 z"
         style="fill:#ffffff" /><polygon
         id="polygon32"
         class="st0"
         points="219.6,408.7 212,416.3 204.3,408.8 202.8,410.3 211.7,419.2 220.9,409.9 "
         style="fill:#ffffff" /><path
         id="path34"
         inkscape:connector-curvature="0"
         class="st0"
         d="m 226.9,402.8 c -0.1,-1 -0.7,-2.1 -1.8,-3.1 -1,-1 -2.1,-1.6 -3.3,-1.9 -1.1,-0.2 -2.1,0.1 -2.9,0.9 -0.6,0.6 -0.9,1.3 -0.9,2.1 l -0.1,-0.1 c -1.1,-1 -1.9,-2.1 -2.3,-3.4 -0.5,-1.1 -0.7,-2.2 -0.6,-3.3 0.1,-1 0.5,-2 1.2,-2.6 0.8,-0.9 1.9,-1.1 3.1,-0.9 1.1,0.3 2.6,1.1 4.1,2.7 l 7,6.9 1.5,-1.6 -7,-6.8 c -2,-2 -3.8,-3.1 -5.4,-3.4 -1.6,-0.3 -3.2,0.3 -4.6,1.8 -1,1 -1.6,2.2 -1.9,3.7 -0.2,1.4 0,2.9 0.6,4.4 0.6,1.5 1.8,3.1 3.2,4.5 4,4 7.1,4.9 9,3 1,-0.8 1.4,-1.7 1.1,-2.9 z m -3.5,2 c -0.5,-0.1 -1.1,-0.4 -1.8,-0.9 v 0 c -0.1,-0.1 -0.2,-0.2 -0.4,-0.3 -0.6,-0.6 -1,-1.2 -1.1,-1.8 -0.1,-0.6 0,-1 0.3,-1.4 0.4,-0.4 0.9,-0.5 1.5,-0.3 0.6,0.2 1.2,0.6 1.9,1.2 0.6,0.6 1,1.1 1.2,1.8 0.2,0.6 0.1,1 -0.3,1.4 -0.4,0.3 -0.8,0.4 -1.3,0.3 z"
         style="fill:#ffffff" /><polygon
         id="polygon36"
         class="st0"
         points="233,379.8 231.4,381.4 239,389 234.2,393.8 226.5,386.3 225,387.9 233.9,396.7 241.9,388.6 "
         style="fill:#ffffff" /><polygon
         id="polygon38"
         class="st0"
         points="242.6,372.6 244.6,370.7 243.2,369.4 234.9,377.9 243.9,386.7 245.5,385 237.8,377.6 241,374.3 248.7,381.9 250.2,380.2 "
         style="fill:#ffffff" /><path
         id="path40"
         inkscape:connector-curvature="0"
         class="st0"
         d="m 263.6,415.3 c 0.3,0.7 0.7,1.3 1.2,2 0.9,0.9 1.9,1.4 2.8,1.4 0.9,0.1 1.8,-0.3 2.6,-1 0.6,-0.6 0.9,-1.3 0.9,-2.1 0,-0.8 -0.2,-1.4 -0.7,-2.1 -0.3,-0.3 -0.7,-0.5 -1.1,-0.6 -0.4,-0.1 -0.9,-0.1 -1.3,0 -0.5,0.1 -0.9,0.4 -1.3,0.8 -0.2,0.2 -0.4,0.5 -0.5,0.8 -0.1,0.3 -0.2,0.6 -0.2,0.8 -0.3,-0.5 -0.5,-1.1 -0.4,-1.6 0.1,-0.6 0.4,-1.1 0.9,-1.8 0.7,-0.7 1.6,-1 2.7,-0.9 1,0.1 2.1,0.6 2.9,1.5 0.6,0.6 1.1,1.3 1.3,2.1 0.3,0.8 0.3,1.5 0.2,2.2 -0.1,0.7 -0.4,1.3 -0.9,1.9 -0.4,0.4 -0.8,0.7 -1.2,0.8 -0.4,0.1 -0.9,0.2 -1.4,0.2 l -0.2,2 c 0.8,0 1.6,-0.1 2.3,-0.4 0.7,-0.3 1.3,-0.7 2,-1.3 0.8,-0.8 1.3,-1.8 1.5,-2.9 0.2,-1.1 0.2,-2.1 -0.2,-3.3 -0.3,-1.1 -0.9,-2.1 -1.9,-3 -0.9,-0.9 -1.9,-1.5 -2.9,-1.9 -1,-0.3 -2,-0.4 -3,-0.1 -0.9,0.2 -1.9,0.8 -2.7,1.6 -0.8,0.8 -1.2,1.5 -1.4,2.4 -0.3,1 -0.2,1.8 0,2.5 z m 4.6,-0.8 c 0.3,0 0.6,0.1 0.8,0.3 0.2,0.2 0.3,0.5 0.3,0.8 0,0.3 -0.1,0.6 -0.4,0.8 -0.2,0.2 -0.5,0.3 -0.8,0.4 -0.3,0 -0.6,-0.1 -0.8,-0.3 -0.2,-0.2 -0.3,-0.5 -0.3,-0.8 0,-0.3 0.1,-0.6 0.4,-0.8 0.3,-0.2 0.5,-0.4 0.8,-0.4 z"
         style="fill:#ffffff" /><path
         id="path42"
         inkscape:connector-curvature="0"
         class="st0"
         d="m 255.8,423.2 c 0.3,0.7 0.7,1.3 1.2,2 0.9,0.9 1.9,1.4 2.8,1.4 0.9,0.1 1.8,-0.3 2.6,-1 0.6,-0.6 0.9,-1.3 0.9,-2.1 0,-0.8 -0.2,-1.4 -0.7,-2.1 -0.3,-0.3 -0.7,-0.5 -1.1,-0.6 -0.4,-0.1 -0.9,-0.1 -1.3,0 -0.5,0.1 -0.9,0.4 -1.3,0.8 -0.2,0.2 -0.4,0.5 -0.5,0.8 -0.1,0.3 -0.2,0.6 -0.2,0.8 -0.3,-0.5 -0.5,-1.1 -0.4,-1.6 0.1,-0.6 0.4,-1.1 0.9,-1.8 0.7,-0.7 1.6,-1 2.7,-0.9 1,0.1 2.1,0.6 2.9,1.5 0.6,0.6 1.1,1.3 1.3,2.1 0.3,0.8 0.3,1.5 0.2,2.2 -0.1,0.7 -0.4,1.3 -0.9,1.9 -0.4,0.4 -0.8,0.7 -1.2,0.8 -0.4,0.1 -0.9,0.2 -1.4,0.2 l -0.2,2 c 0.8,0 1.6,-0.1 2.3,-0.4 0.7,-0.3 1.3,-0.7 2,-1.3 0.8,-0.8 1.3,-1.8 1.5,-2.9 0.2,-1.1 0.2,-2.1 -0.2,-3.3 -0.3,-1.1 -0.9,-2.1 -1.9,-3 -0.9,-0.9 -1.9,-1.5 -2.9,-1.9 -1,-0.3 -2,-0.4 -3,-0.1 -0.9,0.2 -1.9,0.8 -2.7,1.6 -0.8,0.8 -1.2,1.5 -1.4,2.4 -0.3,1 -0.3,1.8 0,2.5 z m 4.7,-0.8 c 0.3,0 0.6,0.1 0.8,0.3 0.2,0.2 0.3,0.5 0.3,0.8 0,0.3 -0.1,0.6 -0.4,0.8 -0.2,0.2 -0.5,0.3 -0.8,0.4 -0.3,0 -0.6,-0.1 -0.8,-0.3 -0.2,-0.2 -0.3,-0.5 -0.3,-0.8 0,-0.3 0.1,-0.6 0.4,-0.8 0.1,-0.2 0.4,-0.4 0.8,-0.4 z"
         style="fill:#ffffff" /><path
         id="path44"
         inkscape:connector-curvature="0"
         class="st0"
         d="m 262.8,435.6 c 0.3,-1 0.2,-2.1 -0.2,-3.1 l -2.1,1.1 c 0.2,0.5 0.2,1.1 0.1,1.8 -0.2,0.6 -0.4,1.1 -0.9,1.5 -0.9,0.9 -2.1,1.3 -3.3,1.1 -1.2,-0.2 -2.8,-1.1 -4.6,-3 -1.4,-1.3 -2.2,-2.7 -2.4,-3.8 -0.2,-1.1 0.1,-2.2 1.1,-3.2 0.8,-0.8 1.6,-1.2 2.6,-1.1 1,0.1 1.6,0.5 2.3,1.1 0.6,0.6 0.9,1.2 1,1.9 0.1,0.6 0,1.1 -0.4,1.5 -0.2,0.2 -0.5,0.4 -0.8,0.5 l 0.7,1.9 c 0.7,-0.2 1.2,-0.5 1.8,-1 0.5,-0.5 0.8,-1.1 1,-1.9 0.1,-0.7 0.1,-1.4 -0.2,-2.2 -0.3,-0.7 -0.8,-1.5 -1.4,-2.1 -0.6,-0.6 -1.4,-1.1 -2.2,-1.4 -0.8,-0.3 -1.8,-0.4 -2.8,-0.1 -1,0.2 -2,0.8 -2.9,1.8 -3,3.1 -2.7,6.4 1.1,10.2 4.3,4.2 7.9,4.7 11.1,1.6 0.5,-1.1 1.1,-2 1.4,-3.1 z"
         style="fill:#ffffff" /><path
         id="path46"
         inkscape:connector-curvature="0"
         class="st0"
         d="m 244.8,445.1 -0.2,2 c 0.8,0 1.6,-0.1 2.3,-0.4 0.7,-0.3 1.3,-0.7 2,-1.3 0.8,-0.8 1.3,-1.8 1.5,-2.9 0.2,-1.1 0.2,-2.1 -0.2,-3.3 -0.3,-1.1 -0.9,-2.1 -1.9,-3 -0.9,-0.9 -1.9,-1.5 -2.9,-1.9 -1,-0.3 -2,-0.4 -3,-0.1 -0.9,0.2 -1.9,0.8 -2.7,1.6 -0.8,0.8 -1.2,1.5 -1.4,2.4 -0.2,0.8 -0.1,1.6 0.1,2.3 0.3,0.7 0.7,1.3 1.2,2 0.9,0.9 1.9,1.4 2.8,1.4 0.9,0.1 1.8,-0.3 2.6,-1 0.6,-0.6 0.9,-1.3 0.9,-2.1 0,-0.8 -0.2,-1.4 -0.7,-2.1 -0.3,-0.3 -0.7,-0.5 -1.1,-0.6 -0.4,-0.1 -0.9,-0.1 -1.3,0 -0.5,0.1 -0.9,0.4 -1.3,0.8 -0.2,0.2 -0.4,0.5 -0.5,0.8 -0.1,0.3 -0.2,0.6 -0.2,0.8 -0.3,-0.5 -0.5,-1.1 -0.4,-1.6 0.1,-0.6 0.4,-1.1 0.9,-1.8 0.7,-0.7 1.6,-1 2.7,-0.9 1,0.1 2.1,0.6 2.9,1.5 0.6,0.6 1.1,1.3 1.3,2.1 0.3,0.8 0.3,1.5 0.2,2.2 -0.1,0.7 -0.4,1.3 -0.9,1.9 -0.4,0.4 -0.8,0.7 -1.2,0.8 -0.5,0.3 -1,0.4 -1.5,0.4 z m -1.6,-5.3 c 0.3,0 0.6,0.1 0.8,0.3 0.2,0.2 0.3,0.5 0.3,0.8 0,0.3 -0.1,0.6 -0.4,0.8 -0.2,0.2 -0.5,0.3 -0.8,0.4 -0.3,0 -0.6,-0.1 -0.8,-0.3 -0.2,-0.2 -0.3,-0.5 -0.3,-0.8 0,-0.3 0.1,-0.6 0.4,-0.8 0.3,-0.3 0.5,-0.4 0.8,-0.4 z"
         style="fill:#ffffff" /><path
         id="path48"
         inkscape:connector-curvature="0"
         class="st0"
         d="m 242.5,452.2 c 0.7,-0.7 1,-1.4 1.1,-2.2 0,-0.8 -0.2,-1.5 -0.8,-2.1 -0.3,-0.2 -0.5,-0.4 -0.9,-0.6 -0.3,-0.1 -0.7,-0.2 -1.1,-0.2 0.1,-0.6 0,-1.2 -0.2,-1.9 -0.2,-0.6 -0.6,-1.1 -1.1,-1.6 -0.8,-0.8 -1.6,-1.2 -2.7,-1.3 -1,-0.1 -2,0 -3,0.4 -1,0.4 -2,1 -2.8,2 -0.8,0.8 -1.4,1.8 -1.9,2.8 -0.4,1 -0.5,2.1 -0.4,3 0.1,1 0.6,1.9 1.4,2.7 0.5,0.5 1,0.8 1.6,1 0.6,0.2 1.2,0.3 1.9,0.2 0,0.4 0.1,0.7 0.2,1.1 0.2,0.3 0.3,0.6 0.6,0.9 0.6,0.6 1.3,0.9 2.1,0.8 0.8,-0.1 1.6,-0.4 2.2,-1.1 0.3,-0.4 0.6,-0.7 0.8,-1.2 0.2,-0.4 0.3,-0.9 0.3,-1.3 0.4,0 0.9,-0.1 1.3,-0.3 0.4,-0.2 1.1,-0.8 1.4,-1.1 z m -7.4,-0.8 c -0.5,0.5 -1.1,0.8 -1.8,0.8 -0.7,0 -1.1,-0.3 -1.6,-0.8 -0.7,-0.7 -0.9,-1.5 -0.7,-2.6 0.2,-1 0.7,-2 1.6,-2.9 0.9,-0.9 1.9,-1.4 2.9,-1.6 1,-0.2 1.9,0 2.6,0.7 0.5,0.5 0.8,1 0.8,1.6 0,0.6 -0.2,1.2 -0.7,1.8 z m 1.6,3.7 c -0.3,0 -0.6,-0.1 -0.9,-0.3 -0.1,-0.1 -0.2,-0.3 -0.3,-0.5 -0.1,-0.2 -0.1,-0.4 -0.1,-0.6 0.3,-0.2 0.7,-0.5 1,-0.8 l 0.8,-0.8 c 0.1,0.1 0.2,0.2 0.5,0.4 0.4,0.4 0.6,0.8 0.5,1.2 0,0.4 -0.2,0.8 -0.5,1.1 -0.3,0 -0.7,0.3 -1,0.3 z m 3.4,-3.6 c -0.4,0 -0.8,-0.1 -1.2,-0.5 -0.2,-0.2 -0.3,-0.4 -0.4,-0.4 l 0.8,-0.8 c 0.3,-0.3 0.6,-0.7 0.8,-1 0.2,0 0.4,0 0.6,0.1 0.2,0.1 0.4,0.2 0.5,0.3 0.3,0.3 0.4,0.6 0.4,0.9 0,0.3 -0.2,0.7 -0.5,1 -0.2,0.2 -0.5,0.4 -1,0.4 z"
         style="fill:#ffffff" /><path
         id="path50"
         inkscape:connector-curvature="0"
         class="st0"
         d="m 232.7,457.6 c 0,0.4 -0.1,0.7 -0.4,1 -0.4,0.4 -0.9,0.4 -1.6,0.2 -0.7,-0.2 -1.6,-0.9 -2.7,-1.9 -1,-1 -1.6,-2 -2,-2.7 -0.2,-0.7 -0.2,-1.3 0.2,-1.6 0.3,-0.3 0.6,-0.4 1,-0.4 l -0.1,-1.8 c -0.9,-0.1 -1.8,0.2 -2.3,0.9 -0.5,0.5 -0.8,1.1 -0.9,1.9 -0.1,0.7 0,1.5 0.4,2.4 0.4,0.9 1.1,1.9 2.1,2.9 1,1 2,1.6 2.9,2.1 0.9,0.5 1.8,0.5 2.4,0.3 0.7,-0.1 1.3,-0.5 1.9,-1 0.6,-0.6 0.9,-1.4 0.9,-2.3 z"
         style="fill:#ffffff" /><path
         id="path52"
         inkscape:connector-curvature="0"
         class="st0"
         d="m 255.9,398.4 c -0.5,-0.9 -1.1,-1.9 -2,-2.7 -1.1,-1.1 -2.3,-1.8 -3.5,-2 -1.1,-0.1 -2.1,0.2 -3.1,1.1 -0.8,0.8 -1.2,1.9 -1,3 0.1,1.1 0.8,2.2 2,3.4 1.9,1.9 3.9,2.7 6.1,2.4 -0.3,0.6 -0.6,1.1 -1.1,1.6 -1.1,1.1 -2.2,1.6 -3.6,1.6 -1.3,0 -2.6,-0.6 -3.7,-1.9 -0.8,-0.8 -1.3,-1.6 -1.4,-2.6 -0.2,-0.9 0,-1.8 0.5,-2.3 l -1.5,-1.1 c -0.9,1.2 -1.2,2.4 -1,3.9 0.2,1.4 0.9,2.7 2.1,3.9 1.1,1.1 2.2,1.8 3.5,2.1 1.2,0.3 2.3,0.2 3.5,-0.2 1.1,-0.4 2.1,-1 3,-2 1,-1.1 1.8,-2.2 2.1,-3.6 0.7,-0.3 1.4,-0.6 2.1,-1 0.6,-0.4 1.2,-0.9 1.6,-1.3 0.9,-0.9 1.5,-2 2.1,-3.2 0.4,-1.2 0.5,-2.4 0.3,-3.9 -0.3,-1.3 -1,-2.6 -2.1,-3.8 -0.8,-0.8 -1.6,-1.3 -2.4,-1.8 -0.8,-0.5 -1.6,-0.5 -2.4,-0.5 -0.8,0.1 -1.5,0.4 -2.1,1 -0.8,0.8 -1.1,1.6 -1,2.7 0.1,1 0.6,2.1 1.5,3 0.6,0.6 1.3,1 2,1.3 0.7,0.2 1.3,0.3 2,0.1 0.6,-0.1 1.1,-0.4 1.5,-0.8 0.5,-0.5 0.7,-1 0.8,-1.8 0.5,1.1 0.6,2.2 0.4,3.3 -0.3,1.1 -0.7,2.1 -1.4,2.8 -0.7,0.7 -1.5,1.3 -2.3,1.6 -0.8,-0.5 -1,-1.4 -1.5,-2.3 z m -6,1.2 c -0.7,-0.7 -1.2,-1.3 -1.4,-2 -0.3,-0.6 -0.2,-1.1 0.2,-1.5 0.4,-0.4 1,-0.5 1.6,-0.3 0.7,0.2 1.3,0.7 2.1,1.4 0.7,0.7 1.2,1.4 1.6,2.1 0.4,0.8 0.7,1.5 0.7,2.3 -1.6,0.2 -3.3,-0.5 -4.8,-2 z m 7.2,-5.3 c -0.5,-0.1 -1.1,-0.4 -1.6,-1 -0.5,-0.5 -0.9,-1 -1.1,-1.6 -0.2,-0.6 -0.1,-1.1 0.2,-1.4 0.7,-0.7 1.8,-0.5 3.1,0.5 0.6,0.5 1,1.1 1.1,1.8 0.1,0.7 0,1.1 -0.4,1.5 -0.3,0.2 -0.8,0.3 -1.3,0.2 z"
         style="fill:#ffffff" /><polygon
         id="polygon54"
         class="st0"
         points="230.8,415.1 238.4,407.5 246,415 247.5,413.4 238.7,404.6 229.5,413.8 "
         style="fill:#ffffff" /><path
         id="path56"
         inkscape:connector-curvature="0"
         class="st0"
         d="m 236.6,425.6 c -0.6,-1.5 -1.8,-3.1 -3.2,-4.5 -4,-4 -7.1,-4.9 -9,-3 -0.8,0.8 -1.1,1.8 -1,2.9 0.1,1 0.7,2.1 1.8,3.1 1,1 2.1,1.6 3.3,1.9 1.1,0.2 2.1,-0.1 2.9,-0.9 0.6,-0.6 0.9,-1.3 0.9,-2.1 l 0.1,0.1 c 1.1,1 1.9,2.1 2.3,3.4 0.5,1.1 0.7,2.2 0.6,3.3 -0.1,1 -0.5,2 -1.2,2.6 -0.8,0.9 -1.9,1.1 -3.1,0.9 -1.1,-0.3 -2.6,-1.1 -4.1,-2.7 l -7,-6.9 -1.5,1.6 7.1,7 c 2,2 3.8,3.1 5.4,3.4 1.6,0.3 3.2,-0.3 4.6,-1.8 1,-1 1.6,-2.2 1.9,-3.7 0,-1.6 -0.2,-3.1 -0.8,-4.6 z m -8.2,-1.8 c -0.6,-0.2 -1.2,-0.6 -1.9,-1.2 -0.6,-0.6 -1,-1.1 -1.2,-1.8 -0.2,-0.6 -0.1,-1 0.3,-1.4 0.4,-0.4 0.8,-0.5 1.3,-0.3 0.5,0.1 1.1,0.4 1.8,0.9 v 0 c 0.1,0.1 0.2,0.2 0.4,0.3 0.6,0.6 1,1.2 1.1,1.8 0.1,0.6 0,1 -0.3,1.4 -0.4,0.4 -0.9,0.5 -1.5,0.3 z"
         style="fill:#ffffff" /><polygon
         id="polygon58"
         class="st0"
         points="217.4,443.9 219,442.3 211.4,434.8 216.2,429.9 223.8,437.5 225.4,435.8 216.4,427 208.4,435.1 "
         style="fill:#ffffff" /><polygon
         id="polygon60"
         class="st0"
         points="207.8,451.1 205.8,453.1 207.1,454.4 215.4,446 206.5,437.1 204.9,438.7 212.5,446.3 209.3,449.4 201.7,442 200.1,443.5 "
         style="fill:#ffffff" /></g><g
       class="st1"
       id="g59"
       style="opacity:0.85;enable-background:new"><path
         d="m 105.1,778.2 c 0.1,0.1 0.1,0.2 0.1,0.4 h -4.7 v -0.5 h 1.3 l -1.5,-3.8 h -4 l -1.4,3.8 h 1 c 0.2,0 0.3,0.1 0.4,0.1 0.1,0 0.1,0.2 0.1,0.4 h -3.5 v -0.5 h 1.2 l 4.3,-11.2 h 1.1 l 4.5,11.2 h 0.6 c 0.3,0 0.5,0 0.5,0.1 z m -5,-4.5 -1.8,-4.6 -1.8,4.6 z"
         id="path29"
         inkscape:connector-curvature="0" /><path
         d="m 109.1,775.1 v 2.9 h 1 c 0.2,0 0.3,0.1 0.4,0.1 0.1,0 0.1,0.2 0.1,0.4 h -4.9 V 778 c 0.5,0 0.9,-0.1 1.1,-0.2 0.2,-0.2 0.3,-0.4 0.3,-0.9 v -10.6 h -1.5 v -0.5 h 3.5 v 8.5 l 3.8,-3.6 h -1.4 v -0.5 h 3.3 c 0,0.2 -0.1,0.3 -0.1,0.4 -0.1,0.1 -0.2,0.1 -0.4,0.1 -0.3,0 -0.5,0.1 -0.6,0.2 -0.2,0.1 -0.4,0.3 -0.7,0.6 l -1.6,1.5 3.1,5.1 h 0.5 c 0.2,0 0.3,0.1 0.4,0.1 0.1,0.1 0.1,0.2 0.1,0.4 h -2.9 l -2.6,-4.3 z"
         id="path31"
         inkscape:connector-curvature="0" /><path
         d="m 122.5,778.6 -0.1,-1.8 c -0.3,0.6 -0.7,1.1 -1.2,1.5 -0.5,0.4 -1.1,0.5 -1.7,0.5 -1.9,0 -2.8,-1.1 -2.8,-3.3 v -4.8 h -1.3 v -0.5 h 3.3 v 5.6 c 0,0.7 0.2,1.2 0.4,1.5 0.3,0.3 0.7,0.5 1.2,0.5 0.3,0 0.6,-0.1 1,-0.3 0.4,-0.2 0.5,-0.5 0.7,-0.9 0.2,-0.4 0.3,-0.9 0.3,-1.4 v -4.6 H 121 v -0.5 h 3.2 v 7.9 h 0.8 c 0.2,0 0.3,0.1 0.4,0.1 0.1,0.1 0.1,0.2 0.1,0.4 z"
         id="path33"
         inkscape:connector-curvature="0" /><path
         d="m 133.5,770.4 c 0.3,0.2 0.4,0.5 0.4,0.9 0,0.3 -0.1,0.5 -0.3,0.7 -0.2,0.2 -0.4,0.3 -0.7,0.3 -0.3,0 -0.4,-0.1 -0.6,-0.2 -0.1,-0.1 -0.3,-0.3 -0.4,-0.5 -0.1,-0.2 -0.2,-0.3 -0.3,-0.4 -0.1,-0.1 -0.2,-0.1 -0.3,-0.1 -0.1,0 -0.3,0.1 -0.6,0.3 -0.2,0.2 -0.4,0.5 -0.6,0.9 -0.2,0.4 -0.3,0.9 -0.4,1.5 v 4.3 h 1.4 c 0.2,0 0.3,0.1 0.4,0.1 0.1,0.1 0.1,0.2 0.1,0.4 h -5.2 v -0.5 c 0.5,0 0.9,-0.1 1,-0.2 0.2,-0.2 0.3,-0.4 0.3,-0.9 v -6.2 h -1.3 v -0.5 h 3.1 l 0.1,1.9 c 0.3,-0.6 0.6,-1.1 1.2,-1.5 0.5,-0.4 1.1,-0.5 1.6,-0.5 0.5,-0.1 0.9,0 1.1,0.2 z"
         id="path35"
         inkscape:connector-curvature="0" /><path
         d="m 141.1,778.6 -0.1,-1.8 c -0.3,0.6 -0.7,1.1 -1.2,1.5 -0.5,0.4 -1.1,0.5 -1.7,0.5 -1.9,0 -2.8,-1.1 -2.8,-3.3 v -4.8 H 134 v -0.5 h 3.3 v 5.6 c 0,0.7 0.2,1.2 0.4,1.5 0.3,0.3 0.7,0.5 1.2,0.5 0.3,0 0.6,-0.1 1,-0.3 0.4,-0.2 0.5,-0.5 0.7,-0.9 0.2,-0.4 0.3,-0.9 0.3,-1.4 v -4.6 h -1.3 v -0.5 h 3.2 v 7.9 h 0.8 c 0.2,0 0.3,0.1 0.4,0.1 0.1,0.1 0.1,0.2 0.1,0.4 z"
         id="path37"
         inkscape:connector-curvature="0" /><path
         d="m 152.3,777.9 c -0.9,-0.6 -1.6,-1.3 -2.1,-2.2 -0.5,-1 -0.7,-1.9 -0.7,-3 0,-1.1 0.2,-2 0.7,-2.9 0.5,-0.9 1.2,-1.6 2.1,-2.2 0.9,-0.6 2,-0.9 3.3,-0.9 0.7,0 1.5,0.1 2.1,0.3 0.6,0.2 1.2,0.4 1.6,0.7 0,-0.4 0,-0.6 0.1,-0.7 0.1,-0.1 0.3,-0.2 0.5,-0.2 l 0.1,3.7 h -0.6 c -0.3,-1.1 -0.7,-1.9 -1.4,-2.4 -0.6,-0.5 -1.4,-0.8 -2.3,-0.8 -1.2,0 -2.1,0.5 -2.7,1.4 -0.6,0.9 -1,2.3 -1,4 0,1.8 0.3,3.1 0.9,4.1 0.6,1 1.5,1.4 2.8,1.4 1,0 1.8,-0.3 2.4,-0.8 0.6,-0.5 1.1,-1.4 1.4,-2.5 h 0.6 v 3.8 c -0.3,0 -0.4,-0.1 -0.5,-0.2 -0.1,-0.1 -0.1,-0.4 -0.1,-0.7 -1.2,0.7 -2.5,1 -3.8,1 -1.4,0 -2.5,-0.3 -3.4,-0.9 z"
         id="path39"
         inkscape:connector-curvature="0" /><path
         d="m 169.4,776.7 c -0.4,0.7 -0.9,1.2 -1.6,1.6 -0.7,0.4 -1.4,0.5 -2.2,0.5 -0.8,0 -1.5,-0.2 -2.2,-0.5 -0.6,-0.4 -1.2,-0.9 -1.5,-1.6 -0.4,-0.7 -0.6,-1.4 -0.6,-2.3 0,-0.9 0.2,-1.6 0.6,-2.3 0.4,-0.6 1,-1.2 1.6,-1.5 0.7,-0.4 1.4,-0.5 2.2,-0.5 0.8,0 1.5,0.2 2.2,0.5 0.6,0.4 1.2,0.9 1.5,1.5 0.3,0.6 0.6,1.4 0.6,2.3 0,0.8 -0.1,1.6 -0.6,2.3 z m -2,0.6 c 0.3,-0.7 0.5,-1.6 0.5,-3 0,-1.3 -0.2,-2.2 -0.5,-2.9 -0.3,-0.6 -0.9,-1 -1.7,-1 -0.8,0 -1.3,0.3 -1.7,1 -0.3,0.6 -0.5,1.6 -0.5,2.9 0,1.3 0.2,2.2 0.5,2.9 0.3,0.6 0.9,1 1.7,1 0.8,0.1 1.3,-0.3 1.7,-0.9 z"
         id="path41"
         inkscape:connector-curvature="0" /><path
         d="m 171.2,778.6 v -0.5 c 0.6,0 1,-0.1 1.2,-0.2 0.2,-0.2 0.3,-0.4 0.3,-0.9 v -10.6 h -1.5 v -0.5 h 3.5 v 12.2 h 1 c 0.2,0 0.3,0.1 0.4,0.1 0.1,0.1 0.1,0.2 0.1,0.4 z"
         id="path43"
         inkscape:connector-curvature="0" /><path
         d="m 177,778.6 v -0.5 c 0.6,0 1,-0.1 1.2,-0.2 0.2,-0.2 0.3,-0.4 0.3,-0.9 V 766.4 H 177 v -0.5 h 3.5 v 12.2 h 1 c 0.2,0 0.3,0.1 0.4,0.1 0.1,0 0.1,0.2 0.1,0.4 z"
         id="path45"
         inkscape:connector-curvature="0" /><path
         d="m 189.4,777.7 c 0.5,-0.3 0.8,-0.7 1.1,-1.3 l 0.5,0.2 c -0.3,0.7 -0.7,1.2 -1.3,1.6 -0.6,0.4 -1.3,0.5 -2.2,0.5 -0.8,0 -1.5,-0.2 -2.1,-0.5 -0.6,-0.3 -1.2,-0.9 -1.5,-1.5 -0.3,-0.6 -0.6,-1.4 -0.6,-2.4 0,-0.9 0.2,-1.6 0.5,-2.3 0.4,-0.6 0.9,-1.2 1.5,-1.5 0.6,-0.4 1.4,-0.5 2.2,-0.5 0.7,0 1.3,0.1 1.9,0.3 0.6,0.2 1,0.5 1.3,1 0.3,0.4 0.5,0.9 0.5,1.4 0,0.6 -0.3,1.1 -0.9,1.3 -0.6,0.2 -1.5,0.3 -2.8,0.3 l -2.1,-0.1 c 0.1,2.6 0.9,3.9 2.5,3.9 0.5,0.1 1,0 1.5,-0.4 z m -3.5,-6.4 c -0.4,0.5 -0.6,1.3 -0.6,2.4 l 1.6,0.1 c 0.7,0 1.3,-0.1 1.6,-0.2 0.3,-0.1 0.4,-0.5 0.4,-1 0,-0.6 -0.2,-1.1 -0.4,-1.5 -0.3,-0.4 -0.7,-0.6 -1.2,-0.6 -0.5,0 -0.9,0.3 -1.4,0.8 z"
         id="path47"
         inkscape:connector-curvature="0" /><path
         d="m 198.71531,770.3 c 0.5,0.2 0.9,0.5 1.2,0.8 0.3,0.3 0.4,0.6 0.4,1 0,0.3 -0.1,0.5 -0.3,0.6 -0.2,0.1 -0.4,0.3 -0.7,0.3 -0.4,0 -0.7,-0.1 -0.8,-0.3 -0.1,-0.2 -0.2,-0.5 -0.3,-0.9 -0.1,-0.4 -0.2,-0.8 -0.3,-1 -0.2,-0.2 -0.5,-0.3 -1,-0.3 -1.4,0 -2.2,1.3 -2.2,3.9 0,1.3 0.2,2.3 0.6,2.9 0.4,0.6 1,0.9 1.8,0.9 0.6,0 1.2,-0.2 1.7,-0.5 0.5,-0.3 0.9,-0.7 1.1,-1.3 l 0.5,0.2 c -0.3,0.7 -0.7,1.2 -1.4,1.6 -0.6,0.4 -1.4,0.5 -2.2,0.5 -0.8,0 -1.5,-0.2 -2.2,-0.5 -0.7,-0.3 -1.2,-0.8 -1.5,-1.5 -0.4,-0.7 -0.6,-1.4 -0.6,-2.3 0,-0.9 0.2,-1.6 0.5,-2.3 0.4,-0.7 0.9,-1.2 1.5,-1.5 0.6,-0.4 1.4,-0.5 2.2,-0.5 0.9,-0.1 1.5,0 2,0.2 z"
         id="path49"
         inkscape:connector-curvature="0" /><path
         d="m 207.21531,776.5 c -0.2,0.8 -0.4,1.4 -0.8,1.8 -0.4,0.3 -0.9,0.5 -1.5,0.5 -0.7,0 -1.3,-0.2 -1.8,-0.6 -0.5,-0.4 -0.7,-1.2 -0.7,-2.2 v -5.2 h -1.3 v -0.5 h 1.3 v -1.9 l 2,-0.4 v 2.3 h 2.8 v 0.5 h -2.9 v 6 c 0,0.5 0.1,0.9 0.3,1.1 0.2,0.3 0.4,0.4 0.7,0.4 0.6,0 1.1,-0.6 1.4,-1.8 z"
         id="path51"
         inkscape:connector-curvature="0" /><path
         d="m 207.91531,778.6 v -0.5 c 0.5,0 0.9,-0.1 1.1,-0.2 0.2,-0.2 0.3,-0.4 0.3,-0.9 v -6.2 h -1.3 v -0.5 h 3.3 v 7.9 h 0.9 c 0.2,0 0.3,0.1 0.4,0.1 0.1,0 0.1,0.2 0.1,0.4 h -4.8 z m 1.4,-10.2 c -0.3,-0.3 -0.4,-0.5 -0.4,-0.9 0,-0.4 0.1,-0.6 0.4,-0.9 0.3,-0.3 0.5,-0.4 0.9,-0.4 0.3,0 0.6,0.1 0.9,0.4 0.3,0.3 0.4,0.5 0.4,0.9 0,0.4 -0.1,0.6 -0.4,0.9 -0.3,0.3 -0.5,0.4 -0.9,0.4 -0.4,0 -0.7,-0.2 -0.9,-0.4 z"
         id="path53"
         inkscape:connector-curvature="0" /><path
         d="m 221.71531,770.2 c 0,0.2 0,0.4 -0.1,0.4 -0.1,0 -0.2,0.1 -0.4,0.1 -0.2,0 -0.3,0.1 -0.4,0.2 -0.1,0.1 -0.2,0.3 -0.3,0.5 l -2.8,7.3 h -0.5 c -0.3,0 -0.4,-0.1 -0.6,-0.1 -0.2,-0.1 -0.3,-0.2 -0.4,-0.4 -0.1,-0.2 -0.3,-0.5 -0.4,-0.9 l -2.4,-6.5 h -0.8 v -0.5 h 4.1 v 0.5 h -1.3 l 2.3,6.3 2.4,-6.3 h -1.5 v -0.5 z"
         id="path55"
         inkscape:connector-curvature="0" /><path
         d="m 228.21531,777.7 c 0.5,-0.3 0.8,-0.7 1.1,-1.3 l 0.5,0.2 c -0.3,0.7 -0.7,1.2 -1.3,1.6 -0.6,0.4 -1.3,0.5 -2.2,0.5 -0.8,0 -1.5,-0.2 -2.1,-0.5 -0.6,-0.3 -1.2,-0.9 -1.5,-1.5 -0.3,-0.6 -0.6,-1.4 -0.6,-2.4 0,-0.9 0.2,-1.6 0.5,-2.3 0.4,-0.6 0.9,-1.2 1.5,-1.5 0.6,-0.4 1.4,-0.5 2.2,-0.5 0.7,0 1.3,0.1 1.9,0.3 0.6,0.2 1,0.5 1.3,1 0.3,0.4 0.5,0.9 0.5,1.4 0,0.6 -0.3,1.1 -0.9,1.3 -0.6,0.2 -1.5,0.3 -2.8,0.3 l -2.1,-0.1 c 0.1,2.6 0.9,3.9 2.5,3.9 0.5,0.1 1.1,0 1.5,-0.4 z m -3.4,-6.4 c -0.4,0.5 -0.6,1.3 -0.6,2.4 l 1.6,0.1 c 0.7,0 1.3,-0.1 1.6,-0.2 0.3,-0.1 0.4,-0.5 0.4,-1 0,-0.6 -0.2,-1.1 -0.4,-1.5 -0.3,-0.4 -0.7,-0.6 -1.2,-0.6 -0.6,0 -1,0.3 -1.4,0.8 z"
         id="path57"
         inkscape:connector-curvature="0" /></g><g
       class="st1"
       id="g79"
       style="opacity:0.85;enable-background:new"
       transform="translate(-80,-2)"><path
         d="m 180.4,803.7 c 1.2,-0.2 2.1,-0.5 2.9,-1.1 v 0.7 c -0.7,0.5 -1.7,0.8 -2.9,1 v 4.6 h -0.6 v -4.6 c -0.5,0.1 -1,0.1 -1.6,0.1 -1.7,0 -3,-0.3 -3.9,-1 -0.9,-0.6 -1.4,-1.5 -1.4,-2.6 0,-1 0.3,-1.7 1,-2.3 0.6,-0.6 1.5,-0.9 2.6,-0.9 h 2.4 c 0,-0.5 -0.2,-0.9 -0.4,-1.2 -0.3,-0.3 -0.6,-0.5 -1.1,-0.5 -0.3,0 -0.6,0.1 -0.7,0.2 -0.1,0.1 -0.3,0.3 -0.4,0.5 -0.2,0.4 -0.5,0.6 -1,0.6 -0.2,0 -0.4,-0.1 -0.6,-0.2 -0.2,-0.2 -0.3,-0.4 -0.3,-0.6 0,-0.4 0.2,-0.7 0.6,-1 0.4,-0.3 1,-0.4 1.6,-0.4 0.9,0 1.6,0.3 2.1,0.8 0.5,0.5 0.7,1.3 0.7,2.2 v 0.1 H 178 c -1.1,0 -1.8,0.3 -2.2,0.9 -0.4,0.5 -0.6,1.1 -0.6,1.8 0,0.9 0.3,1.5 0.9,2.1 0.6,0.5 1.5,0.8 2.6,0.8 h 0.9 v -6 c 0,-0.9 0.2,-1.4 0.6,-1.9 0.3,-0.4 0.7,-0.6 1.2,-0.7 l 0.5,0.2 -0.2,0.1 c -0.1,0.1 -0.2,0.2 -0.2,0.4 0,0.1 0.1,0.3 0.2,0.4 0.1,0.1 0.3,0.3 0.5,0.4 0.4,0.3 0.6,0.5 0.9,0.8 0.2,0.3 0.3,0.6 0.3,1 0,0.5 -0.2,1 -0.6,1.3 -0.4,0.3 -0.9,0.5 -1.5,0.5 -0.3,0 -0.5,-0.1 -0.9,-0.1 z m 0.2,-7 c -0.1,0.3 -0.1,0.6 -0.1,1 v 1.7 c 0.1,0.1 0.2,0.1 0.4,0.1 0.3,0 0.5,-0.1 0.7,-0.3 0.2,-0.2 0.3,-0.5 0.3,-0.9 0,-0.3 0,-0.5 -0.1,-0.6 -0.1,-0.2 -0.1,-0.4 -0.3,-0.5 -0.1,-0.1 -0.1,-0.1 -0.2,-0.3 -0.1,-0.1 -0.2,-0.3 -0.2,-0.4 0,-0.1 -0.1,-0.3 -0.1,-0.4 V 796 c -0.1,0.2 -0.3,0.4 -0.4,0.7 z"
         id="path61"
         inkscape:connector-curvature="0" /><path
         d="m 199.7,805.9 c 0,0.4 -0.1,0.8 -0.3,1.2 -0.2,0.4 -0.6,0.7 -1,1 -0.4,0.3 -1,0.4 -1.6,0.4 -0.8,0 -1.5,-0.2 -2,-0.6 -0.6,-0.4 -0.9,-1 -0.9,-1.7 0,-0.5 0.2,-1 0.4,-1.3 0.3,-0.4 0.6,-0.6 1.1,-0.9 0.3,-0.1 0.5,-0.1 0.8,-0.1 0.4,0 0.8,-0.2 1.1,-0.7 0.3,-0.4 0.4,-1 0.4,-1.6 0,-1 -0.3,-1.9 -0.7,-2.6 -0.5,-0.7 -1.1,-1.2 -1.9,-1.6 -0.8,-0.4 -1.6,-0.5 -2.6,-0.5 -0.7,0 -1.4,0.1 -2,0.3 -0.6,0.2 -1.1,0.5 -1.5,0.8 0.5,-0.1 1.1,-0.2 1.9,-0.2 1.3,0 2.4,0.4 3.2,1.1 0.9,0.7 1.2,1.7 1.2,3 0,0.7 -0.2,1.3 -0.6,1.9 -0.4,0.6 -1.1,0.8 -1.9,0.8 -1,0 -1.7,-0.5 -2.1,-1.4 -0.2,0.4 -0.4,0.8 -0.8,1 -0.3,0.2 -0.7,0.4 -1.2,0.4 -0.5,0 -0.9,-0.1 -1.2,-0.3 -0.3,-0.2 -0.5,-0.4 -0.7,-0.8 -0.1,-0.2 -0.2,-0.3 -0.3,-0.4 -0.1,-0.1 -0.2,-0.1 -0.3,-0.1 -0.2,0 -0.4,0.1 -0.6,0.3 -0.2,0.2 -0.2,0.5 -0.3,1 l -0.6,-0.2 c 0.1,-0.7 0.3,-1.5 0.7,-2.3 0.4,-0.8 0.7,-1.6 1.2,-2.1 0.3,-0.4 0.5,-0.7 0.8,-1 0.3,-0.3 0.4,-0.4 0.5,-0.5 0.3,-0.4 0.5,-0.7 0.5,-1.1 0,-0.2 -0.1,-0.4 -0.2,-0.6 -0.1,-0.2 -0.3,-0.2 -0.5,-0.2 -0.2,0 -0.3,0.1 -0.5,0.2 -0.2,0.1 -0.3,0.2 -0.3,0.4 -0.1,0.1 -0.1,0.3 -0.1,0.4 0,0.2 -0.1,0.3 -0.1,0.4 -0.1,0.2 -0.2,0.3 -0.3,0.4 -0.1,0.1 -0.3,0.2 -0.5,0.2 -0.3,0 -0.6,-0.1 -0.7,-0.3 -0.1,-0.2 -0.2,-0.4 -0.2,-0.6 0,-0.6 0.2,-1 0.7,-1.4 0.5,-0.4 1,-0.6 1.6,-0.6 0.5,0 1,0.2 1.3,0.4 0.3,0.3 0.5,0.7 0.5,1.2 0,0.1 0,0.3 0,0.4 0.6,-0.6 1.4,-1.1 2.3,-1.4 0.9,-0.3 1.8,-0.5 2.7,-0.5 1,0 2,0.2 2.8,0.7 0.8,0.4 1.4,1.1 1.9,1.9 0.4,0.8 0.6,1.6 0.6,2.6 0,0.7 -0.1,1.4 -0.4,2 -0.3,0.6 -0.6,1.2 -1.1,1.5 -0.5,0.4 -1,0.6 -1.6,0.6 -0.3,0 -0.6,0.1 -0.9,0.1 -0.2,0.1 -0.4,0.2 -0.5,0.4 -0.2,0.2 -0.2,0.4 -0.2,0.6 0,0.4 0.2,0.7 0.6,1 0.4,0.2 0.9,0.4 1.5,0.4 0.6,0 1.2,-0.2 1.6,-0.4 0.4,-0.3 0.6,-0.7 0.6,-1.1 v -0.2 h 0.6 c 0.1,-0.3 0.1,-0.1 0.1,0.3 z m -11.5,-7.3 c -0.3,0.3 -0.7,0.7 -1.1,1.3 -0.3,0.4 -0.5,0.7 -0.6,1 -0.2,0.3 -0.3,0.6 -0.4,0.9 0.2,-0.2 0.4,-0.2 0.6,-0.2 0.2,0 0.3,0.1 0.5,0.1 0.2,0.1 0.3,0.1 0.3,0.1 0.3,0.1 0.5,0.2 0.6,0.2 0.2,0.1 0.4,0.1 0.6,0.1 0.5,0 0.9,-0.2 1.2,-0.4 0.3,-0.3 0.4,-0.7 0.4,-1.3 v 0 h 0.6 v 0 c 0,0.6 0.1,1.1 0.4,1.4 0.3,0.3 0.7,0.4 1.2,0.4 0.5,0 0.9,-0.2 1.2,-0.5 0.3,-0.3 0.4,-0.7 0.4,-1.1 0,-0.7 -0.3,-1.2 -0.9,-1.6 -0.6,-0.4 -1.4,-0.6 -2.5,-0.6 -1.1,-0.2 -1.9,0 -2.5,0.2 z"
         id="path63"
         inkscape:connector-curvature="0" /><path
         d="m 216.9,806.6 c -0.5,0.6 -1.3,0.9 -2.2,0.9 -0.9,0 -1.6,-0.3 -2.1,-1 -0.5,-0.6 -0.8,-1.5 -0.8,-2.5 0,-1.2 0.3,-2.3 0.9,-3.4 0.6,-1 1.3,-2 2.1,-2.9 h -4.7 c 0.2,0.5 0.4,1.1 0.4,1.9 0,0.9 -0.2,1.6 -0.6,2.4 -0.4,0.8 -1,1.3 -1.8,1.8 -0.7,0.4 -1.6,0.6 -2.6,0.6 -0.9,0 -1.6,-0.2 -2.3,-0.6 -0.7,-0.4 -1.3,-0.9 -1.6,-1.6 -0.4,-0.7 -0.6,-1.4 -0.6,-2.3 0,-1.1 0.3,-2 0.9,-2.7 0.5,-0.7 1.3,-1.3 2.2,-1.6 l 1.1,-0.4 c 0.7,-0.3 1.4,-0.5 1.9,-0.8 0.5,-0.3 1.1,-0.6 1.6,-1 0.3,-0.3 0.7,-0.6 1.1,-1.1 0.3,-0.3 0.4,-0.5 0.6,-0.6 0.2,-0.1 0.4,-0.2 0.6,-0.2 0.2,0 0.3,0.1 0.5,0.2 0.1,0.1 0.2,0.2 0.2,0.4 0,0.6 -0.6,1.2 -1.8,1.9 -0.4,0.2 -0.9,0.5 -1.5,0.7 -0.6,0.3 -1.2,0.5 -1.6,0.6 0.5,0 1,0.2 1.5,0.4 0.5,0.3 1,0.6 1.4,1.1 0.2,0.2 0.3,0.4 0.5,0.6 h 5.9 c 0,0.1 -0.1,0.2 -0.1,0.4 -0.6,0.9 -1.1,1.8 -1.3,2.7 -0.3,0.9 -0.4,1.8 -0.4,2.6 0,0.9 0.2,1.6 0.5,2.2 0.4,0.6 0.9,1 1.5,1.1 0.2,0.1 0.5,0.1 0.9,0.1 z m -9,-5.4 c 0.7,-0.6 1.1,-1.5 1.1,-2.6 0,-0.9 -0.3,-1.6 -0.9,-2.1 -0.6,-0.5 -1.4,-0.8 -2.4,-0.8 -0.6,0 -1.2,0.2 -1.9,0.4 -0.6,0.3 -1.2,0.7 -1.5,1.2 -0.4,0.5 -0.6,1.1 -0.6,1.8 0,0.9 0.3,1.5 0.9,2.1 0.6,0.6 1.4,0.9 2.6,0.9 1.1,0 2.1,-0.3 2.7,-0.9 z"
         id="path65"
         inkscape:connector-curvature="0" /><path
         d="m 234.7,799.2 c 0.3,0.5 0.5,1.1 0.5,1.6 0,1.1 -0.3,2 -1,2.6 -0.6,0.6 -1.5,0.9 -2.6,0.9 -0.7,0 -1.2,-0.2 -1.7,-0.5 -0.5,-0.3 -0.8,-0.7 -1,-1.3 -0.5,1.2 -1.4,1.8 -2.8,1.8 -0.6,0 -1.2,-0.2 -1.7,-0.5 -0.5,-0.3 -0.9,-0.7 -1.1,-1.2 -0.3,-0.5 -0.4,-1 -0.4,-1.6 0,-0.7 0.2,-1.3 0.5,-1.7 0.3,-0.4 0.7,-0.8 1.3,-1 -1.5,0.1 -2.4,0.1 -2.8,0.1 v -0.7 h 5.9 v -0.1 c 0,-0.5 -0.2,-0.9 -0.4,-1.2 -0.3,-0.3 -0.6,-0.5 -1,-0.5 -0.4,0 -0.6,0.1 -0.8,0.2 -0.2,0.2 -0.3,0.3 -0.4,0.6 -0.2,0.5 -0.5,0.7 -0.9,0.7 -0.2,0 -0.4,-0.1 -0.5,-0.2 -0.2,-0.2 -0.2,-0.3 -0.2,-0.6 0,-0.5 0.2,-0.9 0.6,-1.1 0.4,-0.3 1,-0.4 1.6,-0.4 0.9,0 1.5,0.3 2,0.9 0.4,0.5 0.7,1.2 0.7,2.1 v 0.3 h -1.9 c -0.6,0 -1.2,0.2 -1.8,0.5 -0.5,0.3 -0.8,0.8 -0.8,1.4 0,0.5 0.2,1 0.6,1.3 0.4,0.4 1,0.5 1.8,0.5 0.6,0 1.1,-0.1 1.5,-0.4 0.4,-0.3 0.6,-0.6 0.6,-1.1 v -0.5 h 0.6 v 0.5 c 0,0.5 0.2,0.9 0.6,1.1 0.4,0.3 1,0.4 1.7,0.4 0.7,0 1.4,-0.2 1.8,-0.5 0.5,-0.4 0.7,-0.9 0.7,-1.5 0,-1.3 -0.9,-1.9 -2.7,-1.9 -0.7,0 -1.3,0.1 -2,0.2 v -0.2 c 0,-0.9 0.2,-1.6 0.7,-2.2 0.5,-0.5 1.1,-0.9 1.9,-0.9 0.6,0 1.1,0.2 1.5,0.4 0.4,0.3 0.6,0.7 0.6,1.3 0,0.2 -0.1,0.4 -0.2,0.6 -0.1,0.2 -0.3,0.4 -0.4,0.5 0.7,0.4 1.1,0.8 1.4,1.3 z m -1.4,-2.1 c 0,-0.3 -0.2,-0.5 -0.4,-0.7 -0.3,-0.2 -0.6,-0.3 -1.1,-0.3 -0.5,0 -1,0.2 -1.3,0.4 -0.3,0.3 -0.5,0.7 -0.5,1.2 0.3,-0.1 0.7,-0.1 1.3,-0.1 0.7,0 1.2,0.1 1.6,0.2 0.3,-0.2 0.4,-0.5 0.4,-0.7 z"
         id="path67"
         inkscape:connector-curvature="0" /><path
         d="m 238.9,804.4 c -0.7,0 -1.3,-0.2 -1.7,-0.6 -0.4,-0.4 -0.6,-1 -0.6,-1.7 0,-0.2 0,-0.4 0,-0.5 h 0.6 c 0,0.1 0,0.2 0,0.3 0,0.5 0.1,0.9 0.3,1.1 0.2,0.2 0.5,0.3 0.8,0.3 0.5,0 0.8,-0.3 1.1,-0.7 0.2,-0.5 0.4,-1.3 0.4,-2.4 0,-2.1 -0.5,-3.2 -1.4,-3.2 -0.3,0 -0.5,0.1 -0.8,0.4 -0.2,0.3 -0.3,0.6 -0.3,1.1 0,0.1 0,0.2 0,0.3 h -0.6 c 0,-0.1 0,-0.3 0,-0.5 0,-0.7 0.2,-1.3 0.7,-1.7 0.5,-0.4 1,-0.6 1.6,-0.6 1,0 1.7,0.4 2.2,1.1 0.5,0.7 0.7,1.8 0.7,3.2 0,1.4 -0.3,2.4 -0.7,3.2 -0.6,0.5 -1.3,0.9 -2.3,0.9 z"
         id="path69"
         inkscape:connector-curvature="0" /><path
         d="m 254.9,800 v 9.3 h -0.5 c -0.2,-0.5 -0.5,-0.9 -1,-1.3 -0.5,-0.4 -1,-0.6 -1.6,-0.6 -0.4,0 -0.9,0.1 -1.2,0.2 -0.4,0.2 -0.9,0.4 -1.5,0.7 -0.6,0.3 -1.1,0.6 -1.5,0.7 -0.4,0.2 -0.9,0.3 -1.4,0.3 -0.6,0 -1.2,-0.2 -1.6,-0.5 -0.5,-0.4 -0.7,-0.9 -0.7,-1.5 0,-0.6 0.2,-1.1 0.6,-1.5 0.4,-0.4 1,-0.6 1.5,-0.6 0.9,0 1.6,0.4 2.1,1.1 l -0.6,0.2 c -0.3,-0.5 -0.7,-0.7 -1.3,-0.7 -0.4,0 -0.7,0.1 -1,0.4 -0.3,0.2 -0.4,0.5 -0.4,0.9 0,0.4 0.2,0.6 0.4,0.9 0.3,0.2 0.6,0.3 1,0.3 0.4,0 0.7,-0.1 1,-0.2 0.3,-0.1 0.8,-0.3 1.4,-0.5 0.6,-0.2 1.2,-0.4 1.6,-0.5 0.4,-0.1 1,-0.2 1.5,-0.2 0.5,0 1,0.1 1.4,0.3 0.5,0.2 0.9,0.5 1.1,0.8 v -6.1 c -0.5,0.8 -1.2,1.4 -2,1.9 -0.9,0.4 -1.8,0.6 -2.9,0.6 -1.2,0 -2.2,-0.2 -3.1,-0.6 -0.9,-0.4 -1.6,-1.1 -2.1,-1.9 -0.5,-0.8 -0.7,-1.8 -0.7,-2.8 0,-0.6 0.1,-1.3 0.3,-1.9 0.2,-0.6 0.5,-1.1 0.9,-1.4 0.4,-0.4 0.9,-0.5 1.4,-0.5 0.5,0 0.8,0.1 0.9,0.4 0.2,0.2 0.2,0.5 0.2,0.9 0,0.2 0,0.4 -0.1,0.6 -0.1,0.4 -0.1,0.7 -0.1,0.9 0,0.5 0.2,1 0.6,1.3 0.4,0.3 0.9,0.5 1.5,0.5 0.6,0 1.2,-0.2 1.5,-0.5 0.4,-0.4 0.6,-0.9 0.6,-1.4 0,-0.4 -0.1,-0.7 -0.3,-1 0.1,0.2 0.1,0.3 0.1,0.5 0,0.4 -0.2,0.8 -0.4,1.1 -0.3,0.3 -0.7,0.4 -1.2,0.4 -0.5,0 -0.9,-0.2 -1.2,-0.5 -0.3,-0.4 -0.5,-0.7 -0.5,-1.2 0,-0.5 0.2,-0.9 0.5,-1.2 0.4,-0.3 0.8,-0.5 1.3,-0.5 0.7,0 1.3,0.2 1.8,0.7 0.4,0.5 0.6,1.1 0.6,1.9 0,0.7 -0.3,1.4 -0.8,1.8 -0.5,0.5 -1.2,0.7 -2,0.7 -0.7,0 -1.4,-0.2 -1.9,-0.6 -0.5,-0.4 -0.9,-1 -0.9,-1.7 0,-0.3 0.1,-0.6 0.1,-1 0.1,-0.3 0.1,-0.5 0.1,-0.7 0,-0.4 -0.2,-0.6 -0.5,-0.6 -0.5,0 -0.9,0.3 -1.1,0.7 -0.3,0.5 -0.4,1.1 -0.4,1.8 0,1.2 0.4,2.2 1.3,2.9 0.9,0.7 2,1.1 3.4,1.1 0.9,0 1.8,-0.2 2.5,-0.6 0.7,-0.4 1.3,-0.9 1.7,-1.6 0.4,-0.7 0.6,-1.5 0.6,-2.4 0,-0.9 -0.2,-1.7 -0.6,-2.5 -0.4,-0.8 -1,-1.4 -1.7,-1.9 -0.7,-0.5 -1.6,-0.7 -2.6,-0.7 -1.7,0 -3.1,0.6 -4,1.9 h -0.7 c 0.5,-0.8 1.2,-1.4 2,-1.9 0.9,-0.4 1.8,-0.6 2.7,-0.6 1.1,0 2.1,0.3 3,0.9 0.9,0.5 1.6,1.3 2.2,2.3 0.6,1 0.8,2 0.8,3.1 0.1,0.2 0,0.8 -0.1,1.4 z m -4.8,-2.4 c 0.2,-0.2 0.3,-0.4 0.3,-0.7 0,-0.3 -0.1,-0.5 -0.3,-0.7 -0.2,-0.2 -0.4,-0.3 -0.7,-0.3 -0.3,0 -0.5,0.1 -0.7,0.3 -0.2,0.2 -0.3,0.4 -0.3,0.7 0,0.3 0.1,0.5 0.3,0.7 0.2,0.2 0.4,0.3 0.7,0.3 0.2,0 0.5,-0.1 0.7,-0.3 z"
         id="path71"
         inkscape:connector-curvature="0" /><path
         d="m 268.4,797.2 c 0.4,0.8 0.6,1.7 0.6,2.7 0,0.9 -0.2,1.6 -0.6,2.3 -0.4,0.7 -0.9,1.2 -1.6,1.6 -0.7,0.4 -1.4,0.6 -2.3,0.6 -0.3,0 -0.6,0 -0.9,-0.1 v -0.6 c 0.2,0.1 0.4,0.1 0.7,0.1 1,0 1.6,-0.3 2.2,-1 0.6,-0.7 0.7,-1.4 0.7,-2.3 0,-0.9 -0.3,-1.7 -0.7,-2.4 -0.5,-0.7 -1.2,-1 -2.1,-1 -1.3,0 -2.2,0.7 -2.6,2.3 0.2,-0.1 0.4,-0.2 0.6,-0.2 0.4,0 0.7,0.2 1,0.6 0.3,0.4 0.4,0.9 0.4,1.4 0,1 -0.3,1.7 -1,2.3 -0.6,0.5 -1.5,0.9 -2.6,0.9 -1.1,0 -1.9,-0.3 -2.6,-0.9 -0.7,-0.6 -1,-1.4 -1,-2.4 0,-1 0.3,-1.7 1,-2.3 0.6,-0.6 1.4,-0.9 2.4,-0.9 h 0.3 c 0,-0.4 -0.1,-0.9 -0.4,-1.2 -0.2,-0.3 -0.5,-0.5 -0.9,-0.5 -0.4,0 -0.6,0.2 -0.8,0.6 -0.1,0.2 -0.2,0.3 -0.3,0.5 -0.2,0.1 -0.3,0.2 -0.5,0.2 -0.2,0 -0.4,-0.1 -0.5,-0.2 -0.2,-0.2 -0.2,-0.4 -0.2,-0.6 0,-0.4 0.2,-0.7 0.5,-1 0.3,-0.3 0.7,-0.5 1.3,-0.5 0.8,0 1.4,0.3 1.9,1 0.5,0.7 0.7,1.4 0.7,2.3 -0.3,-0.1 -0.5,-0.1 -0.7,-0.1 -0.9,0 -1.5,0.2 -1.9,0.5 -0.5,0.3 -0.7,0.8 -0.7,1.3 0,0.6 0.3,1.1 0.8,1.4 0.5,0.3 1.2,0.5 1.9,0.5 0.6,0 1.2,-0.1 1.7,-0.4 0.5,-0.3 0.7,-0.6 0.7,-1.1 0,-0.3 -0.1,-0.4 -0.2,-0.6 -0.1,-0.2 -0.3,-0.2 -0.4,-0.2 -0.3,0 -0.5,0.2 -0.7,0.6 l -0.5,-0.2 c 0.1,-1 0.3,-1.9 0.8,-2.8 0.5,-0.9 1,-1.5 1.8,-1.9 -1.4,-0.1 -2.5,-0.4 -3.3,-0.9 -0.7,-0.5 -1.1,-1.1 -1.1,-1.8 0,-0.9 0.4,-1.6 1.2,-2.1 0.9,-0.5 1.9,-0.7 3,-0.7 0.7,0 1.5,0.1 2.2,0.4 0.7,0.2 1.2,0.6 1.6,1 0.4,0.5 0.6,1 0.6,1.6 0,0.5 -0.1,1 -0.4,1.3 -0.3,0.4 -0.6,0.7 -1.1,0.9 1,0.6 1.5,1.1 2,2 z m -3.5,-2 v 0 c 0.1,0 0.2,0 0.4,0 h 0.3 c 0.5,-0.1 1,-0.2 1.3,-0.5 0.3,-0.3 0.5,-0.6 0.5,-1.1 0,-0.6 -0.4,-1 -1.1,-1.3 -0.7,-0.3 -1.5,-0.4 -2.6,-0.4 -0.9,0 -1.6,0.2 -2.2,0.4 -0.6,0.3 -0.9,0.6 -0.9,1.1 0,0.5 0.5,1 1.4,1.2 0.9,0.2 1.8,0.6 2.9,0.6 z"
         id="path73"
         inkscape:connector-curvature="0" /><path
         d="m 271,804.1 -0.6,-0.2 c 0.1,-0.7 0.3,-1.5 0.7,-2.3 0.4,-0.9 0.7,-1.6 1.2,-2.1 0.3,-0.4 0.5,-0.7 0.8,-1 0.3,-0.3 0.4,-0.4 0.5,-0.5 0.3,-0.4 0.5,-0.7 0.5,-1.1 0,-0.2 -0.1,-0.4 -0.2,-0.6 -0.1,-0.2 -0.3,-0.2 -0.5,-0.2 -0.2,0 -0.3,0.1 -0.5,0.2 -0.2,0.1 -0.3,0.2 -0.3,0.4 -0.1,0.1 -0.1,0.3 -0.1,0.4 0,0.2 -0.1,0.3 -0.1,0.4 0,0.1 -0.2,0.3 -0.3,0.4 -0.1,0.1 -0.3,0.2 -0.5,0.2 -0.3,0 -0.6,-0.1 -0.7,-0.3 -0.1,-0.2 -0.2,-0.4 -0.2,-0.6 0,-0.6 0.2,-1 0.7,-1.4 0.5,-0.4 1,-0.6 1.6,-0.6 0.5,0 1,0.2 1.3,0.4 0.3,0.3 0.5,0.7 0.5,1.2 0,0.1 0,0.3 0,0.4 0.6,-0.6 1.4,-1.1 2.3,-1.4 0.9,-0.4 1.8,-0.5 2.7,-0.5 1,0 2,0.2 2.8,0.7 0.8,0.4 1.4,1.1 1.9,1.9 0.4,0.8 0.6,1.6 0.6,2.6 0,0.6 -0.1,1.3 -0.3,1.9 -0.2,0.6 -0.6,1.2 -1,1.6 -0.5,0.4 -1.1,0.6 -1.8,0.6 -0.4,0 -0.8,-0.1 -1.1,-0.3 v -0.6 c 0.3,0.2 0.6,0.2 1,0.2 0.5,0 0.9,-0.2 1.1,-0.7 0.3,-0.5 0.4,-1 0.4,-1.6 0,-1 -0.3,-1.9 -0.7,-2.6 -0.5,-0.7 -1.1,-1.2 -1.9,-1.6 -0.8,-0.4 -1.6,-0.5 -2.6,-0.5 -0.7,0 -1.4,0.1 -2,0.3 -0.6,0.2 -1.1,0.5 -1.5,0.8 0.5,-0.1 1.1,-0.2 1.9,-0.2 1.3,0 2.4,0.4 3.2,1.1 0.9,0.7 1.3,1.7 1.3,3 0,0.7 -0.2,1.3 -0.6,1.9 -0.4,0.6 -1.1,0.8 -1.9,0.8 -1,0 -1.7,-0.5 -2.1,-1.4 -0.2,0.4 -0.4,0.8 -0.8,1 -0.3,0.2 -0.7,0.4 -1.2,0.4 -0.5,0 -0.9,-0.1 -1.2,-0.3 -0.3,-0.2 -0.5,-0.4 -0.7,-0.8 -0.1,-0.2 -0.2,-0.3 -0.3,-0.4 -0.1,-0.1 -0.2,-0.1 -0.3,-0.1 -0.2,0 -0.4,0.1 -0.6,0.3 -0.3,0.1 -0.3,0.4 -0.4,0.8 z m 1.8,-4.2 c -0.3,0.4 -0.5,0.7 -0.6,1 -0.2,0.3 -0.3,0.6 -0.4,0.9 0.2,-0.2 0.4,-0.2 0.6,-0.2 0.2,0 0.3,0.1 0.5,0.1 0.2,0.1 0.3,0.1 0.3,0.1 0.3,0.1 0.5,0.2 0.6,0.2 0.2,0.1 0.4,0.1 0.6,0.1 0.5,0 0.9,-0.2 1.2,-0.4 0.3,-0.3 0.4,-0.7 0.4,-1.3 v 0 h 0.6 v 0 c 0,0.6 0.1,1.1 0.4,1.4 0.3,0.3 0.7,0.4 1.2,0.4 0.5,0 0.9,-0.2 1.2,-0.5 0.3,-0.3 0.4,-0.7 0.4,-1.1 0,-0.7 -0.3,-1.2 -0.9,-1.6 -0.6,-0.4 -1.4,-0.6 -2.5,-0.6 -1.1,0 -2,0.1 -2.5,0.4 -0.4,0.1 -0.7,0.5 -1.1,1.1 z"
         id="path75"
         inkscape:connector-curvature="0" /><path
         d="m 289.8,804.4 c -1,0 -1.9,-0.4 -2.4,-1.1 -0.5,-0.7 -0.9,-1.7 -0.9,-2.8 0,-0.9 0.2,-1.6 0.5,-2.2 0.3,-0.6 0.8,-1.2 1.4,-1.5 0.6,-0.4 1.3,-0.5 2.1,-0.5 0.2,0 0.4,0 0.6,0.1 v 0.6 c -0.2,-0.1 -0.4,-0.1 -0.7,-0.1 -0.6,0 -1.2,0.1 -1.6,0.4 -0.5,0.3 -0.9,0.6 -1.1,1.1 -0.3,0.4 -0.4,0.9 -0.4,1.4 0,0.8 0.2,1.4 0.7,1.9 0.5,0.5 1.1,0.7 1.9,0.7 0.6,0 1.1,-0.2 1.5,-0.4 0.4,-0.3 0.6,-0.6 0.6,-1.1 v -0.5 h 0.6 v 0.5 c 0,0.5 0.2,0.9 0.7,1.2 0.5,0.3 1,0.4 1.7,0.4 0.8,0 1.4,-0.2 1.8,-0.6 0.4,-0.4 0.6,-0.9 0.6,-1.4 0,-1.4 -1,-2.1 -3,-2.1 -0.6,0 -1.2,0.1 -1.8,0.2 0,-0.1 0,-0.3 0,-0.5 0,-0.9 0.2,-1.5 0.7,-1.9 0.5,-0.4 1.2,-0.7 2,-0.7 0.7,0 1.2,0.2 1.6,0.4 0.4,0.3 0.6,0.7 0.6,1.2 0,0.2 -0.1,0.5 -0.2,0.7 -0.1,0.2 -0.3,0.4 -0.6,0.5 0.5,0.3 0.9,0.7 1.1,1.2 0.3,0.5 0.4,1.1 0.4,1.7 0,1 -0.3,1.9 -0.9,2.6 -0.6,0.7 -1.4,1 -2.4,1 -1.4,0 -2.3,-0.5 -2.7,-1.5 -0.3,0.6 -1.2,1.1 -2.4,1.1 z m 5.6,-8.4 c -0.6,0 -1.2,0.2 -1.5,0.4 -0.4,0.3 -0.6,0.7 -0.6,1.2 0.3,-0.1 0.7,-0.1 1.2,-0.1 0.8,0 1.4,0.1 1.8,0.2 0.2,-0.1 0.3,-0.2 0.4,-0.3 0.1,-0.1 0.1,-0.3 0.1,-0.5 0,-0.3 -0.2,-0.5 -0.4,-0.7 -0.3,-0.1 -0.6,-0.2 -1,-0.2 z"
         id="path77"
         inkscape:connector-curvature="0" /></g><g
       class="st1"
       id="g97"
       style="opacity:0.85;enable-background:new"
       transform="translate(-80,-2)"><path
         d="m 178.5,822.3 c 0,-1 0.4,-1.7 1.2,-2.2 0.8,-0.5 1.8,-0.8 2.9,-0.8 0.9,0 1.8,0.2 2.7,0.5 0.9,0.4 1.5,0.9 2,1.5 0.5,0.6 0.8,1.4 0.8,2.2 0,1.3 -0.2,2.2 -0.5,2.9 h 2 v -6.9 h 2.2 v 11.6 h -2.2 v -3.9 h -2.2 c -0.6,1.1 -1.7,2 -3.2,2.7 -1.5,0.6 -3.1,1 -5,1 -1,0 -1.9,-0.1 -2.9,-0.4 -1,-0.3 -1.8,-0.6 -2.3,-1.1 -0.6,-0.5 -0.9,-1.1 -0.9,-1.8 0,-0.3 0.1,-0.5 0.4,-0.7 0.3,-0.2 0.5,-0.3 0.9,-0.3 h 10.9 c 0.4,-0.9 0.7,-1.9 0.7,-2.9 0,-0.6 -0.1,-1.2 -0.4,-1.7 -0.3,-0.5 -0.6,-1 -1,-1.3 -0.4,-0.3 -0.9,-0.5 -1.5,-0.5 0.4,0.2 0.7,0.5 1,1 0.3,0.4 0.4,0.9 0.4,1.4 0,0.5 -0.2,0.9 -0.4,1.3 -0.3,0.4 -0.6,0.7 -1.1,0.9 -0.5,0.2 -1,0.3 -1.4,0.3 -0.5,0 -0.9,-0.1 -1.3,-0.4 -0.4,-0.2 -0.7,-0.5 -1,-1 -0.7,-0.5 -0.8,-0.9 -0.8,-1.4 z m -4.3,4.9 c -0.2,0 -0.3,0.1 -0.4,0.1 -0.1,0 -0.2,0.2 -0.2,0.3 -0.1,0.5 0.2,1 0.6,1.3 0.5,0.4 1.1,0.7 1.9,0.9 0.8,0.2 1.6,0.3 2.3,0.3 1.3,0 2.5,-0.3 3.6,-0.8 1.1,-0.5 1.9,-1.3 2.4,-2.1 z m 6.4,-6.8 c -0.4,0 -0.7,0.2 -1,0.6 -0.3,0.4 -0.4,0.9 -0.4,1.3 0,0.4 0.1,0.9 0.4,1.2 0.3,0.4 0.6,0.5 1,0.5 0.4,0 0.7,-0.2 1,-0.5 0.3,-0.4 0.4,-0.7 0.4,-1.2 0,-0.5 -0.2,-1 -0.4,-1.3 -0.3,-0.4 -0.6,-0.6 -1,-0.6 z"
         id="path81"
         inkscape:connector-curvature="0" /><path
         d="m 201.6,833.1 c -1.4,0 -2.8,-0.3 -4,-1 -1.2,-0.7 -2.2,-1.5 -2.9,-2.6 -0.7,-1.1 -1.1,-2.3 -1.1,-3.6 0,-1.4 0.3,-2.8 1,-3.9 0.7,-1.1 1.6,-2 2.7,-2.4 l 0.3,0.6 c -1,0.4 -1.8,1.2 -2.4,2.2 -0.6,1 -0.9,2.2 -0.9,3.5 0,1.1 0.3,2.2 0.9,3.1 0.6,1 1.3,1.7 2.3,2.2 1,0.5 2,0.8 3.2,0.8 1.2,0 2.2,-0.2 3.2,-0.6 1,-0.4 1.7,-1 2.3,-1.8 0.6,-0.8 0.9,-1.7 0.9,-2.8 0,-0.9 -0.1,-1.6 -0.4,-2.1 -0.3,-0.5 -0.7,-0.7 -1.4,-0.7 h -0.8 v 1.1 c 0,2 -1.6,3 -4.7,3 -0.5,0 -1.1,-0.1 -1.5,-0.4 -0.5,-0.3 -0.9,-0.6 -1.2,-1.1 -0.3,-0.5 -0.4,-1 -0.4,-1.5 0,-0.5 0.2,-1 0.6,-1.3 0.4,-0.3 0.9,-0.5 1.5,-0.5 h 0.6 v -3.9 h 7.9 v 0.6 h -2.6 v 3.3 h 1 c 1.1,0 2.1,0.3 2.8,1 0.7,0.7 1.1,1.5 1.1,2.6 0,1.3 -0.3,2.4 -1,3.4 -0.7,0.9 -1.6,1.6 -2.7,2.1 -1.5,0.5 -2.8,0.7 -4.3,0.7 z m -3,-8.9 c -0.4,0 -0.7,0.1 -1,0.3 -0.3,0.2 -0.4,0.4 -0.4,0.8 0,0.7 0.2,1.3 0.7,1.7 0.4,0.4 1.1,0.6 1.8,0.6 0.7,0 1.3,-0.2 1.8,-0.6 0.5,-0.4 0.7,-1 0.7,-1.6 v -1.1 z m 1.4,-4 v 3.3 h 2.4 v -3.3 z"
         id="path83"
         inkscape:connector-curvature="0" /><path
         d="m 212.6,831.7 c -1.4,-1.4 -2.1,-3.3 -2.1,-5.6 0,-1.4 0.3,-2.7 1,-3.8 0.6,-1.1 1.5,-2 2.5,-2.5 l 0.3,0.5 c -0.9,0.5 -1.6,1.3 -2.2,2.3 -0.6,1 -0.9,2.2 -0.9,3.5 0,1.4 0.3,2.7 0.9,3.7 0.6,1.1 1.4,1.9 2.4,2.5 1,0.6 2.2,0.9 3.6,0.9 1.2,0 2.3,-0.3 3.2,-0.7 0.9,-0.5 1.6,-1.2 2.1,-2.2 0.5,-1 0.7,-2 0.7,-3.2 0,-1.8 -0.5,-2.7 -1.6,-2.7 -0.2,0 -0.4,0.1 -0.6,0.1 -0.2,0.1 -0.3,0.2 -0.3,0.3 v 3.6 h -2.2 v -8 h -3.1 v 8 h -0.7 v -8.7 h 8.5 v 0.6 h -2.4 v 3.6 c 0.3,-0.3 0.7,-0.4 1.4,-0.4 1,0 1.9,0.3 2.4,1 0.6,0.7 0.9,1.5 0.9,2.6 0,2 -0.7,3.7 -2.3,5 -1.5,1.2 -3.5,1.9 -6.1,1.9 -2.2,-0.2 -4,-0.9 -5.4,-2.3 z"
         id="path85"
         inkscape:connector-curvature="0" /><path
         d="m 240,833.1 c -1.4,0 -2.8,-0.3 -4,-1 -1.2,-0.6 -2.2,-1.5 -2.9,-2.6 -0.7,-1.1 -1.1,-2.3 -1.1,-3.6 0,-1.4 0.3,-2.8 1,-3.9 0.7,-1.1 1.6,-2 2.7,-2.4 l 0.3,0.6 c -1,0.4 -1.8,1.2 -2.4,2.2 -0.6,1 -0.9,2.2 -0.9,3.5 0,1.1 0.3,2.2 0.9,3.1 0.6,1 1.3,1.7 2.3,2.2 1,0.5 2,0.8 3.2,0.8 1.2,0 2.2,-0.2 3.2,-0.6 1,-0.4 1.7,-1 2.3,-1.8 0.6,-0.8 0.9,-1.7 0.9,-2.8 0,-0.9 -0.1,-1.6 -0.4,-2.1 -0.3,-0.5 -0.7,-0.7 -1.4,-0.7 h -0.8 v 1.1 c 0,2 -1.6,3 -4.8,3 -0.5,0 -1.1,-0.1 -1.5,-0.4 -0.5,-0.3 -0.9,-0.6 -1.2,-1.1 -0.3,-0.5 -0.4,-1 -0.4,-1.5 0,-0.5 0.2,-1 0.6,-1.3 0.4,-0.3 0.9,-0.5 1.5,-0.5 h 0.6 v -3.9 h 7.9 V 820 H 243 v 3.3 h 1 c 1.1,0 2.1,0.3 2.8,1 0.7,0.7 1.1,1.5 1.1,2.6 0,1.3 -0.3,2.4 -1,3.4 -0.7,0.9 -1.6,1.6 -2.7,2.1 -1.4,0.5 -2.7,0.7 -4.2,0.7 z m -3,-8.9 c -0.4,0 -0.7,0.1 -1,0.3 -0.3,0.2 -0.4,0.4 -0.4,0.8 0,0.7 0.2,1.3 0.7,1.7 0.4,0.4 1.1,0.6 1.8,0.6 0.7,0 1.3,-0.2 1.8,-0.6 0.5,-0.4 0.7,-1 0.7,-1.6 v -1.1 z m 1.4,-4 v 3.3 h 2.4 v -3.3 z"
         id="path87"
         inkscape:connector-curvature="0" /><path
         d="m 262.2,828.2 v 1 c 0.4,-0.2 0.8,-0.3 1.2,-0.3 0.6,0 1.2,0.2 1.6,0.5 0.4,0.3 0.7,0.7 0.7,1.2 0,0.7 -0.4,1.4 -1.2,1.9 -0.8,0.5 -1.9,1 -3.1,1.2 -1.2,0.3 -2.4,0.4 -3.7,0.4 -1.6,0 -3,-0.4 -4.4,-1.1 -1.3,-0.7 -2.4,-1.6 -3.2,-2.9 -0.8,-1.2 -1.2,-2.6 -1.2,-4 0,-1.4 0.3,-2.8 0.9,-3.9 0.6,-1.2 1.4,-2 2.4,-2.5 l 0.3,0.6 c -0.9,0.5 -1.5,1.2 -2.1,2.3 -0.6,1.1 -0.7,2.2 -0.7,3.6 0,1.3 0.4,2.6 1.1,3.7 0.7,1.1 1.8,2 3,2.6 1.2,0.6 2.6,1 4,1 0.9,0 1.8,-0.1 2.7,-0.3 0.9,-0.2 1.6,-0.5 2.2,-1 0.6,-0.5 0.9,-1 0.9,-1.6 0,-0.2 -0.1,-0.4 -0.2,-0.6 -0.2,-0.2 -0.3,-0.2 -0.5,-0.2 -0.2,0 -0.4,0.1 -0.6,0.3 v 1.2 H 260 v -3.1 h -5.7 v -8.7 h 2.2 v 8 h 3.7 v -5.2 c 0,-0.9 0.3,-1.6 0.9,-2.1 0.5,-0.5 1.3,-0.9 2.2,-0.9 0.8,0 1.5,0.2 2.1,0.6 0.6,0.4 1,1 1.3,1.8 0.3,0.7 0.4,1.5 0.4,2.4 0,1.1 -0.2,2 -0.7,2.8 -0.4,0.7 -1.1,1.1 -2,1.1 h -2.2 z m 0.1,-0.6 h 1.8 c 0.7,0 1.2,-0.3 1.6,-1 0.4,-0.7 0.5,-1.4 0.5,-2.3 0,-1.1 -0.2,-2.1 -0.6,-2.9 -0.4,-0.8 -1,-1.2 -1.8,-1.2 -0.4,0 -0.8,0.2 -1.1,0.6 -0.3,0.4 -0.4,0.9 -0.4,1.4 z"
         id="path89"
         inkscape:connector-curvature="0" /><path
         d="m 278.8,828.2 h -10 v -8.7 h 2.2 v 8 h 3.7 v -5.2 c 0,-0.9 0.3,-1.6 0.9,-2.1 0.5,-0.5 1.3,-0.9 2.2,-0.9 0.8,0 1.5,0.2 2.1,0.6 0.6,0.4 1,1 1.3,1.8 0.3,0.7 0.4,1.5 0.4,2.4 0,1.1 -0.2,2 -0.7,2.8 -0.6,0.9 -1.2,1.3 -2.1,1.3 z m -2,-6 v 5.3 h 1.8 c 0.7,0 1.2,-0.3 1.6,-1 0.4,-0.6 0.5,-1.4 0.5,-2.3 0,-1.1 -0.2,-2.1 -0.6,-2.9 -0.4,-0.8 -1,-1.2 -1.8,-1.2 -0.4,0 -0.8,0.2 -1.1,0.6 -0.3,0.6 -0.4,1 -0.4,1.5 z"
         id="path91"
         inkscape:connector-curvature="0" /><path
         d="m 293.5,828.2 h -10 v -8.7 h 2.2 v 8 h 3.7 v -5.2 c 0,-0.9 0.3,-1.6 0.9,-2.1 0.5,-0.5 1.3,-0.9 2.2,-0.9 0.8,0 1.5,0.2 2.1,0.6 0.6,0.4 1,1 1.3,1.8 0.3,0.7 0.4,1.5 0.4,2.4 0,1.1 -0.2,2 -0.7,2.8 -0.6,0.9 -1.3,1.3 -2.1,1.3 z m -2,-6 v 5.3 h 1.8 c 0.7,0 1.2,-0.3 1.6,-1 0.4,-0.7 0.5,-1.4 0.5,-2.3 0,-1.1 -0.2,-2.1 -0.6,-2.9 -0.4,-0.8 -1,-1.2 -1.8,-1.2 -0.4,0 -0.8,0.2 -1.1,0.6 -0.3,0.6 -0.4,1 -0.4,1.5 z"
         id="path93"
         inkscape:connector-curvature="0" /><path
         d="m 291.1,817.9 c -0.4,0 -0.8,-0.2 -1.1,-0.4 -0.3,-0.3 -0.5,-0.6 -0.5,-1 0,-0.4 0.2,-0.7 0.5,-1 0.3,-0.3 0.7,-0.4 1.1,-0.4 0.4,0 0.8,0.2 1.1,0.4 0.3,0.3 0.5,0.6 0.5,1 0,0.4 -0.2,0.7 -0.5,1 -0.3,0.3 -0.6,0.4 -1.1,0.4 z"
         id="path95"
         inkscape:connector-curvature="0" /></g></g><g
     id="Layer_2_1_"
     transform="translate(0,-741.00006)" /><g
     id="Layer_3"
     transform="translate(0,-741.00006)" /></svg>